<?xml version="1.0" standalone="no"?>
<!DOCTYPE svg PUBLIC "-//W3C//DTD SVG 20010904//EN"
 "http://www.w3.org/TR/2001/REC-SVG-20010904/DTD/svg10.dtd">
<svg version="1.0" xmlns="http://www.w3.org/2000/svg"
 width="845.000000pt" height="1280.000000pt" viewBox="0 0 845.000000 1280.000000"
 preserveAspectRatio="xMidYMid meet">
<metadata>
Created by potrace 1.15, written by Peter Selinger 2001-2017
</metadata>
<g transform="translate(0.000000,1280.000000) scale(0.100000,-0.100000)"
fill="#000000" stroke="none">
<path d="M4035 12201 c-16 -3 -45 -14 -63 -24 -18 -10 -74 -27 -125 -38 -150
-32 -265 -97 -304 -173 -9 -16 -21 -71 -29 -121 -7 -49 -22 -117 -34 -150 -24
-66 -36 -265 -18 -298 10 -20 17 -157 7 -157 -3 0 -11 6 -18 13 -10 10 -17 6
-37 -16 -46 -53 -27 -173 46 -286 18 -29 41 -52 55 -55 21 -5 25 -12 24 -39
-3 -58 38 -197 57 -197 18 0 22 -31 21 -161 l-2 -121 -50 -44 c-51 -46 -264
-143 -390 -179 -267 -76 -333 -107 -442 -209 -77 -72 -120 -129 -173 -232 -90
-175 -120 -333 -130 -669 -7 -247 -8 -251 -39 -340 -46 -129 -74 -285 -96
-545 -8 -86 -41 -223 -80 -325 -47 -123 -74 -267 -81 -425 -3 -80 -12 -194
-19 -255 -8 -60 -28 -260 -45 -444 -17 -183 -35 -352 -40 -375 -5 -22 -16
-113 -24 -201 -35 -361 -36 -371 -64 -458 -11 -38 -18 -47 -31 -41 -37 15 -62
15 -104 -1 -46 -17 -116 -79 -104 -91 4 -4 33 -8 64 -9 61 -1 116 -28 176 -83
23 -22 26 -32 21 -57 -3 -16 -10 -34 -13 -40 -4 -5 -13 -30 -20 -55 -6 -25
-16 -54 -21 -65 -5 -11 -35 -96 -65 -190 -31 -93 -60 -179 -65 -190 -5 -11
-14 -38 -20 -60 -6 -22 -15 -49 -20 -60 -5 -11 -14 -38 -20 -60 -6 -22 -15
-49 -20 -60 -5 -11 -23 -63 -40 -115 -17 -52 -35 -104 -40 -115 -5 -11 -14
-38 -20 -60 -6 -22 -15 -49 -20 -60 -4 -11 -22 -65 -40 -120 -17 -55 -35 -109
-41 -120 -5 -11 -17 -47 -28 -80 -10 -33 -41 -125 -69 -205 -113 -327 -115
-338 -119 -647 -4 -294 -3 -297 59 -220 20 23 74 85 122 137 82 90 148 198
171 280 4 14 13 39 20 55 13 31 42 120 90 280 15 50 42 135 60 190 18 55 56
174 85 265 28 91 56 174 60 185 4 11 22 67 40 125 18 58 36 114 40 125 5 11
23 67 40 125 18 58 36 114 40 125 5 11 23 67 40 125 18 58 38 119 46 137 8 17
14 36 14 42 0 19 43 141 49 141 10 0 115 -110 139 -146 11 -16 24 -42 27 -57
10 -37 31 -53 50 -37 23 19 19 108 -8 182 -29 80 -84 163 -147 222 -34 32 -50
55 -50 71 0 31 7 31 36 0 40 -44 59 -34 103 53 49 99 54 122 53 264 -1 116 -2
118 -43 200 -22 46 -59 104 -80 130 -21 26 -39 53 -39 60 0 29 59 186 100 268
70 138 204 446 253 580 75 206 146 521 147 652 0 112 46 333 107 518 20 62 43
108 43 90 0 -3 5 -32 10 -65 45 -267 53 -533 25 -777 -17 -155 -17 -157 3
-260 12 -57 19 -114 15 -127 -6 -23 -7 -23 -20 -5 -13 18 -14 18 -34 -3 -19
-18 -20 -24 -9 -54 11 -32 10 -39 -24 -100 -54 -98 -79 -183 -74 -248 4 -42
-1 -69 -19 -115 -17 -46 -23 -79 -23 -143 0 -64 -6 -98 -26 -150 -39 -106 -44
-140 -31 -216 10 -59 9 -75 -6 -118 -10 -27 -21 -72 -24 -99 -3 -29 -13 -56
-24 -66 -26 -23 -25 -71 1 -79 25 -8 27 -55 6 -135 -10 -39 -11 -58 -3 -71 8
-12 6 -43 -8 -114 -18 -94 -18 -100 0 -151 17 -51 17 -59 1 -181 -10 -70 -24
-162 -31 -203 -8 -41 -21 -112 -29 -157 -13 -73 -13 -97 -1 -200 8 -65 19
-140 24 -168 21 -109 23 -170 6 -240 -9 -39 -25 -117 -37 -175 -11 -58 -28
-148 -39 -200 -10 -52 -27 -162 -38 -245 -20 -159 -32 -205 -54 -205 -28 0
-58 -47 -67 -106 -12 -75 -13 -444 0 -591 8 -97 12 -117 37 -153 56 -84 65
-114 84 -276 12 -99 0 -289 -22 -366 -11 -41 -11 -178 1 -238 5 -26 5 -62 0
-85 -12 -56 -14 -113 -6 -163 7 -35 5 -41 -7 -36 -9 3 -27 -2 -42 -12 -15 -10
-43 -18 -63 -18 -20 -1 -43 -5 -50 -9 -7 -5 -12 -4 -12 3 0 6 -10 4 -24 -5
-16 -11 -26 -13 -31 -6 -10 17 -35 13 -35 -5 0 -13 -3 -14 -14 -5 -10 8 -16 9
-21 1 -7 -11 -42 -10 -62 3 -8 5 -13 4 -13 -2 0 -6 4 -11 9 -11 5 0 11 -9 14
-21 7 -27 -20 -37 -37 -14 -16 22 -46 13 -53 -16 -5 -17 -11 -20 -33 -15 -22
4 -29 1 -33 -13 -2 -10 -17 -25 -33 -32 -21 -11 -30 -24 -36 -54 -7 -35 -13
-42 -45 -52 -23 -7 -42 -8 -48 -3 -7 6 -25 -1 -48 -17 -39 -27 -44 -43 -8 -23
29 15 26 -1 -4 -30 -27 -26 -32 -49 -13 -68 9 -9 9 -12 -1 -12 -7 0 -3 -9 10
-20 l24 -20 -30 -25 c-58 -49 -75 -69 -65 -79 5 -5 -1 -22 -17 -42 -28 -38
-22 -57 22 -68 25 -6 34 -30 16 -41 -5 -3 -7 -20 -5 -38 3 -19 0 -39 -9 -51
-13 -18 -11 -23 19 -53 21 -20 39 -30 49 -27 8 4 22 0 31 -7 13 -10 17 -10 25
2 7 11 9 10 9 -6 -1 -11 -7 -29 -15 -39 -8 -11 -15 -28 -15 -38 0 -26 40 -39
65 -22 29 20 34 17 30 -16 -2 -21 1 -30 10 -30 8 0 19 -8 25 -17 8 -12 13 -14
16 -6 3 7 12 9 20 6 20 -7 18 26 -3 49 -9 10 -11 18 -5 18 6 0 15 -6 19 -14
12 -20 47 -36 62 -27 9 6 7 10 -8 14 -24 6 -30 47 -7 47 7 0 16 9 19 21 7 26
41 22 45 -6 9 -60 9 -61 51 -57 25 3 48 -2 62 -11 16 -12 26 -13 39 -5 24 15
107 1 122 -21 10 -13 26 -18 63 -17 28 1 53 -3 56 -8 10 -13 59 2 59 19 0 17
16 20 22 5 1 -5 17 -11 33 -13 35 -5 91 -20 192 -53 71 -24 173 -32 173 -15 0
5 -4 11 -10 13 -6 2 -6 9 0 17 7 12 11 12 24 2 12 -10 26 -11 68 -1 93 21 169
43 174 51 3 5 16 3 31 -4 24 -11 28 -8 64 32 21 23 42 40 47 37 6 -3 15 1 22
9 19 23 56 18 75 -11 12 -19 20 -23 28 -15 16 16 27 13 27 -7 0 -10 9 -26 21
-35 16 -15 24 -16 35 -6 12 10 21 8 44 -9 38 -29 61 -28 95 4 35 32 59 25 53
-16 l-5 -30 23 21 c21 20 24 20 30 5 4 -9 4 -19 1 -22 -11 -11 35 -45 61 -45
149 2 252 13 252 28 0 3 -10 13 -23 24 -13 11 -17 18 -9 19 20 0 82 -31 82
-41 0 -5 5 -9 10 -9 16 0 12 22 -7 35 -14 11 -7 13 42 11 33 0 63 -5 66 -10 8
-10 89 -14 89 -5 0 17 42 15 64 -2 31 -24 53 -24 66 1 6 11 20 20 31 20 12 0
23 8 25 17 4 14 17 19 57 20 63 3 110 21 103 39 -7 19 39 48 64 41 12 -3 23 1
29 10 6 11 10 12 15 4 12 -18 47 -13 53 8 7 26 33 35 47 17 6 -8 25 -16 41
-18 21 -2 29 -8 27 -19 -4 -25 37 -31 65 -9 32 25 74 33 106 21 18 -7 28 -7
33 0 4 6 13 4 24 -6 24 -22 43 -10 36 21 -7 28 9 32 42 9 16 -12 27 -13 41 -6
10 6 21 7 25 3 4 -3 10 -1 14 5 5 8 21 8 62 -3 30 -8 61 -14 70 -14 8 0 21
-14 29 -31 12 -27 17 -30 42 -25 17 3 29 1 31 -6 6 -18 68 10 68 30 0 22 29
-17 30 -40 0 -25 20 -32 34 -12 13 17 14 16 25 -4 7 -13 17 -19 26 -16 8 4 15
1 15 -5 0 -5 9 -15 20 -21 15 -8 18 -7 15 2 -3 7 5 18 17 24 26 11 98 -7 117
-30 6 -7 22 -11 36 -8 28 5 29 6 15 33 -9 15 -7 21 7 26 26 9 63 44 63 59 0 8
-6 11 -14 8 -18 -7 -32 16 -16 26 9 5 9 9 1 14 -6 4 -11 26 -11 48 0 24 -7 49
-16 59 -12 13 -13 22 -5 37 6 12 8 27 5 35 -6 17 12 32 21 17 10 -16 25 -11
18 6 -5 13 -2 15 15 9 24 -7 29 4 11 22 -9 9 -4 21 20 50 17 20 31 46 31 55 0
10 4 18 9 18 11 0 21 38 11 42 -19 7 -14 33 5 33 14 0 19 6 17 20 -2 11 -5 34
-5 51 -1 17 -8 38 -15 47 -7 8 -12 21 -11 29 1 7 -1 26 -6 41 -5 21 -12 27
-26 24 -10 -3 -25 4 -35 14 -12 13 -21 16 -29 9 -17 -14 -26 -1 -19 26 5 18 2
24 -10 24 -9 0 -16 5 -16 10 0 15 23 54 38 63 20 13 14 26 -15 33 -15 4 -36
16 -47 26 -19 17 -22 18 -33 2 -11 -15 -14 -14 -35 5 -16 15 -30 20 -47 16
-17 -4 -27 0 -38 15 -11 15 -22 20 -37 16 -21 -5 -21 -5 -1 10 11 8 25 12 32
10 7 -3 13 -1 13 4 0 15 -51 24 -59 11 -4 -6 -14 -9 -23 -6 -8 3 -21 -1 -28
-10 -17 -20 -26 -19 -50 5 -12 12 -20 15 -20 8 0 -7 -12 -18 -26 -25 -22 -10
-26 -9 -33 10 -10 25 -5 37 14 37 23 0 5 37 -36 77 -21 21 -39 44 -39 51 0 17
-40 31 -72 25 -18 -3 -25 -10 -21 -19 3 -8 -1 -14 -8 -14 -21 0 -40 15 -43 34
-2 17 -21 23 -21 6 0 -12 -36 -39 -54 -40 -8 0 -11 6 -7 16 8 21 -11 45 -30
37 -8 -3 -26 7 -41 21 -21 21 -35 26 -62 24 -44 -4 -45 -18 -2 -37 17 -8 31
-18 31 -23 0 -11 -18 -10 -25 2 -3 6 -21 10 -40 10 l-33 0 -6 88 c-20 301 -22
268 19 388 l38 109 -17 145 -17 145 41 35 c86 74 91 97 65 304 -13 106 -13
125 2 199 10 50 17 135 17 217 1 150 -6 175 -65 224 l-32 27 1 117 c2 112 22
514 42 824 6 89 6 190 1 255 -8 91 -7 110 6 120 13 10 13 26 5 105 -7 61 -7
97 0 105 10 12 8 44 -18 240 -14 102 -13 114 1 136 12 20 14 39 9 93 -4 38
-10 74 -15 79 -10 14 -18 87 -23 208 -2 55 -9 104 -14 109 -8 8 -8 17 -1 30 7
13 7 30 -1 54 -11 32 -10 37 14 59 33 31 33 41 -3 59 -24 13 -29 22 -34 71 -3
31 -18 88 -33 126 -19 52 -23 74 -15 82 19 19 12 51 -19 89 -39 48 -63 126
-55 181 6 37 2 48 -28 90 -34 48 -34 48 -20 90 19 53 11 138 -21 239 -29 91
-51 135 -75 148 -36 19 -55 111 -56 265 0 113 -5 154 -23 215 -56 193 -64 316
-31 487 28 148 45 202 94 307 23 50 51 113 62 139 11 27 24 48 29 48 4 0 13
-22 20 -48 6 -26 23 -82 39 -123 63 -169 77 -209 100 -285 31 -107 62 -279 70
-394 7 -116 84 -470 132 -611 43 -126 123 -334 188 -485 57 -134 105 -277 105
-312 0 -15 -17 -48 -38 -77 -49 -64 -113 -177 -153 -268 -23 -52 -33 -95 -40
-171 -19 -190 -22 -279 -9 -319 11 -37 13 -39 48 -36 31 3 40 9 54 39 10 19
23 81 28 138 12 114 20 141 50 171 35 35 48 25 70 -52 11 -40 28 -87 36 -105
30 -58 -8 -227 -86 -388 -57 -116 -59 -144 -18 -166 18 -10 26 -6 57 27 20 22
54 55 77 75 22 20 54 53 70 75 15 21 43 56 61 78 17 21 35 52 39 68 3 17 19
62 35 101 l29 71 -6 185 c-4 106 -2 281 5 406 10 191 9 227 -4 275 -8 30 -20
116 -25 190 -19 268 -30 419 -45 655 -35 553 -28 494 -95 697 -52 161 -63 208
-90 391 -33 230 -54 322 -101 442 -43 112 -46 130 -53 313 -12 301 -41 461
-117 637 -113 263 -312 419 -604 476 -59 11 -256 105 -312 149 -16 12 -43 40
-60 62 -32 39 -33 44 -33 130 0 76 4 97 24 137 41 78 56 118 56 150 0 19 6 34
15 37 9 4 15 11 14 18 -3 28 3 36 31 36 20 0 30 5 30 15 0 8 9 23 20 32 11 10
20 24 20 33 0 9 -9 33 -20 55 -25 48 -25 70 -2 93 12 12 17 35 19 75 1 38 9
73 26 106 15 30 21 54 16 63 -4 8 -15 47 -23 87 -13 63 -13 77 -2 100 12 22
12 30 0 51 -16 29 -18 76 -4 85 17 10 11 44 -9 54 -10 6 -28 37 -40 69 -49
129 -166 265 -275 316 -30 14 -58 31 -61 36 -4 6 -15 8 -26 5 -14 -5 -19 -2
-19 14 0 11 -4 23 -10 26 -6 4 -4 16 6 31 15 23 15 24 -1 18 -9 -4 -20 -2 -24
5 -6 9 -20 7 -54 -8 l-47 -20 6 24 c3 14 5 24 3 24 -2 -1 -17 -4 -34 -8z m-15
-40 c0 -9 -15 -15 -62 -26 -17 -4 39 28 60 34 1 1 2 -3 2 -8z m-39 -6786 c12
-60 29 -155 39 -210 10 -55 28 -152 40 -215 21 -110 33 -175 80 -425 11 -60
29 -157 40 -215 11 -58 27 -145 35 -195 8 -49 22 -119 29 -155 8 -36 26 -132
41 -215 14 -82 33 -183 42 -223 12 -55 15 -102 10 -197 -6 -123 -6 -124 -36
-152 -49 -44 -53 -93 -36 -406 8 -149 15 -291 15 -317 0 -44 4 -51 48 -93 26
-25 58 -54 71 -65 19 -15 26 -34 36 -103 24 -159 36 -214 55 -261 14 -32 20
-70 20 -120 1 -40 5 -93 11 -118 39 -172 47 -252 30 -279 -8 -12 -12 -12 -25
-2 -13 11 -20 11 -40 -2 -21 -14 -23 -22 -19 -57 6 -43 2 -46 -64 -40 -15 1
-22 -5 -25 -22 -2 -16 -12 -25 -38 -31 -45 -10 -89 -69 -70 -92 7 -8 17 -12
23 -8 6 4 8 0 4 -10 -4 -11 -1 -17 8 -17 8 0 15 -9 15 -19 0 -11 5 -23 10 -26
15 -10 12 -35 -5 -35 -8 0 -20 9 -27 20 -21 34 -41 21 -52 -32 -4 -20 -17 -19
-14 1 1 13 -3 26 -9 28 -8 3 -13 -5 -13 -21 0 -30 0 -29 -35 -16 -19 7 -24 7
-19 -1 4 -7 1 -10 -7 -7 -8 3 -13 11 -12 17 2 6 -1 11 -6 11 -5 0 -14 13 -21
29 -8 20 -17 27 -30 24 -13 -3 -18 0 -17 14 2 15 -6 18 -46 19 -26 0 -59 7
-73 14 -20 11 -31 11 -58 2 -18 -7 -44 -12 -59 -12 -17 0 -27 -5 -27 -15 0 -8
-7 -15 -16 -15 -11 0 -14 6 -9 20 6 18 2 20 -44 20 -27 0 -53 5 -57 11 -4 7
-20 9 -40 6 -21 -4 -45 1 -70 14 -33 17 -40 17 -54 4 -15 -13 -19 -13 -38 5
-20 19 -23 20 -46 5 -26 -18 -39 -41 -30 -56 13 -22 -14 -6 -39 22 -25 28 -32
31 -69 26 -23 -3 -50 -1 -60 4 -12 6 -25 6 -39 -1 -27 -15 -37 -4 -16 17 15
15 15 17 -6 28 -25 12 -29 44 -14 114 7 33 5 73 -9 152 -20 120 -20 119 51
319 32 88 59 209 72 320 5 45 26 80 47 80 12 1 52 34 74 62 10 12 14 79 18
255 2 131 9 272 15 313 6 41 19 174 29 295 10 121 28 261 39 310 33 151 58
265 80 370 12 55 31 141 41 190 11 50 29 133 40 185 11 52 29 136 40 185 11
50 29 133 40 185 11 52 29 136 39 185 29 134 71 329 91 425 10 47 26 119 34
160 9 41 24 107 33 145 20 81 17 87 54 -110z m559 -3995 c0 -5 -2 -10 -4 -10
-3 0 -8 5 -11 10 -3 6 -1 10 4 10 6 0 11 -4 11 -10z m-2420 -330 c0 -5 -2 -10
-4 -10 -3 0 -8 5 -11 10 -3 6 -1 10 4 10 6 0 11 -4 11 -10z m2170 -40 c0 -19
-5 -30 -14 -30 -19 0 -33 23 -18 28 7 2 12 10 12 18 0 8 5 14 10 14 6 0 10
-13 10 -30z m-2420 -173 c0 -14 -63 -77 -77 -77 -21 0 -15 18 12 36 14 9 25
24 25 33 0 10 8 17 20 17 11 0 20 -4 20 -9z m-40 -96 c0 -5 -7 -11 -15 -15 -9
-3 -15 0 -15 9 0 8 7 15 15 15 8 0 15 -4 15 -9z m-88 -213 c-13 -13 -26 8 -17
30 6 16 7 16 17 -1 7 -13 7 -22 0 -29z m23 -188 c-3 -5 -13 -10 -21 -10 -8 0
-14 5 -14 10 0 6 9 10 21 10 11 0 17 -4 14 -10z m30 -20 c3 -5 1 -10 -4 -10
-6 0 -11 5 -11 10 0 6 2 10 4 10 3 0 8 -4 11 -10z m104 -102 c-17 -17 -49 -30
-49 -20 0 4 9 15 20 25 11 9 20 25 21 34 0 15 2 14 11 -4 8 -17 7 -25 -3 -35z
m2881 12 c0 -5 -7 -10 -16 -10 -8 0 -12 5 -9 10 3 6 10 10 16 10 5 0 9 -4 9
-10z m-60 -59 c0 -6 -4 -13 -10 -16 -5 -3 -10 1 -10 9 0 9 5 16 10 16 6 0 10
-4 10 -9z m1292 -43 c-15 -15 -26 -4 -18 18 5 13 9 15 18 6 9 -9 9 -15 0 -24z
m-2132 -84 c0 -8 -4 -14 -10 -14 -5 0 -10 9 -10 21 0 11 5 17 10 14 6 -3 10
-13 10 -21z m-978 -6 c-6 -6 -15 -8 -19 -4 -4 4 -1 11 7 16 19 12 27 3 12 -12z
m48 12 c0 -5 -7 -7 -15 -4 -8 4 -15 8 -15 10 0 2 7 4 15 4 8 0 15 -4 15 -10z"/>
<path d="M3160 1270 c0 -5 5 -10 10 -10 6 0 10 5 10 10 0 6 -4 10 -10 10 -5 0
-10 -4 -10 -10z"/>
<path d="M3273 1233 c9 -2 23 -2 30 0 6 3 -1 5 -18 5 -16 0 -22 -2 -12 -5z"/>
<path d="M3725 1190 c3 -5 8 -10 11 -10 2 0 4 5 4 10 0 6 -5 10 -11 10 -5 0
-7 -4 -4 -10z"/>
<path d="M4253 1130 c-26 -20 -29 -30 -10 -30 12 0 42 38 35 45 -2 2 -13 -5
-25 -15z"/>
<path d="M5450 1380 c0 -5 5 -10 11 -10 5 0 7 5 4 10 -3 6 -8 10 -11 10 -2 0
-4 -4 -4 -10z"/>
<path d="M6090 980 c0 -5 5 -10 10 -10 6 0 10 5 10 10 0 6 -4 10 -10 10 -5 0
-10 -4 -10 -10z"/>
<path d="M1670 580 c0 -5 5 -10 10 -10 6 0 10 5 10 10 0 6 -4 10 -10 10 -5 0
-10 -4 -10 -10z"/>
<path d="M1800 219 c0 -5 5 -7 10 -4 6 3 10 8 10 11 0 2 -4 4 -10 4 -5 0 -10
-5 -10 -11z"/>
<path d="M5647 86 c10 -13 22 -22 26 -19 9 6 -21 43 -35 43 -5 0 -1 -11 9 -24z"/>
<path d="M3592 83 c-6 -2 -10 -9 -6 -14 8 -14 21 -11 28 6 6 15 1 17 -22 8z"/>
<path d="M2580 74 c0 -2 9 -13 21 -25 14 -14 24 -18 31 -11 6 6 -1 15 -21 25
-17 9 -31 14 -31 11z"/>
<path d="M4370 30 c0 -5 7 -10 15 -10 8 0 15 5 15 10 0 6 -7 10 -15 10 -8 0
-15 -4 -15 -10z"/>
</g>
</svg>
