<?xml version="1.0" standalone="no"?>
<!DOCTYPE svg PUBLIC "-//W3C//DTD SVG 20010904//EN"
 "http://www.w3.org/TR/2001/REC-SVG-20010904/DTD/svg10.dtd">
<svg version="1.0" xmlns="http://www.w3.org/2000/svg"
 width="810.000000pt" height="1280.000000pt" viewBox="0 0 810.000000 1280.000000"
 preserveAspectRatio="xMidYMid meet">
<metadata>
Created by potrace 1.15, written by Peter Selinger 2001-2017
</metadata>
<g transform="translate(0.000000,1280.000000) scale(0.100000,-0.100000)"
fill="#000000" stroke="none">
<path d="M1628 12758 c-48 -64 -97 -166 -171 -358 -73 -188 -76 -201 -96 -355
-59 -468 -52 -841 24 -1180 35 -157 73 -263 150 -420 35 -71 81 -171 103 -221
94 -214 164 -334 238 -414 l46 -49 -76 -105 c-109 -150 -221 -339 -346 -586
-268 -532 -433 -959 -575 -1490 -32 -118 -87 -321 -123 -450 -142 -511 -188
-773 -199 -1125 -11 -367 50 -760 163 -1047 79 -202 252 -507 362 -638 170
-203 437 -408 762 -585 l139 -76 -51 -112 c-145 -322 -181 -438 -237 -757 -74
-424 -113 -700 -148 -1050 -19 -193 -25 -819 -10 -1032 l8 -116 -58 -7 c-274
-29 -574 -82 -973 -174 -294 -67 -461 -125 -539 -188 -20 -16 -22 -23 -13 -40
36 -66 135 -108 294 -123 62 -7 171 -21 243 -32 169 -26 380 -34 527 -19 152
15 330 46 399 70 188 64 350 195 421 339 l33 67 2 210 c3 256 28 812 49 1070
49 626 138 1119 276 1543 34 102 49 134 81 169 l39 42 46 -18 c81 -32 293 -90
385 -106 139 -23 540 -38 897 -32 402 7 603 29 870 97 146 37 364 112 441 151
60 30 79 31 79 4 0 -26 48 -123 124 -253 119 -203 346 -734 465 -1088 54 -161
118 -397 151 -559 65 -316 85 -537 77 -854 l-6 -234 27 -46 c165 -281 662
-386 1192 -251 239 61 678 235 797 316 133 89 197 179 179 249 -4 14 -21 42
-39 61 -28 31 -43 37 -127 54 -268 54 -612 42 -1014 -36 -193 -38 -474 -102
-495 -114 -11 -5 -43 -10 -71 -10 -45 0 -56 4 -80 30 -39 41 -49 92 -60 280
-10 184 -27 322 -70 580 -80 477 -108 590 -202 825 -95 235 -307 635 -450 850
-33 50 -81 127 -105 173 -25 46 -60 95 -78 109 l-33 26 106 75 c349 243 709
599 953 943 40 57 112 151 158 209 156 193 215 294 517 870 176 337 187 362
227 475 85 245 108 415 114 839 11 754 -62 1250 -251 1690 -26 60 -63 161 -82
225 -38 124 -106 403 -100 409 2 2 13 -2 24 -9 17 -11 28 -6 88 37 186 132
399 383 503 592 53 106 162 384 205 522 116 378 166 753 137 1055 -13 148
-101 628 -136 750 -39 135 -112 283 -148 302 -27 13 -31 13 -46 -1 -13 -14
-16 -47 -17 -219 0 -182 -2 -207 -21 -252 -12 -27 -29 -86 -38 -130 -39 -190
-109 -396 -203 -600 -159 -347 -308 -620 -426 -779 -65 -88 -204 -246 -216
-246 -5 0 -14 17 -20 38 -24 73 -83 173 -142 236 -85 94 -181 144 -348 182
-129 30 -1225 44 -1805 24 -631 -22 -973 -90 -1334 -267 l-153 -75 -43 16
c-135 52 -301 189 -514 426 -224 249 -281 317 -361 437 -110 164 -174 319
-199 483 -7 41 -18 97 -26 124 -19 64 -19 228 0 381 8 66 15 145 15 175 0 60
-16 130 -29 130 -5 0 -20 -15 -33 -32z m5992 -182 c0 -2 -7 -7 -16 -10 -8 -3
-12 -2 -9 4 6 10 25 14 25 6z m207 -1048 c-2 -13 -4 -3 -4 22 0 25 2 35 4 23
2 -13 2 -33 0 -45z m-2894 -605 c-29 -2 -78 -2 -110 0 -32 2 -8 3 52 3 61 0
87 -1 58 -3z m2081 -109 c3 -8 2 -12 -4 -9 -6 3 -10 10 -10 16 0 14 7 11 14
-7z m-30 -43 c4 -5 -3 -7 -14 -4 -23 6 -26 13 -6 13 8 0 17 -4 20 -9z m-3915
-85 c-10 -9 -149 -76 -149 -71 0 6 131 74 144 75 5 0 7 -2 5 -4z m-329 -114
c0 -4 -8 -12 -19 -19 -17 -11 -18 -10 -7 12 9 21 26 25 26 7z m-1120 -56 c0
-2 -8 -10 -17 -17 -16 -13 -17 -12 -4 4 13 16 21 21 21 13z m-26 -52 c3 -8 2
-12 -4 -9 -6 3 -10 10 -10 16 0 14 7 11 14 -7z m4261 -103 c22 -10 86 -52 141
-94 l101 -75 7 -54 c17 -133 -38 -300 -132 -400 -57 -61 -113 -90 -217 -113
-221 -48 -394 35 -421 203 -10 63 14 174 56 260 63 131 189 246 309 282 46 14
115 10 156 -9z m-1753 -5 c103 -24 216 -109 244 -183 36 -92 -4 -239 -88 -322
-23 -24 -81 -61 -137 -89 l-96 -47 -110 0 c-106 0 -112 1 -173 34 -75 41 -135
105 -156 168 -21 61 -21 62 16 150 68 166 248 295 418 302 14 0 51 -5 82 -13z
m-1371 -304 c-5 -9 -30 -44 -56 -77 -26 -33 -55 -77 -66 -97 -59 -115 30 -228
170 -215 72 6 131 36 186 93 44 44 75 114 75 165 0 38 -48 83 -113 107 -28 11
-59 22 -67 25 -8 3 26 6 75 6 97 1 127 -9 157 -50 44 -58 29 -172 -34 -264
-78 -115 -314 -206 -453 -175 -95 21 -158 90 -157 173 1 90 116 262 204 306
55 27 93 29 79 3z m147 -154 c2 -12 -6 -19 -33 -24 -45 -8 -54 0 -30 26 22 24
58 23 63 -2z m529 -488 c97 -42 158 -140 133 -214 -5 -18 -29 -51 -53 -73
-153 -148 -424 -142 -499 11 -26 54 -20 95 22 159 36 53 120 121 170 136 55
16 168 7 227 -19z m1159 -206 c69 -19 114 -52 144 -104 22 -39 25 -57 24 -135
-1 -107 -20 -160 -86 -231 -65 -70 -124 -95 -274 -114 -176 -22 -309 33 -370
153 -22 43 -23 52 -13 90 44 165 223 328 390 356 61 9 111 6 185 -15z m1468
-529 c38 -5 57 -14 78 -37 19 -21 58 -41 116 -62 76 -27 89 -36 105 -66 30
-58 19 -162 -26 -254 -90 -180 -241 -264 -462 -254 -202 9 -316 117 -317 302
-1 120 56 224 161 296 79 55 208 94 276 84 11 -2 42 -6 69 -9z m-3087 -14 c71
-33 193 -131 215 -174 28 -57 34 -134 14 -193 -53 -159 -217 -279 -394 -292
-82 -5 -134 10 -201 58 -43 32 -90 103 -101 153 -17 81 57 253 150 348 104
107 221 143 317 100z m4271 -376 c0 -16 -2 -15 -8 5 -4 14 -8 34 -8 45 0 16 2
15 8 -5 4 -14 8 -34 8 -45z m-5188 -1256 c-19 -12 -43 -28 -52 -37 -10 -8 -18
-12 -18 -9 0 10 81 67 94 67 6 0 -5 -10 -24 -21z m4106 -69 c23 -11 50 -31 60
-43 19 -22 19 -22 -1 -6 -35 29 -83 49 -137 58 l-53 9 44 1 c27 1 62 -7 87
-19z m-3546 -65 c58 -30 101 -54 95 -54 -5 0 -57 24 -115 54 -58 30 -100 54
-95 54 6 0 57 -24 115 -54z m2939 -102 c-18 -21 -37 -42 -41 -47 -5 -6 -8 2
-8 17 0 20 8 31 38 46 50 27 51 26 11 -16z m-2522 -90 l191 -78 -30 -34 c-47
-53 -94 -163 -128 -296 -50 -195 -61 -228 -70 -219 -22 24 -105 326 -158 577
-26 120 -27 138 -13 133 9 -2 102 -40 208 -83z m2373 -33 c-16 -47 -50 -162
-74 -256 -44 -166 -82 -284 -92 -284 -14 0 -169 374 -175 420 -6 53 22 77 129
110 35 11 76 26 90 35 26 14 145 62 149 60 1 0 -11 -39 -27 -85z m917 33 c-3
-10 -5 -4 -5 12 0 17 2 24 5 18 2 -7 2 -21 0 -30z m10 -70 c-3 -10 -5 -2 -5
17 0 19 2 27 5 18 2 -10 2 -26 0 -35z m-1321 -105 c15 -29 24 -51 22 -48 -3 3
-24 26 -48 53 -37 41 -40 47 -21 47 15 0 28 -14 47 -52z m-1845 -109 c-5 -13
-10 -19 -10 -12 -1 15 10 45 15 40 3 -2 0 -15 -5 -28z m4038 -103 c-28 -77
-33 -67 -6 12 12 34 23 58 25 53 1 -4 -7 -34 -19 -65z m-1281 -323 c11 -27 27
-73 37 -103 10 -30 24 -64 31 -75 35 -50 8 -105 -63 -129 -45 -15 -123 -22
-123 -10 0 3 11 58 24 122 13 64 27 142 31 172 4 30 9 58 12 63 11 19 32 3 51
-40z m-4095 8 c17 -6 17 -8 4 -20 -13 -10 -17 -9 -27 8 -11 22 -7 24 23 12z
m140 -42 c47 -36 121 -219 98 -242 -13 -13 -44 7 -128 81 -70 61 -74 73 -42
139 23 48 35 52 72 22z m2037 -162 c52 -77 105 -200 94 -218 -13 -22 -720 -16
-743 6 -5 6 63 222 97 308 18 45 53 58 82 32 11 -10 20 -23 20 -28 0 -6 10
-21 21 -33 12 -13 34 -67 50 -120 31 -106 51 -136 87 -132 21 3 31 22 90 182
l67 178 38 -43 c21 -24 65 -83 97 -132z m1598 121 c40 -54 132 -220 132 -238
0 -23 -50 -38 -147 -45 l-102 -7 -7 27 c-3 14 1 76 11 138 9 61 19 127 21 145
4 26 9 32 29 32 18 0 35 -14 63 -52z m-1218 -29 c55 -70 89 -130 117 -206 45
-124 34 -132 -172 -113 -163 15 -158 11 -129 97 24 74 122 273 133 273 6 0 29
-23 51 -51z m384 -8 c13 -20 35 -69 49 -108 35 -95 74 -173 92 -180 43 -16 -1
-23 -146 -23 -136 0 -160 2 -156 14 3 8 22 66 42 128 47 149 75 219 87 212 5
-3 19 -22 32 -43z m-2140 -77 c9 -37 24 -81 33 -97 26 -52 32 -84 19 -103 -11
-15 -25 -16 -102 -11 -144 10 -138 4 -97 100 19 45 38 91 43 102 5 11 18 43
30 70 l21 50 18 -22 c10 -12 26 -52 35 -89z m-382 69 c25 -30 98 -173 98 -194
0 -10 -11 -26 -25 -35 -29 -19 -72 -12 -110 17 -24 19 -25 24 -19 92 10 141
20 161 56 120z m3505 -36 c19 1 21 -2 12 -19 -13 -25 -37 -20 -58 12 -15 23
-15 24 4 15 11 -4 30 -8 42 -8z m368 -47 c-10 -11 -27 -20 -39 -20 -16 0 -13
4 14 19 45 25 47 25 25 1z m-2407 -36 c2 -1 -1 -5 -7 -8 -5 -4 -15 4 -22 16
-12 22 -11 22 7 8 10 -8 20 -15 22 -16z m1709 -111 c-3 -10 -5 -4 -5 12 0 17
2 24 5 18 2 -7 2 -21 0 -30z m-2658 -20 c12 -18 18 -33 12 -33 -10 0 -41 50
-41 66 0 8 0 9 29 -33z m531 20 c0 -16 -16 -31 -40 -37 -24 -7 -24 -7 5 18 34
28 35 29 35 19z m1733 -48 c18 -3 52 -6 77 -8 25 -2 2 -4 -51 -5 -84 -2 -97 0
-102 16 -2 9 -8 26 -13 37 -7 17 -3 16 24 -7 18 -15 47 -30 65 -33z m1646
-302 c-60 -98 -109 -171 -124 -183 -9 -8 18 39 61 103 42 64 79 117 81 117 3
0 -6 -17 -18 -37z m-599 -796 c0 -2 -10 -12 -22 -23 l-23 -19 19 23 c18 21 26
27 26 19z m-121 -137 c-45 -50 -116 -120 -158 -157 -48 -42 -18 -8 79 90 85
86 156 157 158 157 2 0 -33 -41 -79 -90z m-4634 -120 c92 -96 96 -102 26 -35
-45 44 -101 103 -124 130 -48 60 -43 54 98 -95z m4225 -244 c0 -3 -15 -14 -32
-26 l-33 -22 30 26 c31 27 35 29 35 22z m-70 -51 c0 -10 -163 -111 -262 -165
-54 -28 -98 -50 -98 -47 0 3 42 28 94 56 52 27 132 75 178 105 92 60 88 58 88
51z m-274 -274 c-9 -10 -14 -25 -10 -35 9 -24 -1 -19 -20 9 -16 24 -16 26 6
35 36 14 43 12 24 -9z m75 -8 l24 -28 -30 25 c-16 14 -32 26 -34 28 -2 1 0 2
6 2 5 0 20 -12 34 -27z m-3128 -53 c7 -1 -1 -7 -18 -14 -35 -15 -38 -15 -29 8
4 10 13 15 21 12 8 -3 20 -6 26 -6z m215 -85 c1 -1 -9 -10 -23 -19 -25 -16
-25 -16 -25 14 0 29 2 30 23 19 12 -6 23 -13 25 -14z m977 -95 l110 -7 -95 0
c-52 0 -138 3 -190 7 l-95 7 80 0 c44 0 130 -3 190 -7z m542 4 c-3 -3 -12 -4
-19 -1 -8 3 -5 6 6 6 11 1 17 -2 13 -5z m2078 -1044 c14 -40 25 -78 24 -84 0
-10 -35 82 -54 146 -17 55 7 5 30 -62z m202 -1217 c-2 -16 -4 -5 -4 22 0 28 2
40 4 28 2 -13 2 -35 0 -50z m10 -120 c-3 -10 -5 -2 -5 17 0 19 2 27 5 18 2
-10 2 -26 0 -35z m1452 -99 c2 -2 -28 -4 -69 -4 -40 0 -149 -7 -242 -16 -94
-8 -173 -13 -176 -10 -3 4 3 6 14 7 10 0 73 8 139 18 83 12 153 16 225 13 58
-2 107 -6 109 -8z m286 6 c17 -5 -26 -6 -95 -3 -69 3 -127 7 -129 9 -8 8 195
1 224 -6z m155 -70 c0 -4 -7 -15 -16 -26 -10 -12 -14 -14 -11 -4 2 8 0 25 -4
37 -8 21 -7 22 11 11 11 -7 20 -15 20 -18z m-120 -151 c-38 -33 -121 -82 -127
-75 -2 2 20 17 49 34 29 16 64 39 78 50 14 12 27 21 30 21 3 0 -11 -13 -30
-30z m-6064 -91 c-4 -57 -13 -128 -21 -158 -11 -43 -14 -46 -10 -17 2 22 10
93 16 158 7 65 15 119 17 119 3 0 2 -46 -2 -102z m4413 99 c-2 -1 -12 -9 -22
-16 -15 -12 -17 -12 -11 3 3 9 13 16 22 16 8 0 13 -1 11 -3z m-266 -152 l6
-30 -14 30 c-16 34 -21 72 -6 45 5 -8 11 -28 14 -45z m-5803 -392 c0 -9 8 -25
18 -36 16 -19 16 -19 -8 -12 -14 4 -38 14 -55 23 l-30 15 30 13 c40 17 45 17
45 -3z m1200 -62 c-63 -37 -378 -68 -565 -55 l-130 8 240 8 c163 5 272 14 340
26 123 23 136 25 115 13z"/>
<path d="M5625 10176 c-162 -76 -195 -262 -62 -345 95 -58 232 -22 304 81 24
35 28 51 28 108 0 54 -5 73 -25 103 -51 75 -152 97 -245 53z m139 -95 c8 -13
-20 -33 -40 -29 -17 3 -17 4 0 21 19 19 32 22 40 8z"/>
<path d="M3873 10213 c-52 -18 -135 -91 -157 -137 -57 -121 40 -257 186 -258
73 -1 131 19 179 60 78 67 89 140 37 243 -27 52 -41 68 -78 87 -51 25 -106 27
-167 5z m107 -143 c13 -9 13 -11 0 -20 -22 -14 -70 -12 -70 3 0 8 3 17 7 20 9
10 46 8 63 -3z"/>
<path d="M3209 9364 c-56 -17 -115 -77 -124 -127 -9 -47 16 -102 55 -122 49
-25 132 -21 195 10 42 20 58 35 74 69 25 50 26 65 6 112 -10 25 -26 40 -57 54
-50 23 -86 24 -149 4z m111 -94 c0 -11 -48 -25 -56 -17 -4 3 -3 10 1 16 8 14
55 14 55 1z"/>
<path d="M4330 9080 c-88 -41 -180 -158 -180 -231 0 -36 39 -91 80 -112 26
-14 52 -17 106 -15 135 6 249 94 249 191 0 54 -38 131 -77 159 -44 31 -120 34
-178 8z m110 -131 c0 -10 -42 -30 -49 -23 -2 2 4 13 14 24 17 19 35 19 35 -1z"/>
<path d="M5896 8554 c-70 -22 -155 -109 -185 -188 -25 -68 -22 -94 18 -157 41
-65 114 -101 212 -107 116 -7 180 22 219 98 48 94 35 174 -43 269 -74 92 -131
113 -221 85z m143 -178 c14 -16 8 -21 -36 -30 -33 -8 -47 2 -37 28 8 20 57 21
73 2z"/>
<path d="M2823 8519 c-115 -22 -232 -136 -233 -227 0 -54 58 -120 126 -142 71
-24 181 7 247 69 57 52 91 155 67 202 -41 80 -116 115 -207 98z m65 -142 c5
-25 -16 -47 -44 -47 -26 0 -31 18 -13 51 13 25 52 22 57 -4z"/>
</g>
</svg>
