<?xml version="1.0" standalone="no"?>
<!DOCTYPE svg PUBLIC "-//W3C//DTD SVG 20010904//EN"
 "http://www.w3.org/TR/2001/REC-SVG-20010904/DTD/svg10.dtd">
<svg version="1.0" xmlns="http://www.w3.org/2000/svg"
 width="640.000000pt" height="1280.000000pt" viewBox="0 0 640.000000 1280.000000"
 preserveAspectRatio="xMidYMid meet">
<metadata>
Created by potrace 1.15, written by Peter Selinger 2001-2017
</metadata>
<g transform="translate(0.000000,1280.000000) scale(0.100000,-0.100000)"
fill="#000000" stroke="none">
<path d="M3122 12790 c-67 -12 -104 -28 -212 -90 -206 -118 -241 -183 -280
-520 -12 -101 -12 -110 14 -221 15 -66 26 -147 26 -187 0 -65 2 -72 27 -92 14
-11 45 -25 68 -31 l42 -11 7 -60 c3 -34 6 -75 6 -93 0 -22 9 -42 30 -63 27
-28 30 -37 27 -88 -2 -50 1 -58 26 -80 25 -22 37 -24 120 -24 106 0 122 -6
109 -41 -5 -13 -10 -73 -10 -134 0 -60 -5 -122 -10 -136 -6 -15 -8 -36 -6 -47
4 -13 -4 -27 -24 -43 -16 -13 -35 -34 -41 -46 -6 -13 -19 -23 -29 -24 -9 0 -3
-5 13 -10 17 -5 50 -6 75 -3 64 8 84 -16 71 -88 -2 -14 -21 -8 -21 6 0 10 -23
15 -86 20 -71 6 -90 4 -111 -9 -29 -19 -24 -32 5 -16 31 16 82 14 82 -4 0 -21
-28 -33 -100 -40 -50 -5 -61 -4 -47 5 30 19 18 30 -18 14 -19 -7 -37 -14 -41
-14 -15 0 104 124 131 136 l30 13 -30 1 c-21 0 -57 -18 -118 -61 -94 -65 -126
-99 -104 -110 6 -4 75 -9 152 -12 77 -3 150 -9 163 -14 20 -7 21 -11 9 -27
-12 -17 -19 -17 -152 -1 -77 9 -194 28 -260 43 -128 28 -264 34 -302 13 -22
-11 -43 2 -28 17 15 15 214 13 300 -3 48 -9 89 -14 92 -11 3 3 -21 13 -53 23
-72 21 -290 24 -374 4 -68 -16 -168 -68 -181 -93 -21 -40 -4 -51 65 -43 36 3
66 2 70 -3 3 -5 -8 -19 -25 -31 -27 -20 -34 -21 -86 -12 -40 8 -68 8 -97 0
-59 -16 -132 -55 -150 -81 -23 -32 -21 -164 6 -366 30 -230 29 -503 -2 -647
-19 -85 -23 -150 -30 -425 -6 -214 -14 -351 -23 -400 -19 -96 -60 -204 -95
-249 -37 -50 -52 -169 -37 -297 6 -48 4 -67 -9 -93 -10 -18 -21 -65 -25 -104
-5 -40 -13 -83 -19 -97 -19 -44 -100 -362 -117 -455 -8 -49 -21 -158 -27 -242
-7 -83 -16 -150 -20 -147 -4 3 -8 -6 -8 -20 0 -14 5 -26 10 -26 6 0 10 -20 10
-45 0 -25 -4 -45 -10 -45 -5 0 -10 -18 -10 -39 0 -24 -14 -68 -35 -113 -20
-41 -40 -101 -45 -133 -14 -85 -29 -125 -65 -170 -18 -22 -36 -50 -39 -62 -4
-11 -13 -24 -21 -26 -8 -4 -16 -28 -20 -60 -9 -68 -36 -117 -62 -111 -15 4
-21 -6 -36 -57 -15 -50 -28 -71 -71 -113 -69 -66 -105 -154 -86 -210 14 -44
42 -48 67 -8 9 15 33 45 54 67 20 22 42 56 48 75 7 23 32 53 71 85 33 28 60
58 60 67 0 24 19 33 36 16 12 -12 10 -25 -13 -93 l-26 -80 11 -190 c7 -104 13
-246 13 -315 1 -160 13 -211 54 -222 19 -5 32 -3 37 5 5 7 6 89 3 182 -7 203
-13 264 -25 244 -7 -10 -12 -11 -21 -2 -8 8 -9 29 -4 70 5 32 10 51 11 43 18
-101 17 -100 26 -25 18 144 19 162 19 235 -1 84 6 102 34 94 19 -5 20 -14 18
-202 -1 -187 4 -299 28 -527 15 -141 16 -145 50 -145 17 0 32 7 38 18 9 17 7
102 -4 272 -9 136 -16 175 -25 159 -14 -22 -40 51 -40 112 0 74 24 60 30 -18
8 -97 17 -82 18 29 1 57 4 115 8 131 5 24 2 28 -25 33 -30 6 -31 8 -31 65 0
52 2 59 19 59 16 0 21 -11 29 -52 l10 -53 1 43 c1 38 4 42 25 42 22 0 24 -3
19 -33 -3 -18 1 -73 8 -123 8 -49 15 -138 16 -199 9 -320 21 -394 63 -410 19
-8 42 25 36 50 -3 11 -6 49 -6 84 0 54 -2 62 -15 51 -8 -6 -18 -9 -24 -6 -12
8 -9 100 4 104 10 2 11 -2 14 -35 1 -11 4 -13 10 -7 5 5 9 54 10 109 0 55 0
136 0 180 0 44 -3 75 -7 68 -8 -13 -62 -6 -62 8 0 8 29 14 52 10 9 -1 22 59
14 66 -3 4 -6 -1 -6 -11 0 -12 -7 -16 -27 -13 -26 3 -28 7 -31 61 -3 63 11 73
35 25 l13 -24 0 26 c0 15 7 30 16 33 33 13 29 22 54 -139 5 -33 14 -94 21
-135 6 -41 11 -145 11 -230 0 -85 4 -163 9 -172 22 -41 64 -3 56 50 l-3 27
-11 -24 c-9 -24 -10 -23 -16 14 -7 46 -3 53 23 38 17 -11 19 -7 25 47 7 63 -6
113 -20 71 -3 -12 -4 -35 0 -51 5 -23 3 -30 -8 -30 -11 0 -16 18 -19 73 -5 80
2 98 32 79 28 -17 29 -16 21 16 -5 18 -14 26 -24 24 -20 -3 -31 22 -45 103 -6
33 -12 68 -14 79 -1 10 5 23 15 30 15 9 21 7 33 -8 24 -34 18 78 -8 144 -27
68 -27 68 -38 50 -11 -18 -17 -5 -23 63 -4 36 -11 52 -31 68 -37 29 -32 65 8
62 44 -3 62 -26 48 -58 -7 -16 -9 -43 -5 -68 l6 -42 13 65 c12 55 12 67 -1 87
-18 27 -19 94 -3 140 10 29 9 39 -11 80 -19 40 -24 45 -32 30 -6 -9 -16 -17
-24 -17 -8 0 -21 -9 -29 -21 -21 -31 -36 -14 -36 42 0 54 12 61 62 35 l26 -14
-15 36 c-24 57 -27 165 -9 291 10 62 15 115 13 117 -2 2 -14 -51 -26 -117 -17
-88 -22 -136 -17 -179 6 -52 5 -60 -13 -69 -30 -16 -38 -14 -49 17 -7 22 -4
49 13 116 13 48 28 93 34 99 6 6 11 34 11 62 0 28 5 56 10 61 6 6 11 28 11 50
0 73 11 132 26 151 13 16 14 8 10 -82 l-5 -100 18 100 c10 55 22 141 25 190 4
50 25 180 46 289 34 172 45 209 78 270 22 39 46 98 54 132 17 66 88 215 120
251 28 32 19 127 -27 273 -50 160 -64 316 -42 461 25 158 44 458 37 569 -2 29
-4 32 -11 15 -5 -11 -9 -82 -9 -157 -1 -75 -8 -188 -16 -250 -45 -346 -41
-453 26 -671 45 -146 47 -180 9 -185 -14 -2 -30 -8 -36 -13 -18 -14 -104 71
-104 103 0 15 -5 28 -12 30 -9 3 -9 15 1 49 8 31 9 57 3 86 -7 32 -6 47 4 60
15 20 20 168 5 159 -14 -9 -21 20 -21 80 0 40 4 54 14 54 8 0 17 -10 19 -22 2
-13 5 -4 6 20 0 27 -3 41 -9 37 -6 -3 -10 4 -10 17 0 18 2 20 10 8 8 -12 10
-10 10 10 0 14 -4 31 -9 39 -6 10 -5 22 5 35 22 32 15 104 -9 89 -7 -4 -8 9
-4 42 4 26 7 65 7 86 0 28 4 37 14 33 8 -3 16 4 20 18 8 33 7 40 -4 33 -6 -3
-10 3 -10 15 0 12 4 19 9 15 13 -8 25 97 17 158 -3 30 1 101 11 166 13 95 14
122 4 163 -8 31 -10 53 -4 61 6 7 7 48 2 103 -4 49 -6 128 -3 175 2 46 6 131
9 189 6 105 6 105 -14 83 -10 -13 -22 -23 -25 -23 -13 0 -5 36 14 68 24 39 24
42 5 42 -25 0 -55 -38 -55 -70 0 -16 -4 -30 -10 -30 -14 0 -12 37 4 68 47 89
185 134 241 77 14 -13 25 -34 25 -47 0 -19 -2 -20 -10 -8 -11 17 -13 1 -4 -25
5 -13 8 -14 15 -3 6 8 9 -2 9 -29 0 -23 -4 -45 -10 -48 -5 -3 -10 -16 -10 -28
l-1 -22 -17 21 c-17 21 -17 21 -33 -20 l-16 -41 -22 35 -22 35 3 -47 c1 -26
-1 -50 -5 -54 -18 -18 -5 -25 15 -8 21 19 21 19 14 -1 -4 -11 -10 -35 -13 -52
-3 -18 -11 -33 -18 -33 -7 0 -19 -7 -26 -16 -12 -15 -11 -16 10 -9 22 7 24 5
18 -23 -4 -17 -7 -122 -7 -234 -1 -329 -1 -345 10 -328 6 9 10 114 10 245 1
235 10 351 31 399 7 14 27 36 46 47 29 18 35 19 54 6 32 -23 96 -112 109 -152
10 -30 9 -43 -5 -78 -10 -23 -21 -73 -26 -112 -4 -38 -18 -92 -30 -120 -17
-38 -23 -72 -25 -145 -1 -52 -7 -111 -13 -130 -6 -19 -11 -72 -11 -117 0 -46
-5 -103 -12 -128 -10 -36 -9 -58 1 -112 8 -38 13 -95 12 -129 -1 -42 4 -73 18
-105 11 -24 21 -66 21 -92 0 -152 161 -248 290 -173 25 14 49 26 53 26 11 0
-41 -68 -80 -106 -23 -22 -33 -41 -33 -61 0 -17 -7 -49 -15 -72 -12 -34 -12
-41 0 -41 8 0 22 27 35 67 38 119 68 154 380 443 62 58 125 113 139 122 36 24
61 23 61 -3 0 -35 -18 -57 -81 -99 -33 -22 -90 -66 -127 -97 -78 -68 -213
-206 -206 -212 2 -3 13 5 24 17 20 21 50 30 50 15 -1 -15 -38 -53 -52 -53 -8
0 -24 -14 -37 -31 -13 -17 -29 -28 -37 -25 -10 4 -13 -7 -12 -50 1 -39 -3 -59
-15 -72 -16 -15 -17 -14 -17 13 0 23 -3 27 -10 15 -5 -8 -10 -25 -10 -38 0
-18 5 -23 21 -20 15 2 32 22 54 64 18 34 57 86 86 115 30 30 79 81 110 114 86
91 213 194 240 195 11 0 19 -11 23 -31 9 -47 8 -51 -15 -39 -11 7 -32 9 -45 6
-47 -12 -21 -86 30 -86 17 0 25 -9 34 -37 13 -41 1 -66 -20 -45 -7 7 -29 12
-50 12 -32 0 -39 -4 -44 -25 -3 -14 -1 -31 4 -38 8 -9 6 -16 -9 -25 -25 -16
-25 -56 1 -82 21 -21 37 -24 67 -13 15 6 13 8 -12 13 -32 6 -41 25 -30 67 5
20 9 23 18 14 9 -9 9 -16 0 -30 -10 -16 -8 -17 14 -13 20 4 23 9 19 28 -4 13
-2 24 2 24 21 0 43 -41 49 -89 l6 -51 -45 0 c-57 0 -81 -17 -76 -55 3 -29 5
-30 49 -27 57 3 71 -11 67 -70 -3 -43 -3 -43 -41 -43 -44 0 -79 -32 -70 -64 4
-16 15 -21 52 -23 45 -3 46 -4 48 -38 0 -19 4 -45 8 -57 9 -29 -8 -30 -54 -2
-41 25 -61 19 -61 -19 0 -39 32 -78 75 -92 27 -9 35 -17 35 -36 0 -33 -10 -30
-61 14 -24 20 -70 58 -101 82 -32 25 -76 60 -99 77 -48 39 -137 67 -180 58
-17 -4 -29 -8 -27 -10 2 -2 32 -8 67 -14 74 -12 94 -26 88 -59 -3 -16 3 -31
20 -49 23 -22 25 -30 19 -76 -9 -61 -10 -64 -33 -46 -10 7 -2 -4 16 -24 32
-34 33 -53 1 -24 -8 7 -7 2 3 -15 26 -43 20 -43 -24 -3 -22 20 -43 34 -47 31
-3 -3 12 -22 34 -41 22 -19 33 -34 25 -35 -8 0 -25 10 -38 22 -13 12 -23 17
-23 11 0 -6 11 -18 25 -27 13 -9 29 -33 34 -53 14 -49 14 -156 1 -148 -6 4
-10 -6 -10 -24 0 -16 -4 -32 -9 -35 -5 -4 -5 -22 -1 -43 6 -26 5 -40 -2 -44
-9 -6 -8 -12 1 -23 8 -9 11 -26 7 -41 -4 -14 -2 -25 3 -25 15 0 33 -38 25 -51
-4 -8 -9 -7 -15 2 -4 7 -10 11 -13 8 -14 -14 66 -85 152 -136 109 -64 160 -78
316 -88 86 -6 120 -3 223 19 l122 25 57 55 c31 31 61 56 66 56 5 0 6 10 3 21
-6 17 4 32 52 78 33 31 65 66 72 78 19 37 14 117 -10 147 -23 29 -73 59 -83
49 -13 -14 -5 20 15 59 19 36 19 40 4 34 -15 -6 -17 -2 -12 31 4 23 0 61 -10
96 l-16 57 27 40 c14 22 26 48 26 57 0 25 16 47 27 40 6 -4 15 5 21 18 6 14
30 33 52 42 22 10 40 24 40 31 0 11 16 13 74 10 41 -2 78 -7 82 -10 4 -4 -4
-17 -17 -28 -24 -20 -24 -20 -3 -26 l21 -6 -23 -49 c-29 -59 -29 -63 -4 -49
17 9 20 8 20 -9 0 -15 -5 -18 -21 -14 -18 5 -20 3 -15 -16 3 -11 9 -30 12 -41
3 -12 14 -20 27 -21 17 0 13 -5 -18 -20 l-40 -19 40 5 c42 5 33 -3 -30 -25
-21 -8 -26 -13 -16 -19 9 -6 10 -11 2 -15 -16 -10 -14 -26 3 -20 15 6 43 -77
31 -95 -10 -18 -25 -12 -18 7 6 15 4 15 -15 -2 -25 -22 -42 -15 -22 9 17 20 7
19 -40 -5 -45 -23 -52 -35 -15 -26 14 4 25 2 25 -3 0 -5 -9 -11 -20 -14 -12
-3 -20 -14 -20 -26 0 -24 10 -27 28 -9 7 7 12 8 12 2 0 -6 -11 -17 -25 -24
-18 -9 -23 -19 -19 -34 3 -12 6 -39 8 -61 2 -22 4 -42 5 -44 1 -2 8 2 16 9 24
20 30 3 12 -35 -20 -41 -21 -49 -7 -40 5 3 19 1 31 -5 16 -9 24 -9 33 1 8 9 7
10 -8 5 -19 -6 -19 -6 -3 12 21 23 21 32 1 46 -14 11 -8 23 46 98 62 88 101
115 147 106 14 -3 12 -7 -12 -22 -41 -25 -105 -124 -105 -163 0 -17 7 -50 15
-73 8 -23 15 -44 15 -46 0 -2 -17 -6 -37 -10 -21 -4 -50 -13 -65 -20 -37 -19
-116 -118 -145 -181 -21 -45 -29 -53 -51 -53 l-27 1 28 20 c15 11 27 26 27 32
0 6 -10 1 -23 -11 -23 -22 -77 -44 -134 -55 -51 -10 -39 1 21 18 60 18 141 67
157 96 6 13 6 19 -1 19 -5 0 -10 -5 -10 -10 0 -12 -88 -70 -104 -70 -6 0 0 9
14 20 14 11 21 20 17 20 -5 0 10 21 32 46 40 46 56 79 26 54 -13 -11 -14 -10
-9 4 4 9 1 16 -6 16 -7 0 -10 7 -6 15 10 26 -13 16 -28 -13 -20 -38 -58 -71
-63 -54 -3 6 -9 10 -13 7 -5 -3 -7 -12 -4 -19 3 -9 -3 -17 -15 -21 -20 -6 -30
-35 -13 -35 12 0 9 -40 -3 -41 -5 0 -1 -4 10 -8 16 -7 10 -11 -34 -25 -62 -18
-95 -21 -86 -6 3 6 17 10 30 10 13 0 27 5 30 10 8 14 -1 13 -70 -6 -33 -9 -69
-16 -80 -15 -11 1 -38 -4 -60 -10 -32 -8 -50 -7 -83 4 -45 16 -50 13 -28 -12
8 -10 15 -46 18 -93 4 -86 -6 -95 -17 -15 -4 28 -13 67 -21 86 l-14 34 -54 -7
c-30 -3 -99 -1 -153 5 -54 7 -119 13 -145 14 -26 1 -50 4 -54 8 -3 3 -12 3
-20 0 -18 -7 -44 14 -44 35 0 12 6 10 22 -8 20 -22 23 -22 26 -6 2 10 9 15 18
12 9 -3 6 6 -8 25 -17 23 -28 29 -45 24 -12 -3 -25 -1 -28 5 -3 5 -1 10 4 10
6 0 11 11 11 25 0 29 -27 35 -32 8 -3 -15 -10 -12 -38 17 -38 37 -39 37 -118
47 l-54 6 6 31 c4 17 10 59 13 93 5 52 2 66 -17 97 -24 40 -76 74 -163 106
-113 42 -148 96 -126 197 7 32 15 63 19 68 3 6 12 30 20 55 19 65 48 125 69
144 24 22 146 66 182 66 15 0 31 5 35 12 11 18 -91 4 -160 -22 -85 -32 -132
-79 -155 -154 -28 -92 -44 -202 -36 -254 9 -61 53 -105 125 -126 44 -13 69
-30 122 -83 64 -64 68 -70 68 -114 0 -37 -8 -58 -45 -115 -32 -49 -45 -79 -45
-106 0 -40 -21 -68 -49 -68 -10 0 -38 7 -61 15 -70 25 -86 21 -116 -31 -22
-37 -28 -63 -32 -124 -5 -91 13 -165 64 -255 18 -34 40 -80 48 -103 17 -47 52
-317 61 -467 26 -437 62 -735 130 -1091 83 -428 115 -635 122 -766 l6 -117
-44 -73 c-56 -93 -56 -123 0 -237 34 -70 41 -95 41 -143 0 -46 7 -72 31 -120
25 -50 33 -81 39 -158 5 -52 20 -147 34 -210 14 -63 36 -188 50 -278 22 -141
75 -407 92 -467 4 -11 10 -47 15 -80 11 -78 25 -157 60 -340 89 -455 99 -587
55 -719 -16 -49 -26 -101 -26 -137 0 -53 4 -63 34 -96 18 -21 35 -44 38 -52 7
-23 -57 -120 -101 -153 -22 -16 -46 -41 -53 -56 -18 -37 -181 -148 -252 -172
-94 -32 -307 -207 -327 -270 -16 -48 -27 -60 -75 -81 -32 -13 -45 -25 -54 -53
-8 -24 -8 -41 -1 -54 13 -25 130 -64 195 -66 46 -1 51 1 54 22 3 18 8 22 20
17 9 -4 38 -10 65 -13 42 -4 54 0 106 31 32 20 79 46 105 57 26 11 71 36 100
55 29 19 58 35 64 35 5 0 22 14 35 30 14 17 33 30 42 30 30 0 75 55 75 92 0
18 7 43 15 55 13 18 25 22 75 21 69 -1 90 12 90 55 0 23 11 40 45 73 26 24 45
50 45 63 0 29 18 27 32 -4 7 -16 24 -28 47 -34 118 -30 206 -20 217 25 6 24 2
92 -12 185 l-6 46 58 8 c50 6 63 12 94 46 19 21 40 39 46 39 7 0 14 -22 16
-50 3 -27 11 -56 18 -65 15 -18 53 -20 83 -3 34 18 108 10 135 -15 12 -11 22
-26 22 -32 0 -6 16 -30 36 -53 38 -44 72 -54 94 -27 7 9 29 15 52 15 30 0 46
-7 66 -28 59 -61 98 -82 152 -82 32 0 66 -8 92 -21 32 -16 50 -19 89 -14 28 4
55 3 62 -3 7 -5 41 -13 77 -16 56 -6 71 -4 109 16 25 13 51 32 58 44 12 18 11
24 -7 47 -11 14 -20 37 -20 51 0 15 -6 26 -13 26 -8 0 -22 9 -32 20 -10 11
-24 20 -31 20 -7 0 -29 8 -48 17 -26 12 -33 20 -25 29 7 9 5 14 -10 19 -21 6
-56 33 -95 71 -50 49 -246 125 -246 95 0 -10 6 -13 39 -15 21 -2 26 -26 6 -26
-25 0 -74 32 -80 51 -4 11 -32 25 -78 39 -55 17 -81 31 -109 61 -21 21 -43 39
-50 39 -6 0 -3 -6 7 -14 19 -14 19 -15 -8 -27 -27 -12 -30 -10 -75 35 -31 31
-42 50 -34 53 10 4 10 8 1 19 -9 10 -16 11 -32 2 -18 -9 -25 -6 -54 27 -38 44
-38 44 -18 109 19 64 19 129 -1 197 -27 87 -21 149 24 279 48 138 116 311 207
520 37 85 90 220 117 300 27 80 70 204 94 275 25 72 67 210 94 307 55 197 87
275 160 389 39 61 50 87 50 119 0 25 11 61 27 93 23 44 27 63 25 127 0 41 -1
114 -1 162 -1 98 -19 158 -57 183 -13 8 -24 23 -24 33 0 9 -15 48 -34 87 l-34
70 -13 374 c-12 365 -12 374 7 387 10 8 26 20 34 27 57 45 54 44 40 17 -7 -14
-26 -41 -42 -60 -33 -41 -35 -59 -8 -88 27 -29 34 -28 90 13 49 36 60 52 60
85 0 13 5 17 19 13 12 -3 23 2 30 14 5 11 35 39 65 62 73 56 114 121 171 267
26 65 53 134 61 152 8 18 14 63 14 100 1 118 18 266 34 297 10 19 16 65 18
127 3 87 1 99 -20 127 -19 26 -22 39 -17 74 4 27 1 66 -9 104 -23 89 -20 199
14 463 18 142 34 328 40 470 6 129 15 253 21 275 20 77 69 230 90 283 19 47
20 56 8 79 -13 23 -12 27 13 47 32 25 48 64 48 114 0 65 -19 109 -86 199 -36
48 -79 114 -95 145 -16 32 -69 191 -118 355 -94 312 -141 454 -171 513 -27 54
-108 299 -124 376 -8 38 -20 132 -26 208 -12 147 -38 268 -66 311 -23 35 -57
51 -127 59 -57 6 -129 35 -142 56 -15 24 15 39 66 33 38 -5 50 -3 55 10 18 47
-70 98 -204 118 -112 16 -314 6 -417 -20 l-80 -20 -30 29 c-38 35 -152 109
-181 116 -12 3 -36 -1 -52 -10 -41 -21 -51 -20 -89 12 l-32 28 -12 204 c-17
314 -19 282 16 292 17 4 43 20 58 36 31 33 67 129 67 182 0 58 12 130 21 130
5 0 9 -9 9 -20 0 -22 28 -40 63 -40 17 0 41 21 92 82 82 98 99 136 121 259 28
162 7 437 -42 531 -20 38 -103 122 -175 176 -69 51 -139 86 -215 107 -71 19
-286 28 -362 15z m289 -96 c9 -11 22 -14 44 -10 32 6 37 2 100 -89 7 -11 16
-17 20 -14 8 9 -22 81 -38 91 -6 4 -9 10 -5 13 3 4 15 -2 26 -13 11 -11 23
-18 26 -15 3 3 17 -9 31 -26 15 -17 31 -31 37 -31 6 0 5 6 -2 15 -7 9 -8 15
-2 15 6 0 28 -20 50 -45 22 -25 45 -45 51 -45 6 0 11 -6 11 -14 0 -14 53 -120
70 -141 13 -16 17 -124 4 -129 -11 -4 -24 -60 -29 -123 -1 -17 -14 -46 -28
-63 -15 -17 -27 -40 -27 -50 0 -13 -11 -22 -37 -29 -48 -14 -73 -14 -73 -1 0
6 -4 10 -10 10 -5 0 -20 10 -32 22 -19 19 -22 32 -21 86 1 34 -2 60 -7 57 -18
-11 -16 31 2 63 30 50 17 57 -30 14 -50 -46 -53 -72 -17 -140 14 -26 25 -60
25 -77 0 -16 9 -43 20 -60 50 -76 2 -121 -120 -113 -37 3 -82 13 -100 22 -18
9 -38 16 -44 16 -6 0 -29 12 -50 26 -48 33 -62 21 -36 -32 11 -22 26 -71 34
-109 7 -39 14 -60 15 -49 1 25 26 50 35 35 4 -5 2 -12 -3 -15 -5 -3 -12 -29
-16 -56 -4 -28 -11 -50 -16 -50 -5 0 -9 -4 -9 -10 0 -5 7 -10 15 -10 26 0 16
-18 -15 -29 l-30 -10 0 94 c0 52 -4 96 -8 99 -5 3 -9 -16 -10 -42 0 -26 -3
-72 -5 -102 -4 -48 -8 -55 -27 -58 l-23 -4 7 126 c7 118 6 126 -11 126 -11 0
-27 16 -41 44 -13 24 -39 59 -58 77 -30 29 -37 32 -54 21 -29 -18 -52 -15 -46
6 3 9 17 57 31 105 28 92 27 144 0 133 -17 -6 -18 8 -5 74 9 48 5 64 -10 40
-7 -11 -10 -8 -10 13 0 16 -4 26 -10 22 -14 -9 -13 8 2 23 9 9 7 13 -6 18 -15
6 -15 8 4 21 26 19 27 37 0 23 -32 -17 -23 -1 12 20 35 21 49 70 20 70 -14 1
-13 3 4 13 12 7 19 18 17 25 -3 6 2 12 11 12 12 0 16 -10 16 -40 0 -22 4 -40
10 -40 10 0 15 18 24 85 7 55 38 79 94 72 29 -3 45 0 50 9 5 8 36 16 80 20 40
4 75 11 78 15 8 14 30 10 45 -7z m-386 -94 c3 -5 1 -10 -4 -10 -6 0 -11 5 -11
10 0 6 2 10 4 10 3 0 8 -4 11 -10z m852 -408 c12 -26 13 -35 3 -47 -9 -11 -10
-36 -5 -89 5 -57 3 -76 -8 -88 -8 -7 -17 -23 -21 -35 -4 -11 -14 -23 -24 -27
-9 -3 -24 -9 -32 -14 -8 -5 -31 -14 -50 -21 -28 -9 -36 -8 -43 4 -5 9 -22 15
-42 15 -19 0 -35 2 -35 4 0 2 -3 11 -6 20 -5 14 5 16 69 16 72 0 76 1 101 30
34 41 57 118 64 215 3 44 7 73 10 65 2 -8 11 -30 19 -48z m-28 -331 c11 -7 9
-17 -8 -55 -21 -48 -137 -174 -149 -162 -3 4 -7 23 -9 42 -2 29 2 35 23 40 20
5 24 12 24 42 0 33 1 34 18 19 34 -31 51 -17 66 56 7 29 13 32 35 18z m-729
-97 c-18 -21 -24 -10 -8 15 7 12 14 17 16 11 2 -6 -2 -17 -8 -26z m445 -3 c3
-6 -2 -14 -10 -18 -13 -7 -13 -15 -4 -41 9 -25 8 -36 -5 -54 -19 -27 -21 -55
-4 -60 8 -3 7 -16 -5 -46 -20 -50 -21 -66 -5 -56 12 7 11 4 -14 -67 -11 -34
-15 -37 -63 -42 -44 -5 -163 -47 -190 -67 -22 -16 -67 -21 -83 -8 -13 11 -14
11 -7 -2 8 -13 6 -13 -8 -2 -9 8 -21 11 -26 7 -6 -3 -20 -1 -31 5 -16 8 -20
20 -19 53 1 23 3 33 6 22 9 -36 23 -40 23 -7 0 29 24 92 34 92 3 0 11 3 20 6
19 7 22 -26 4 -44 -15 -15 51 -6 105 14 42 16 65 11 48 -10 -8 -9 -6 -18 3
-32 14 -19 15 -19 42 2 38 28 67 90 94 198 12 49 29 96 37 104 10 10 11 17 3
22 -18 11 0 40 25 40 13 0 26 -4 30 -9z m45 -50 c0 -14 -18 -23 -31 -15 -8 4
-7 9 2 15 18 11 29 11 29 0z m-469 -82 c-6 -34 -13 -64 -16 -67 -3 -3 -32 -8
-65 -10 l-60 -4 0 40 c0 49 10 102 20 102 4 0 13 -25 20 -55 7 -31 18 -59 23
-62 16 -10 37 28 37 66 0 38 27 78 43 62 6 -6 5 -33 -2 -72z m249 -39 c0 -5
-4 -10 -10 -10 -5 0 -10 5 -10 10 0 6 5 10 10 10 6 0 10 -4 10 -10z m-47 -14
c5 -14 -10 -36 -25 -36 -4 0 -8 8 -8 18 0 31 23 44 33 18z m-58 -31 c0 -10 -6
-20 -12 -22 -8 -3 -13 5 -13 22 0 17 5 25 13 23 6 -3 12 -13 12 -23z m-47 -13
c3 -17 -2 -22 -17 -22 -16 0 -21 6 -21 26 0 33 33 30 38 -4z m-173 -18 c0 -10
-8 -20 -17 -22 -18 -3 -26 27 -11 42 12 11 28 0 28 -20z m59 10 c10 -26 7 -34
-14 -34 -13 0 -20 7 -20 18 0 33 23 44 34 16z m51 6 c4 -6 4 -18 1 -27 -5 -12
-9 -13 -21 -3 -8 7 -15 19 -15 26 0 16 26 19 35 4z m-165 -26 c0 -8 -6 -14
-14 -14 -9 0 -12 7 -9 20 6 22 23 18 23 -6z m348 4 c-4 -27 -28 -36 -28 -10 0
20 8 32 22 32 5 0 8 -10 6 -22z m-48 -5 c0 -5 -5 -15 -10 -23 -7 -11 -12 -12
-21 -3 -6 6 -8 16 -5 22 8 12 36 15 36 4z m-60 -32 c0 -11 -4 -22 -9 -25 -12
-8 -34 21 -26 34 11 17 35 11 35 -9z m-250 -11 c0 -5 -4 -10 -10 -10 -5 0 -10
5 -10 10 0 6 5 10 10 10 6 0 10 -4 10 -10z m66 -27 c-3 -3 -13 -3 -22 1 -13 5
-14 9 -3 22 11 14 13 14 22 -1 5 -9 6 -19 3 -22z m59 17 c0 -8 -8 -16 -17 -18
-13 -2 -18 3 -18 18 0 15 5 20 18 18 9 -2 17 -10 17 -18z m-105 -56 c0 -8 -4
-12 -10 -9 -5 3 -10 10 -10 16 0 5 5 9 10 9 6 0 10 -7 10 -16z m44 -2 c-7 -4
-14 -18 -16 -32 -3 -23 -4 -22 -9 8 -5 27 -3 32 15 32 13 0 17 -3 10 -8z m302
-177 c-3 -8 -12 -15 -21 -15 -14 0 -14 3 2 24 18 24 30 18 19 -9z m44 -16 c0
-11 -4 -17 -10 -14 -5 3 -10 13 -10 21 0 8 5 14 10 14 6 0 10 -9 10 -21z m-30
-34 c0 -8 -9 -15 -20 -15 -12 0 -20 -7 -20 -16 0 -10 6 -14 15 -10 18 7 20 -5
3 -22 -19 -19 -26 -14 -30 16 -2 15 -9 27 -17 27 -27 0 -22 24 6 28 54 8 63 7
63 -8z m-10 -144 c0 -42 -3 -51 -21 -56 -31 -10 -54 27 -24 39 23 8 18 20 -16
35 -37 16 -23 31 29 31 32 0 32 0 32 -49z m60 10 c0 -5 -7 -11 -15 -15 -15 -5
-20 5 -8 17 9 10 23 9 23 -2z m-230 -55 c0 -8 -4 -17 -9 -21 -12 -7 -24 12
-16 25 9 15 25 12 25 -4z m189 -93 c1 -34 -27 -60 -55 -49 -19 7 -18 35 1 42
22 9 18 22 -7 26 -36 5 -31 25 9 35 43 10 51 2 52 -54z m61 43 c0 -20 -13 -27
-30 -15 -13 8 -13 10 0 19 21 14 30 12 30 -4z m-271 -78 c0 -7 -13 -23 -29
-35 -22 -18 -29 -20 -33 -9 -3 8 2 16 14 19 10 3 19 12 19 21 0 9 7 16 15 16
8 0 15 -6 14 -12z m217 -84 c-1 -48 -21 -74 -58 -74 -26 0 -27 106 0 113 53
14 60 9 58 -39z m295 0 c8 -9 34 -25 59 -36 61 -26 103 -67 89 -85 -14 -17
-25 -18 137 16 174 37 275 47 332 32 71 -19 48 -31 -60 -32 -64 0 -139 -8
-198 -21 -52 -11 -111 -21 -130 -22 -19 -1 -45 -7 -57 -14 -12 -7 -47 -12 -77
-12 -31 0 -75 -4 -98 -10 -24 -5 -71 -13 -105 -17 -55 -8 -62 -7 -66 9 -3 10
0 21 6 25 6 3 69 10 141 14 72 4 134 8 139 8 4 1 -11 17 -33 37 -23 21 -67 46
-107 59 l-68 24 -57 -20 c-39 -15 -58 -28 -62 -43 -6 -21 -7 -21 -21 -2 -32
42 -21 52 83 79 118 30 136 32 153 11z m20 -96 c51 -29 50 -42 -3 -34 -24 4
-62 10 -85 13 -39 5 -53 19 -36 36 14 15 87 6 124 -15z m-292 -12 c10 -12 8
-19 -9 -36 -12 -12 -19 -27 -17 -35 7 -18 -12 -35 -40 -35 -14 0 -23 6 -23 16
0 8 -11 30 -26 49 l-25 33 53 10 c75 14 74 14 87 -2z m1034 -6 c5 -4 -6 -7
-24 -6 -18 1 -35 8 -37 15 -4 11 2 12 24 7 16 -4 33 -11 37 -16z m-1275 -48
c6 -18 -15 -14 -22 4 -4 10 -1 14 6 12 6 -2 14 -10 16 -16z m1111 4 c7 -8 41
-28 76 -44 79 -37 111 -67 94 -88 -15 -18 -59 -18 -118 1 -25 9 -65 20 -88 26
-51 12 -57 35 -14 50 25 9 48 35 38 45 -1 2 -47 -11 -102 -27 -80 -25 -112
-30 -166 -27 -108 6 -108 22 -2 45 160 35 263 42 282 19z m-2031 -31 c-7 -7
-26 -17 -43 -23 -16 -5 -39 -14 -50 -18 -39 -15 7 28 50 47 41 19 66 15 43 -6z
m912 -24 c0 -10 -6 -23 -12 -29 -16 -13 -90 -33 -97 -27 -2 3 11 21 29 40 38
39 80 47 80 16z m-634 -2 c74 -13 94 -19 94 -27 0 -5 -165 1 -189 7 -6 2 21
31 28 31 4 0 34 -5 67 -11z m964 -4 c18 -9 30 -24 30 -35 0 -24 -11 -25 -50
-5 -29 15 -38 34 -23 48 9 9 10 9 43 -8z m370 -28 c0 -18 -12 -58 -27 -88 -29
-57 -40 -63 -140 -86 -33 -8 -43 -7 -43 2 0 14 22 25 50 25 40 0 94 64 129
153 15 37 31 34 31 -6z m-521 -7 c74 0 98 -4 113 -17 24 -22 23 -58 -3 -77
-14 -10 -19 -20 -15 -34 4 -12 -1 -34 -13 -53 -10 -19 -22 -51 -25 -71 -8 -43
-14 -46 -114 -50 -62 -2 -75 0 -84 15 -5 10 -7 26 -3 35 4 9 8 44 9 78 3 59 2
60 -21 56 -18 -3 -23 0 -23 16 0 11 7 25 15 32 22 18 18 30 -7 30 -30 0 -45
-11 -49 -34 -2 -11 -10 -21 -17 -24 -26 -8 0 53 36 84 32 27 40 30 71 23 20
-5 78 -9 130 -9z m-629 -4 c0 -15 -50 -60 -58 -52 -6 7 37 66 49 66 5 0 9 -6
9 -14z m950 -16 c-27 -38 -30 -39 -57 -29 -48 18 -17 58 45 59 l33 0 -21 -30z
m50 26 c0 -2 -7 -9 -15 -16 -13 -11 -14 -10 -9 4 5 14 24 23 24 12z m19 -28
c-12 -23 -12 -23 10 -4 26 23 27 10 2 -23 -32 -42 -56 -6 -25 37 20 29 30 22
13 -10z m-1247 4 c16 -16 14 -17 -77 -42 -44 -12 -87 -26 -95 -30 -17 -8 -70
7 -70 20 0 5 21 22 48 39 42 28 54 30 114 28 37 -1 73 -8 80 -15z m331 -24 c5
-20 25 -55 44 -78 34 -40 40 -66 8 -40 -8 7 -30 20 -48 29 -25 13 -33 23 -35
51 -2 19 -8 39 -13 45 -17 17 -10 37 13 33 16 -2 25 -13 31 -40z m63 7 c-3
-11 -1 -27 4 -35 8 -12 10 -12 10 5 0 18 1 18 16 -3 22 -32 37 -17 19 18 -8
16 -15 32 -15 35 0 3 21 5 47 3 44 -3 48 -5 57 -36 11 -39 8 -42 -43 -49 -32
-4 -39 -9 -31 -18 7 -8 7 -15 1 -19 -15 -10 -41 5 -41 23 0 10 -9 17 -22 18
-13 1 -28 10 -35 19 -16 22 -17 38 -2 28 7 -4 9 0 5 13 -5 14 -1 19 15 19 15
0 19 -5 15 -21z m1134 15 c0 -5 -2 -10 -4 -10 -3 0 -8 5 -11 10 -3 6 -1 10 4
10 6 0 11 -4 11 -10z m-330 -20 c0 -5 -5 -10 -11 -10 -5 0 -7 5 -4 10 3 6 8
10 11 10 2 0 4 -4 4 -10z m904 -21 c54 -14 124 -66 130 -98 11 -54 5 -312 -6
-304 -5 2 -8 15 -8 28 0 13 -5 27 -10 30 -7 4 -9 -9 -5 -37 6 -46 0 -40 -30
36 -27 69 -27 31 1 -48 14 -43 24 -80 21 -83 -3 -3 -9 8 -13 23 -4 16 -17 50
-30 76 -13 26 -24 56 -24 67 0 10 -7 21 -15 25 -8 3 -12 12 -9 20 3 9 -5 24
-21 38 -31 26 -75 108 -75 137 0 11 -5 32 -12 45 -9 22 -8 29 8 47 12 13 25
18 39 14 11 -4 37 -11 59 -16z m-1854 -56 c0 -7 -6 -13 -14 -13 -8 0 -16 6
-19 13 -3 8 -11 3 -25 -13 -12 -14 -21 -19 -22 -12 0 6 5 12 11 12 5 0 8 4 5
9 -4 5 4 21 16 34 l23 26 12 -22 c7 -12 12 -28 13 -34z m1296 12 c19 -45 18
-98 -2 -138 -19 -36 -77 -97 -94 -97 -6 0 -33 -15 -60 -34 -43 -30 -60 -35
-134 -41 -87 -7 -106 -4 -106 20 0 9 18 16 58 20 95 10 132 24 132 52 0 14 -4
21 -10 18 -11 -7 -14 8 -4 18 8 7 35 -19 32 -30 -9 -25 43 -10 98 28 57 39 78
87 70 161 -3 32 -3 58 0 58 3 0 12 -16 20 -35z m421 -23 c6 -26 34 -85 62
-131 28 -46 51 -88 51 -93 0 -16 -29 -8 -57 16 -15 12 -38 28 -51 35 -28 15
-48 46 -57 88 -6 29 -4 32 11 26 14 -5 16 -3 11 11 -4 10 -10 35 -13 57 -6 34
-4 39 12 39 15 0 22 -12 31 -48z m-1397 28 c19 -12 10 -20 -34 -27 -40 -6 -48
6 -13 23 29 15 30 15 47 4z m1290 -8 c0 -4 -5 -13 -12 -20 -8 -8 -12 -47 -13
-107 0 -52 -3 -95 -7 -95 -14 0 -28 39 -28 74 0 43 21 126 32 126 4 0 5 7 2
15 -4 9 0 15 10 15 9 0 16 -4 16 -8z m-785 -21 c47 -12 71 -24 73 -35 5 -23
-71 -21 -125 4 -43 19 -54 34 -30 43 6 3 12 6 12 6 0 0 32 -8 70 -18z m-446
-15 c19 -23 -30 -42 -121 -49 -77 -5 -78 -5 -78 19 0 22 4 24 53 25 28 1 63 5
77 9 39 12 57 11 69 -4z m-805 -11 c3 -8 17 -20 31 -27 30 -13 30 -44 0 -40
-17 2 -16 -1 7 -22 15 -13 33 -26 40 -29 7 -2 10 -8 6 -12 -4 -4 -21 3 -39 15
-30 22 -31 22 -25 3 5 -14 1 -23 -10 -27 -9 -4 -18 -5 -19 -4 -1 2 -5 38 -8
81 -5 71 2 99 17 62z m474 -5 c2 -10 -7 -16 -28 -17 -17 -1 -28 2 -25 6 3 5
-5 7 -16 4 -12 -4 -24 -14 -26 -25 -7 -24 -23 -23 -23 1 0 12 13 24 38 35 44
18 76 17 80 -4z m402 5 c0 -8 5 -15 11 -15 5 0 7 -5 4 -10 -4 -6 -10 -8 -14
-5 -13 7 -21 45 -10 45 5 0 9 -7 9 -15z m350 -40 c23 -8 53 -15 66 -15 13 0
24 -6 24 -12 0 -9 2 -10 8 -2 4 6 33 13 65 16 46 4 57 2 57 -10 0 -10 10 -5
27 14 37 40 42 13 9 -46 -22 -39 -56 -63 -56 -39 0 4 -7 6 -16 2 -12 -4 -14 0
-9 23 l5 29 -14 -30 c-16 -31 -19 -28 -17 15 1 24 1 24 -13 -5 -14 -29 -14
-29 -15 -6 -1 23 -2 24 -15 6 -14 -19 -53 -14 -41 5 3 5 2 10 -4 10 -5 0 -11
-5 -13 -12 -8 -22 -98 11 -109 39 -5 13 -9 26 -9 29 0 8 28 4 70 -11z m-665
-25 c3 -5 19 -7 34 -4 33 7 75 -26 69 -54 -3 -13 -12 -16 -43 -13 -22 1 -42 7
-45 12 -3 4 -12 4 -20 -1 -23 -15 -27 -12 -40 21 -11 26 -11 32 1 40 18 12 36
11 44 -1z m257 -15 c6 -14 9 -27 7 -29 -2 -2 -34 -6 -71 -9 -63 -6 -68 -5 -68
13 0 11 -1 23 -2 28 -3 6 45 15 105 20 10 1 22 -9 29 -23z m753 -17 c-3 -39
-16 -45 -33 -17 -11 18 -11 24 4 40 22 24 32 17 29 -23z m-1073 -7 c17 -34 16
-59 -1 -32 -7 10 -10 10 -16 1 -6 -9 -10 -9 -16 1 -7 11 -9 10 -9 -3 0 -28
-34 -21 -58 11 -22 31 -19 49 6 28 13 -10 15 -9 9 5 -7 19 7 28 43 25 18 -1
30 -12 42 -36z m-273 -41 c-21 -44 -29 -50 -29 -22 0 16 33 62 44 62 3 0 -5
-18 -15 -40z m221 -49 c19 -11 48 -21 63 -21 36 0 67 -16 67 -35 0 -22 -22
-30 -32 -11 -6 11 -23 16 -58 16 -44 0 -50 2 -50 21 0 24 -26 48 -52 49 -10 0
-16 7 -15 20 1 19 2 19 22 1 11 -10 36 -28 55 -40z m870 44 c24 -13 24 -14 4
-15 -12 0 -27 7 -34 15 -16 19 -3 19 30 0z m-1194 -11 c-3 -9 -6 -21 -6 -27
-1 -13 -30 22 -30 35 0 4 9 8 21 8 15 0 19 -4 15 -16z m724 5 c0 -25 -72 -77
-140 -103 -94 -34 -110 -34 -110 3 0 28 4 31 118 69 134 46 132 46 132 31z
m961 -52 c11 -40 7 -83 -12 -143 -11 -34 -81 -90 -98 -79 -6 3 -11 -1 -11 -9
0 -9 -16 -19 -42 -26 -24 -7 -54 -19 -67 -27 -25 -16 -179 -22 -213 -8 -39 16
-17 27 40 21 38 -4 76 -1 116 9 77 20 190 80 221 117 29 34 48 97 40 133 -3
14 -8 37 -11 52 -9 44 24 9 37 -40z m-1104 47 c-3 -3 -12 -4 -19 -1 -8 3 -5 6
6 6 11 1 17 -2 13 -5z m596 -82 c4 -23 3 -24 -37 -18 -96 14 -176 52 -176 84
0 18 7 17 104 -11 92 -27 105 -34 109 -55z m147 56 c0 -12 -44 -10 -58 4 -21
21 -13 26 23 15 19 -6 35 -14 35 -19z m-1185 12 c4 -6 11 -7 17 -4 12 7 28
-14 28 -36 -1 -12 -3 -11 -11 3 -13 23 -29 12 -29 -20 0 -23 -2 -24 -17 -12
-15 12 -16 12 -10 -3 4 -12 2 -15 -9 -11 -8 3 -14 -1 -14 -8 0 -11 -3 -11 -10
1 -15 23 -12 50 5 50 8 0 15 8 15 18 0 30 22 43 35 22z m799 -11 c6 -5 4 -25
-5 -51 -10 -30 -14 -87 -13 -193 1 -99 -2 -152 -9 -157 -14 -9 -16 -7 66 -48
62 -30 71 -32 101 -22 46 17 71 15 116 -8 44 -23 54 -45 16 -38 -24 5 -24 4
-9 -19 11 -17 19 -21 26 -14 6 6 25 11 42 11 52 0 238 38 297 60 116 43 177
113 178 205 1 37 2 39 15 21 21 -28 19 -90 -5 -137 -28 -53 -93 -117 -127
-124 -16 -4 -44 -13 -63 -20 -19 -8 -54 -17 -77 -20 -24 -4 -43 -11 -43 -15 0
-5 -52 -8 -116 -7 -64 1 -118 -1 -121 -6 -6 -10 -52 2 -88 23 -16 10 -53 25
-82 33 -69 21 -90 33 -98 57 -4 11 -15 20 -27 20 -20 0 -20 -1 -3 -27 12 -18
14 -28 7 -31 -7 -2 -12 -23 -12 -48 0 -25 -5 -44 -11 -44 -6 0 -2 -15 9 -32
15 -26 18 -39 10 -58 -5 -14 -15 -52 -22 -85 l-12 -60 -44 4 c-59 4 -63 7 -56
46 4 19 2 36 -4 40 -5 3 -10 24 -10 45 0 22 -7 45 -16 54 -18 19 -10 36 17 36
17 0 19 7 19 59 0 40 -5 63 -15 71 -11 9 -15 31 -14 74 0 51 2 57 11 39 18
-37 38 -29 31 12 -4 26 -1 41 12 55 17 19 17 20 0 20 -10 0 -27 -7 -37 -17
-23 -20 -24 -2 -2 32 10 15 26 25 40 25 23 0 24 -3 24 -74 0 -56 4 -75 15 -80
13 -4 15 9 15 84 0 88 0 90 -24 90 -36 0 -55 37 -52 100 2 36 8 55 20 62 9 5
16 21 16 38 0 15 6 31 13 33 16 7 90 -3 101 -14z m1008 -52 c19 -18 53 -38 75
-45 76 -23 114 -110 228 -518 87 -315 112 -387 200 -584 126 -283 138 -350
101 -565 -22 -127 -18 -171 23 -218 27 -30 29 -40 37 -167 14 -209 8 -361 -25
-608 -39 -289 -51 -414 -51 -513 0 -95 -13 -160 -52 -253 -16 -39 -32 -93 -35
-119 -6 -53 -23 -77 -54 -77 -10 0 -19 -4 -19 -10 0 -5 -18 -21 -40 -35 -32
-20 -40 -31 -40 -56 0 -38 -23 -82 -70 -136 -36 -41 -60 -98 -60 -143 0 -12
-15 -36 -32 -52 -33 -30 -35 -37 -65 -181 -4 -22 1 -35 23 -58 28 -29 28 -32
35 -192 4 -89 11 -187 14 -217 4 -30 10 -228 15 -440 10 -410 14 -451 65 -566
14 -33 39 -76 55 -96 35 -43 37 -59 10 -83 -11 -10 -20 -26 -20 -37 0 -10 -4
-18 -10 -18 -5 0 -7 7 -4 15 4 8 2 15 -3 15 -5 0 -14 -12 -20 -27 l-11 -28 -1
25 c-1 20 -3 22 -11 10 -7 -12 -10 -8 -11 15 l-1 30 -13 -30 c-12 -26 -14 -27
-15 -8 0 15 -5 21 -14 17 -16 -6 -36 24 -36 54 0 10 -7 33 -16 51 -12 25 -14
46 -9 88 6 52 5 58 -17 75 -15 13 -19 21 -10 25 7 3 12 22 12 46 0 31 -3 38
-10 27 -7 -11 -10 -7 -10 18 0 21 5 32 14 32 16 0 26 30 26 78 0 20 -4 31 -10
27 -6 -4 -10 22 -11 69 -2 96 -2 95 -15 104 -13 8 -25 272 -12 272 4 0 8 -55
8 -122 0 -80 3 -119 10 -112 6 6 7 85 3 219 -4 116 -10 190 -13 165 -9 -84
-21 -12 -14 86 6 89 -11 294 -39 469 l-11 70 -6 -45 c-5 -44 -5 -43 -18 35
-14 94 -15 136 -1 86 13 -44 21 -34 13 17 -6 36 -9 40 -24 32 -16 -8 -18 -4
-17 38 4 132 -3 192 -23 212 -22 22 -27 46 -8 34 8 -5 9 -2 3 12 -4 10 -11 46
-15 79 -4 33 -8 47 -9 31 l-1 -30 -21 23 c-15 16 -18 25 -10 30 7 5 11 35 11
77 0 38 0 78 1 89 7 107 3 152 -19 183 -13 18 -30 32 -38 32 -8 0 -14 9 -14
21 0 13 4 18 12 13 8 -5 9 -2 5 10 -12 31 3 66 28 66 12 0 29 7 36 17 16 19
86 52 111 53 21 0 84 -102 114 -185 18 -47 24 -56 30 -41 9 23 -39 178 -68
219 -25 35 -68 36 -148 2 -81 -34 -88 -33 -101 20 -13 51 -29 60 -29 16 0 -31
-13 -47 -45 -52 -12 -3 -23 -17 -29 -37 -5 -17 -15 -32 -23 -32 -8 0 -12 -4
-9 -8 3 -5 -18 -9 -45 -9 -38 -1 -52 3 -56 16 -3 9 -13 24 -21 34 -11 12 -12
17 -2 17 8 0 10 8 7 21 -8 32 84 120 143 138 42 12 45 12 62 -9 17 -21 18 -21
18 -3 0 11 -10 28 -21 39 -36 31 -62 101 -54 142 7 36 48 104 81 134 11 9 45
24 77 33 117 34 154 97 144 248 -3 50 -10 103 -15 117 -8 18 -9 2 -5 -60 10
-163 -18 -244 -94 -276 -58 -25 -65 -16 -24 25 45 45 50 68 54 220 3 86 1 96
-23 128 -66 93 -189 183 -249 183 -12 0 -21 5 -21 10 0 14 94 13 144 -2 30 -8
62 -33 119 -90 78 -78 101 -84 48 -11 -34 48 -119 111 -169 128 -27 9 -67 10
-142 4 -164 -13 -252 -66 -333 -201 -32 -53 -36 -56 -53 -43 -31 24 -55 17
-105 -30 -73 -68 -83 -59 -32 30 43 76 23 120 -34 75 -48 -37 -58 -28 -59 53
l-2 73 33 -4 c71 -8 65 77 -6 92 -31 6 -32 7 -26 52 5 49 18 64 53 64 21 0 34
17 34 45 0 23 -34 35 -68 26 l-30 -9 -7 64 c-8 73 -3 84 31 84 20 0 24 5 24
29 0 32 -12 45 -52 55 -41 9 -39 50 2 65 17 5 33 17 36 26 8 20 -21 53 -49 57
-12 2 -23 11 -25 22 -3 16 0 18 25 12 15 -4 53 -25 83 -47 30 -21 109 -74 175
-118 107 -72 123 -86 151 -138 21 -39 37 -58 50 -58 16 0 19 7 18 38 -1 21 -7
44 -13 50 -9 9 -11 8 -6 -5 4 -11 2 -18 -4 -18 -14 0 -37 37 -45 72 -3 15 -17
40 -31 55 -20 23 -26 25 -34 14 -7 -11 -14 -4 -31 28 -12 24 -35 50 -52 59
-17 9 -54 36 -82 60 -28 24 -71 55 -96 69 -122 70 -128 76 -132 118 -3 22 -4
41 -2 43 8 11 84 -36 132 -81 31 -30 80 -69 107 -87 69 -46 104 -79 125 -121
26 -50 92 -106 167 -141 70 -33 104 -70 128 -138 26 -73 53 -90 76 -48 9 16 9
34 0 75 -7 29 -17 53 -22 53 -11 0 -11 0 2 -39 12 -33 5 -86 -10 -77 -5 3 -11
19 -14 34 -3 16 -18 43 -32 61 -19 22 -23 32 -13 35 7 2 33 10 58 18 41 12 48
19 80 79 19 36 47 80 63 98 23 27 27 42 27 91 0 41 8 74 26 115 22 48 25 66
20 110 -4 38 -1 61 10 85 13 25 15 46 9 94 -8 72 -8 84 1 157 5 48 3 62 -21
109 -24 47 -26 58 -16 90 6 21 11 57 11 81 0 44 -28 121 -49 133 -6 4 -11 38
-11 83 0 60 -4 83 -21 110 -24 39 -22 47 34 141 29 48 51 64 98 71 3 1 22 -14
41 -32z m-962 -14 c0 -20 -3 -24 -11 -16 -7 7 -9 19 -6 27 10 24 17 19 17 -11z
m1178 -8 c13 -29 5 -33 -14 -7 -15 20 -18 32 -6 32 5 0 14 -11 20 -25z m-1899
1 c10 -12 5 -15 -26 -21 -21 -3 -58 -22 -82 -41 -54 -42 -67 -43 -75 -2 -6 31
3 55 11 31 3 -9 11 -8 29 3 28 19 92 43 115 44 9 0 22 -6 28 -14z m441 -31 l0
-45 -37 0 c-21 0 -55 -4 -75 -9 -28 -7 -40 -5 -49 5 -6 8 -15 14 -19 14 -12 0
-8 -74 4 -83 6 -5 -3 -6 -21 -3 -21 3 -33 1 -37 -9 -2 -7 -26 -17 -53 -21 -26
-3 -54 -11 -60 -16 -10 -8 -13 -5 -13 10 0 26 -29 33 -70 16 -18 -8 -34 -13
-35 -12 -1 2 -9 14 -19 28 l-17 25 7 -30 c6 -29 6 -29 -10 -10 -17 20 -17 20
-11 -2 4 -15 1 -23 -12 -26 -33 -8 58 -39 127 -44 92 -6 100 -10 71 -34 -47
-38 -151 -15 -248 55 -47 35 -63 52 -68 78 -3 18 -11 43 -17 56 -9 17 -9 25 0
34 9 9 13 7 18 -8 18 -56 40 -98 62 -115 14 -11 28 -17 31 -13 3 3 -5 15 -19
26 l-24 20 24 19 c23 17 31 20 46 18 4 0 10 5 15 13 6 10 11 9 23 -7 15 -20
15 -20 10 0 -2 11 0 27 6 35 9 13 13 11 31 -9 l20 -25 -6 27 c-6 23 -3 28 20
37 34 13 32 14 40 -12 4 -15 8 -18 12 -10 4 10 8 10 21 0 12 -10 14 -10 8 0
-5 9 11 12 71 13 61 0 94 6 153 29 41 15 81 29 88 29 8 1 12 -14 12 -44z m397
5 c23 -7 44 -18 47 -26 4 -11 -7 -14 -55 -14 -44 0 -61 4 -65 15 -9 21 4 48
19 41 6 -2 31 -10 54 -16z m-117 -50 c-7 -22 -17 -40 -21 -40 -27 0 -19 76 9
83 25 5 26 1 12 -43z m428 6 l3 -27 19 23 c21 26 26 18 9 -15 -10 -22 -10 -22
10 1 11 13 26 20 34 16 14 -5 14 -11 -1 -50 -9 -24 -20 -44 -25 -44 -5 0 -6 8
-2 18 5 14 4 15 -6 5 -16 -16 -49 -17 -49 -3 0 6 -11 8 -27 4 -26 -7 -26 -6
-20 32 l6 39 -16 -30 c-9 -17 -18 -25 -21 -17 -2 6 -8 9 -13 6 -6 -3 -17 0
-25 7 -17 14 -34 19 -73 23 -14 2 -27 9 -29 16 -3 9 3 11 22 8 14 -3 26 -2 26
2 0 4 16 7 36 8 20 1 45 4 55 7 12 4 19 1 19 -7 0 -8 4 -7 11 4 14 26 53 8 57
-26z m816 -46 l7 -25 -20 24 c-12 12 -18 28 -15 33 8 13 20 -1 28 -32z m-1189
20 c3 -5 -1 -10 -9 -10 -9 0 -16 5 -16 10 0 6 4 10 9 10 6 0 13 -4 16 -10z
m70 0 c4 -6 -5 -10 -19 -10 -14 0 -26 5 -26 10 0 6 9 10 19 10 11 0 23 -4 26
-10z m53 -2 c-6 -18 -28 -21 -28 -4 0 9 7 16 16 16 9 0 14 -5 12 -12z m386 -9
c-3 -5 -11 -9 -19 -9 -7 0 -15 -7 -19 -15 -3 -8 -10 -15 -16 -15 -6 0 -5 11 5
29 11 22 20 28 35 24 11 -3 17 -9 14 -14z m-874 4 c-14 -3 -28 -9 -31 -14 -7
-12 -82 -14 -100 -3 -10 6 -3 11 26 15 46 7 142 9 105 2z m530 -3 c8 -5 11
-10 5 -10 -5 0 -17 5 -25 10 -8 5 -10 10 -5 10 6 0 17 -5 25 -10z m112 -35
c26 -14 56 -25 66 -25 22 0 34 -9 26 -21 -3 -5 -15 -4 -27 3 -12 6 -34 11 -49
10 -16 -1 -28 2 -28 7 0 4 -13 11 -30 15 -18 3 -30 12 -30 21 0 21 18 19 72
-10z m-602 6 c0 -30 -193 -147 -272 -165 -26 -6 -28 -4 -28 23 0 27 5 31 68
52 37 12 101 39 142 60 80 41 90 44 90 30z m284 -25 c34 -13 86 -27 116 -31
30 -4 63 -11 73 -17 19 -10 24 -48 5 -48 -26 0 -128 24 -128 31 0 3 -18 9 -39
13 -38 6 -101 48 -101 67 0 13 7 12 74 -15z m-1000 -49 c-9 -17 -22 -49 -29
-71 l-13 -41 -1 53 c-1 65 23 120 44 102 12 -10 12 -16 -1 -43z m1181 38 l30
-13 -37 -1 c-43 -1 -70 8 -62 20 7 13 34 10 69 -6z m-625 -15 c-8 -5 -22 -10
-30 -10 -13 0 -13 1 0 10 8 5 22 10 30 10 13 0 13 -1 0 -10z m-225 -9 c6 -11
-62 -27 -72 -17 -6 6 33 24 54 25 6 1 14 -3 18 -8z m1347 -19 c10 -17 13 -33
8 -41 -9 -16 -30 -6 -30 15 0 8 -4 14 -10 14 -5 0 -10 9 -10 20 0 29 23 25 42
-8z m625 -9 c-3 -3 -11 -2 -17 2 -9 6 -9 10 1 16 14 8 27 -7 16 -18z m-1587
-3 c0 -15 -7 -20 -26 -20 -14 0 -23 -4 -19 -10 3 -5 15 -10 26 -10 11 0 19 -7
19 -16 0 -8 -5 -12 -10 -9 -6 4 -16 2 -23 -3 -7 -5 -38 -13 -70 -17 -32 -3
-82 -17 -110 -31 -29 -13 -61 -24 -73 -24 -12 0 -38 -11 -58 -25 -20 -14 -73
-43 -118 -66 -65 -32 -89 -39 -115 -34 -18 3 -33 2 -33 -2 0 -12 110 -31 116
-21 7 11 240 128 255 128 7 0 9 -9 6 -23 -8 -29 9 -60 18 -35 4 9 6 22 4 29
-7 56 33 79 133 78 53 0 60 -2 45 -12 -49 -32 -53 -37 -19 -26 51 17 52 1 2
-42 -45 -40 -180 -112 -232 -125 -25 -5 -27 -4 -25 22 2 27 1 28 -43 26 -71
-4 -121 -13 -115 -22 3 -4 34 -5 70 -2 71 5 91 -11 28 -23 -21 -4 -43 -11 -50
-17 -8 -6 -18 -6 -30 0 -10 6 -46 10 -79 11 -73 0 -140 24 -147 53 -4 15 -11
18 -26 13 -13 -4 -21 -2 -21 5 0 19 29 23 55 6 49 -32 61 -14 18 31 -18 19
-24 22 -20 10 9 -23 -12 -18 -27 6 -15 24 23 60 91 86 66 25 140 27 172 5 l24
-17 -24 -18 c-17 -13 -27 -15 -36 -7 -10 8 -13 6 -13 -6 0 -9 -12 -21 -26 -26
-35 -14 -44 -13 -44 4 0 8 -5 18 -10 21 -7 4 -8 -3 -4 -22 4 -15 3 -25 -1 -21
-5 4 -14 3 -22 -3 -7 -6 -13 -7 -13 -2 0 5 -7 18 -16 29 -15 18 -15 18 -5 -3
6 -12 11 -31 11 -42 0 -20 1 -19 68 3 73 25 192 85 192 96 0 4 16 10 35 13 20
3 72 20 115 36 44 17 87 31 96 31 9 0 29 14 44 30 32 35 60 39 60 10z m1644
-71 c15 -51 45 -127 67 -170 38 -76 127 -333 279 -805 56 -175 80 -235 113
-285 31 -46 43 -75 47 -113 5 -47 7 -51 35 -56 25 -4 30 -10 33 -38 3 -32 -11
-62 -29 -62 -13 0 -59 96 -59 124 0 18 -9 30 -28 40 -19 10 -35 32 -50 73 -13
32 -27 65 -31 73 -14 27 -26 10 -24 -33 4 -64 -12 -17 -27 81 -12 80 -34 130
-24 55 5 -34 4 -36 -9 -20 -8 9 -17 41 -21 71 -3 29 -12 72 -21 95 -8 23 -10
39 -5 36 14 -9 12 4 -7 60 -13 40 -18 45 -23 30 -6 -16 -9 -14 -15 15 -3 20
-5 42 -3 49 2 7 -3 16 -9 18 -8 3 -13 -3 -13 -13 0 -17 -2 -16 -21 3 -16 16
-20 28 -15 47 7 30 5 40 -9 42 -5 1 -14 2 -20 3 -5 1 -1 8 10 17 20 15 20 15
-4 33 -25 19 -22 41 7 41 12 0 13 3 4 12 -7 7 -12 25 -12 40 0 15 -4 28 -10
28 -5 0 -10 -16 -10 -35 0 -19 -3 -35 -7 -35 -15 0 -73 183 -62 196 6 7 6 21
-1 38 -12 31 -20 35 -12 4 3 -13 1 -19 -5 -15 -12 8 -23 67 -13 67 16 0 39
-39 56 -95 20 -68 38 -97 28 -45 -13 66 -52 165 -63 162 -7 -1 -21 2 -31 8
-17 9 -18 14 -7 30 6 11 18 18 24 15 15 -5 17 14 4 34 -5 7 -14 10 -20 7 -7
-5 -11 3 -11 23 0 16 -4 32 -9 35 -12 8 -20 66 -9 66 12 0 10 38 -4 60 -10 16
-10 24 0 40 7 12 10 25 7 30 -4 6 -2 10 3 10 4 0 21 -41 36 -91z m-1927 75
c-3 -3 -12 -4 -19 -1 -8 3 -5 6 6 6 11 1 17 -2 13 -5z m553 -30 c0 -13 -4 -24
-9 -24 -11 0 -22 40 -15 52 9 15 24 -2 24 -28z m-930 12 c0 -7 -8 -16 -19 -19
-14 -3 -17 0 -14 14 6 22 33 26 33 5z m1130 -43 c41 -9 87 -16 103 -16 31 0
31 -1 16 -28 -10 -19 -10 -19 -39 1 -19 14 -41 20 -62 18 -31 -3 -28 -5 47
-42 44 -21 95 -42 113 -48 17 -5 32 -15 32 -23 0 -20 -18 -19 -65 5 -22 11
-44 20 -51 20 -6 0 -17 7 -24 15 -7 8 -25 15 -40 15 -32 0 -83 38 -62 46 44
19 -45 49 -114 38 -44 -6 -44 -6 -44 24 l0 31 58 -20 c31 -11 91 -27 132 -36z
m404 26 c-8 -14 -24 -10 -24 6 0 9 6 12 15 9 8 -4 12 -10 9 -15z m43 -21 c-3
-8 -6 -5 -6 6 -1 11 2 17 5 13 3 -3 4 -12 1 -19z m-1519 -7 c16 -10 -27 -41
-58 -41 -11 0 -20 -6 -20 -13 0 -11 -39 -37 -56 -37 -6 0 7 53 16 63 8 9 78
36 95 36 6 1 16 -3 23 -8z m1312 -18 c1 -17 1 -17 11 0 12 21 44 22 83 2 15
-8 40 -17 54 -20 14 -2 33 -12 41 -21 9 -9 10 -14 4 -10 -7 4 -13 2 -13 -4 0
-14 -54 -34 -58 -22 -2 6 -15 -1 -29 -14 -20 -19 -28 -21 -35 -12 -6 10 -10
10 -18 -2 -9 -13 -12 -13 -23 1 -7 9 -23 16 -37 15 -16 -1 -28 7 -36 22 -7 14
-14 19 -18 13 -10 -16 -36 -1 -36 20 0 24 33 42 48 27 8 -8 15 -6 27 6 21 21
35 20 35 -1z m-321 -10 c8 -16 4 -18 -37 -15 -85 5 -91 7 -62 20 39 17 88 15
99 -5z m1201 -9 c0 -17 -22 -14 -28 4 -2 7 3 12 12 12 9 0 16 -7 16 -16z
m-482 -101 c22 -44 -16 -161 -66 -206 -27 -24 -176 -87 -237 -99 -27 -6 -90
-7 -139 -4 -77 5 -92 9 -114 31 l-25 25 49 -8 c27 -4 99 -7 159 -7 93 0 118 4
159 23 119 54 186 134 186 220 0 44 13 55 28 25z m-1903 -32 c3 -17 0 -42 -9
-62 l-14 -34 -1 63 c-1 64 13 84 24 33z m1350 19 c3 -5 1 -10 -4 -10 -6 0 -11
5 -11 10 0 6 2 10 4 10 3 0 8 -4 11 -10z m479 -12 c18 -25 21 -66 6 -88 -8
-13 -16 -11 -57 11 -27 14 -48 31 -48 37 0 11 62 60 77 62 4 0 14 -10 22 -22z
m-1044 -8 c0 -13 -48 -36 -56 -27 -4 4 -1 13 6 22 14 17 50 20 50 5z m328 -25
c31 -13 40 -20 30 -26 -18 -12 -106 -11 -113 1 -3 6 -1 10 4 10 6 0 11 9 11
21 0 13 5 19 13 16 6 -3 31 -13 55 -22z m-403 -15 c-3 -5 -10 -10 -16 -10 -5
0 -9 5 -9 10 0 6 7 10 16 10 8 0 12 -4 9 -10z m-666 -24 c9 -11 6 -17 -14 -30
-24 -16 -25 -16 -25 7 0 37 18 48 39 23z m739 -20 c15 -15 -22 -55 -106 -114
-126 -89 -195 -127 -215 -119 -19 7 -22 39 -6 68 10 19 9 19 -10 9 -12 -6 -21
-8 -21 -5 0 4 -7 -1 -16 -9 -8 -9 -25 -16 -37 -16 -12 0 -17 4 -12 8 21 18
145 92 155 92 16 0 12 -22 -7 -36 -16 -12 -15 -13 10 -14 17 0 26 4 22 10 -14
22 6 68 33 79 15 5 54 21 87 35 53 23 106 28 123 12z m317 -27 c55 -29 85 -40
104 -36 35 7 115 -28 105 -45 -4 -7 -7 -25 -6 -41 2 -27 1 -28 -30 -22 -71 15
-268 144 -268 176 0 15 14 11 95 -32z m75 31 c0 -5 -14 -10 -31 -10 -17 0 -28
4 -24 10 3 6 17 10 31 10 13 0 24 -4 24 -10z m380 -35 c-11 -25 -18 -49 -17
-53 1 -4 -8 -8 -19 -10 -18 -3 -23 4 -28 33 -6 33 -9 35 -20 20 -12 -16 -13
-16 -29 0 -24 23 -43 9 -21 -16 9 -10 23 -19 31 -19 7 0 13 -4 13 -8 0 -4 -16
-6 -35 -4 -20 2 -32 8 -29 14 4 6 0 14 -7 19 -8 5 -17 3 -21 -4 -4 -7 -8 -7
-8 -2 1 24 31 48 63 50 19 1 38 4 43 7 5 3 24 4 42 3 17 -2 35 1 38 6 3 5 9 9
14 9 5 0 1 -20 -10 -45z m-1456 12 c17 -13 15 -16 -23 -46 -40 -32 -61 -34
-61 -5 0 14 47 63 61 64 3 0 13 -6 23 -13z m486 8 c0 -2 -18 -14 -40 -25 -44
-23 -56 -9 -12 14 27 15 52 20 52 11z m1126 -42 c29 -27 26 -35 -19 -56 -38
-18 -110 -13 -129 10 -9 11 -9 13 1 11 7 -2 22 15 34 38 21 39 23 40 55 30 18
-5 44 -20 58 -33z m69 37 c3 -5 1 -10 -4 -10 -6 0 -11 5 -11 10 0 6 2 10 4 10
3 0 8 -4 11 -10z m-435 -16 c0 -9 -5 -14 -12 -12 -18 6 -21 28 -4 28 9 0 16
-7 16 -16z m-1072 -31 c28 -3 52 -9 52 -12 0 -3 -19 -14 -42 -23 -28 -13 -45
-15 -53 -8 -10 8 -14 3 -17 -20 -3 -16 -4 -30 -3 -30 1 0 45 23 99 50 60 31
109 50 129 49 18 0 25 -3 17 -6 -8 -4 -20 -14 -27 -23 -7 -10 -26 -20 -43 -23
-17 -4 -29 -12 -28 -19 2 -8 -9 -14 -24 -16 -16 -2 -28 -9 -28 -16 0 -28 -100
-34 -179 -10 -71 21 -75 38 -20 87 38 34 48 38 79 33 19 -4 59 -9 88 -13z
m522 -8 c0 -3 -7 -17 -17 -31 -15 -23 -110 -80 -119 -72 -4 5 117 106 129 107
4 1 7 -1 7 -4z m295 -32 c44 -21 44 -31 3 -35 l-33 -3 55 -42 c31 -23 95 -58
143 -78 84 -36 127 -70 127 -102 0 -18 -30 -14 -98 11 -46 17 -225 156 -262
203 l-22 28 21 3 c12 2 21 10 21 18 0 18 2 18 45 -3z m255 -13 c0 -5 -2 -10
-4 -10 -3 0 -8 5 -11 10 -3 6 -1 10 4 10 6 0 11 -4 11 -10z m-585 -72 c-112
-132 -164 -180 -249 -223 -55 -28 -99 -44 -119 -44 -18 1 -61 -4 -96 -10 -96
-18 -143 -7 -206 48 -61 53 -60 55 20 101 48 27 61 30 144 30 50 0 91 -4 91
-9 0 -13 -147 -99 -181 -106 -16 -4 -29 -10 -29 -15 0 -16 63 -22 156 -15 86
6 114 16 82 28 -16 5 -19 2 72 72 93 72 185 117 221 110 23 -5 30 0 49 30 22
36 62 61 68 44 2 -5 -9 -24 -23 -41z m375 26 c0 -9 -5 -14 -12 -12 -18 6 -21
28 -4 28 9 0 16 -7 16 -16z m716 -1 c7 -10 14 -33 14 -51 0 -31 -1 -32 -22
-21 -13 6 -33 21 -45 32 -22 19 -22 22 -6 39 20 23 42 23 59 1z m-602 -23 c30
-12 60 -27 66 -35 16 -19 3 -19 -30 0 -14 8 -34 14 -45 15 -26 0 -87 40 -63
40 10 0 42 -9 72 -20z m696 5 c0 -9 -14 -42 -30 -75 -25 -49 -39 -64 -78 -84
-81 -41 -149 -56 -253 -56 -80 0 -101 3 -120 19 -34 27 -17 36 42 23 97 -23
174 -10 289 48 80 40 106 63 120 106 12 35 30 46 30 19z m-1972 -15 c8 -13 8
-20 2 -20 -7 0 -8 -14 -4 -37 5 -28 3 -35 -5 -28 -14 13 -27 105 -15 105 5 0
15 -9 22 -20z m176 4 c47 -13 85 -15 169 -10 87 5 107 4 107 -7 0 -16 -79 -31
-105 -21 -8 4 -15 1 -15 -5 0 -17 -67 -13 -95 5 -16 10 -39 15 -63 12 -31 -2
-42 1 -56 19 -20 27 -20 27 58 7z m863 -24 c15 -18 34 -30 49 -30 31 0 77 -29
71 -44 -3 -7 22 -25 54 -41 39 -19 76 -48 108 -85 30 -34 72 -69 105 -86 60
-31 66 -47 22 -52 -23 -3 -27 -8 -24 -30 2 -19 14 -33 40 -47 30 -16 38 -26
38 -48 0 -40 -24 -44 -72 -11 -54 37 -158 137 -158 152 0 17 9 15 44 -11 50
-38 66 -40 66 -11 0 16 -7 27 -22 33 -54 20 -358 301 -358 329 0 19 9 14 37
-18z m-216 -36 c-19 -43 -83 -120 -115 -139 -16 -10 -58 -44 -93 -76 -36 -33
-70 -59 -77 -59 -6 0 -48 -27 -94 -59 l-83 -59 -154 1 c-131 2 -157 5 -172 19
-9 10 -15 20 -12 22 2 3 45 -1 94 -9 53 -8 96 -10 105 -4 10 5 -6 9 -45 9 -71
0 -95 11 -76 34 19 23 87 44 181 56 155 21 254 59 354 138 16 12 32 22 36 22
9 0 90 77 90 87 0 4 12 20 27 35 33 34 53 23 34 -18z m989 25 c0 -5 -4 -9 -10
-9 -5 0 -10 7 -10 16 0 8 5 12 10 9 6 -3 10 -10 10 -16z m-1764 -14 c4 -8 16
-15 29 -15 12 0 28 -7 35 -15 10 -12 10 -15 -4 -15 -8 0 -23 -14 -32 -31 l-16
-32 -21 21 c-16 17 -18 24 -8 36 8 10 9 16 1 21 -13 8 -13 45 0 45 6 0 13 -7
16 -15z m905 5 c16 0 10 -52 -12 -97 -11 -24 -24 -43 -28 -43 -8 0 -31 89 -31
120 0 19 24 31 48 24 8 -2 18 -4 23 -4z m459 -20 c0 -5 -4 -10 -9 -10 -6 0
-13 5 -16 10 -3 6 1 10 9 10 9 0 16 -4 16 -10z m309 -9 c20 -11 43 -26 50 -35
11 -13 5 -17 -39 -30 -46 -14 -55 -14 -91 1 -30 12 -43 13 -52 4 -6 -6 -19
-11 -30 -11 -14 0 -17 5 -12 20 5 15 -3 24 -42 44 l-48 25 113 1 c92 0 120 -4
151 -19z m131 -2 c0 -6 -4 -7 -10 -4 -5 3 -10 11 -10 16 0 6 5 7 10 4 6 -3 10
-11 10 -16z m-1355 -19 c-10 -11 -24 -20 -30 -20 -7 0 -24 -9 -38 -20 -14 -11
-32 -20 -41 -20 -8 0 -23 -14 -33 -30 -10 -17 -23 -28 -30 -26 -6 3 -13 1 -15
-3 -2 -5 -25 -11 -52 -15 -66 -10 -54 5 44 54 44 22 84 49 90 61 7 11 18 18
25 15 7 -2 19 2 25 10 7 8 26 14 43 14 29 0 30 0 12 -20z m507 -4 c6 4 8 -5 6
-22 -2 -17 -8 -28 -15 -26 -7 1 -13 -7 -13 -18 0 -24 -18 -27 -27 -5 -3 9 3
25 13 36 11 12 18 31 17 43 -1 15 0 16 3 3 3 -9 10 -14 16 -11z m458 9 c0 -9
-6 -12 -15 -9 -8 4 -12 10 -9 15 8 14 24 10 24 -6z m65 -35 c3 -5 1 -10 -4
-10 -6 0 -11 5 -11 10 0 6 2 10 4 10 3 0 8 -4 11 -10z m-445 -20 c26 -26 25
-30 -5 -30 -20 0 -25 5 -25 25 0 30 4 31 30 5z m880 -66 c0 -57 -52 -116 -129
-144 -62 -24 -247 -36 -268 -18 -23 19 -14 28 30 28 73 1 177 19 228 41 46 20
119 87 119 109 0 6 5 10 10 10 6 0 10 -12 10 -26z m-963 0 c4 -12 7 -13 14 -3
17 28 18 1 1 -50 -17 -56 -51 -83 -76 -61 -8 6 -16 6 -22 0 -6 -6 -10 11 -12
44 -3 55 5 69 43 79 36 9 46 7 52 -9z m83 6 c0 -5 -6 -10 -14 -10 -8 0 -18 5
-21 10 -3 6 3 10 14 10 12 0 21 -4 21 -10z m787 -37 c-3 -2 -15 1 -28 7 l-22
13 24 13 c22 11 24 11 27 -8 2 -11 1 -22 -1 -25z m-1893 -31 c-6 -30 -30 -41
-28 -14 1 7 2 26 3 44 1 29 3 31 16 17 11 -10 13 -25 9 -47z m1409 39 c2 -10
30 -31 63 -47 48 -23 55 -29 36 -32 -26 -4 -117 50 -133 79 -8 16 -6 19 9 19
11 0 22 -8 25 -19z m457 -17 c0 -2 -9 -4 -20 -4 -11 0 -20 4 -20 9 0 5 9 7 20
4 11 -3 20 -7 20 -9z m-285 -4 c3 -5 1 -10 -4 -10 -6 0 -11 5 -11 10 0 6 2 10
4 10 3 0 8 -4 11 -10z m154 -18 c44 -21 49 -38 16 -46 -26 -7 -60 7 -105 43
l-25 21 40 0 c22 0 55 -8 74 -18z m-1671 -8 c22 -15 22 -17 6 -35 -10 -12 -13
-19 -5 -19 6 0 14 7 17 15 7 18 38 20 51 3 13 -17 -49 -79 -66 -68 -20 11 -41
60 -41 91 0 33 6 35 38 13z m762 -15 c0 -25 -5 -32 -31 -41 -26 -9 -29 -12
-15 -20 20 -11 21 -32 1 -24 -8 3 -15 1 -15 -5 0 -12 -63 -69 -96 -87 -34 -18
-30 -2 14 49 25 30 10 19 -51 -36 -79 -72 -87 -83 -81 -107 4 -22 1 -30 -13
-35 -10 -3 -32 -23 -50 -42 -17 -20 -34 -33 -38 -30 -13 13 44 130 108 221 65
92 97 120 194 168 56 28 73 26 73 -11z m336 12 c41 -19 85 -68 148 -168 32
-52 22 -55 -23 -9 -18 19 -50 42 -71 51 -24 11 -40 25 -42 38 -2 11 -8 22 -15
24 -7 3 -9 -3 -6 -16 4 -16 1 -19 -19 -14 -24 6 -68 41 -68 54 0 5 7 6 15 3
20 -8 19 6 -2 21 -9 7 -13 17 -9 23 10 17 45 14 92 -7z m509 -31 c8 -13 -5
-13 -25 0 -13 8 -13 10 2 10 9 0 20 -4 23 -10z m-635 -96 c0 -58 -14 -84 -46
-84 -14 0 -23 4 -20 9 11 17 -5 39 -24 34 -26 -7 -34 14 -10 27 19 10 19 12 4
35 l-16 24 49 3 c26 2 51 2 56 0 4 -2 7 -23 7 -48z m854 9 c-10 -40 -15 -46
-27 -34 -17 17 -29 13 -22 -9 5 -15 3 -18 -9 -14 -14 5 -32 41 -24 49 5 5 72
33 81 34 4 1 4 -11 1 -26z m76 -14 c0 -49 -145 -162 -186 -144 -10 4 -23 7
-29 6 -5 -1 -46 3 -90 9 -94 13 -136 32 -65 29 108 -5 115 5 33 52 -69 39 -68
38 -61 45 13 13 162 -17 183 -36 12 -11 27 -20 34 -20 7 0 9 -4 6 -10 -3 -5
-17 -10 -30 -10 -13 0 -27 -4 -30 -10 -9 -14 24 -12 79 4 55 17 113 58 128 92
12 26 28 23 28 -7z m-1430 0 c0 -20 -90 -118 -146 -161 -57 -43 -91 -46 -79
-7 4 12 3 19 -1 17 -5 -3 -17 -8 -26 -11 -14 -5 -16 -11 -8 -32 8 -21 7 -25
-9 -25 -11 0 -21 -4 -23 -8 -5 -14 -127 2 -143 18 -13 13 -9 15 30 12 42 -4
63 10 33 21 -24 8 82 72 155 93 39 12 74 20 76 18 3 -2 -6 -16 -20 -30 -13
-14 -17 -23 -8 -19 8 3 39 33 68 65 37 43 59 60 77 60 13 0 24 -5 24 -11z
m712 -25 c20 -7 32 -34 15 -34 -17 0 -57 29 -57 41 0 6 6 8 13 5 6 -3 20 -9
29 -12z m-1234 -22 c15 -10 5 -45 -11 -39 -5 1 -14 13 -18 25 -9 23 4 29 29
14z m114 -53 c27 1 48 -1 48 -5 0 -16 -55 -64 -72 -64 -25 0 -68 44 -68 70 0
18 3 19 22 9 13 -7 44 -11 70 -10z m912 -57 c11 -64 -1 -82 -54 -82 -33 0 -37
3 -33 20 3 12 -1 22 -11 26 -24 9 -19 23 12 36 l27 11 -32 9 c-47 13 -41 26
15 31 67 5 66 6 76 -51z m316 48 c0 -5 -4 -10 -10 -10 -5 0 -10 5 -10 10 0 6
5 10 10 10 6 0 10 -4 10 -10z m-750 -4 c0 -3 -4 -8 -10 -11 -5 -3 -10 -1 -10
4 0 6 5 11 10 11 6 0 10 -2 10 -4z m530 -16 c0 -5 -6 -10 -14 -10 -8 0 -18 5
-21 10 -3 6 3 10 14 10 12 0 21 -4 21 -10z m-1084 -48 c-9 -8 -26 10 -26 26 1
15 2 15 15 -2 8 -11 13 -21 11 -24z m1539 -52 c8 -12 -6 -41 -16 -34 -5 3 -7
9 -5 13 3 4 -18 15 -45 24 -53 19 -93 62 -70 76 12 8 123 -57 136 -79z m-400
69 c11 -17 -1 -21 -15 -4 -8 9 -8 15 -2 15 6 0 14 -5 17 -11z m442 -14 c55
-12 78 -23 93 -42 11 -14 18 -28 16 -31 -3 -2 -28 1 -58 7 -55 12 -125 48
-149 77 -12 15 -12 16 6 11 11 -3 53 -13 92 -22z m-867 5 c0 -5 -4 -10 -10
-10 -5 0 -10 5 -10 10 0 6 5 10 10 10 6 0 10 -4 10 -10z m1080 3 c0 -5 -5 -15
-10 -23 -7 -11 -12 -12 -21 -3 -6 6 -8 16 -5 22 8 12 36 15 36 4z m-1125 -23
c-3 -5 -11 -10 -16 -10 -6 0 -7 5 -4 10 3 6 11 10 16 10 6 0 7 -4 4 -10z m500
0 c3 -5 1 -10 -4 -10 -6 0 -11 5 -11 10 0 6 2 10 4 10 3 0 8 -4 11 -10z m685
-21 c-12 -40 -38 -69 -61 -69 -11 0 -40 -8 -66 -18 -37 -14 -56 -16 -80 -9
-31 9 -46 27 -22 27 8 0 8 4 0 14 -10 11 -4 13 33 9 69 -8 114 4 152 43 43 43
55 43 44 3z m-1490 -9 c0 -11 -9 -29 -20 -40 -11 -11 -20 -29 -20 -39 0 -11
-17 -33 -37 -50 -29 -24 -40 -28 -51 -19 -7 6 -11 20 -9 30 3 10 4 18 3 18 -1
0 -27 -9 -59 -20 -70 -25 -100 -19 -128 27 -22 36 -39 39 -19 4 16 -30 -4 -26
-29 5 -30 39 -28 58 7 50 83 -20 170 -17 271 11 20 5 22 3 16 -16 -10 -33 2
-25 30 19 28 44 45 51 45 20z m270 -10 c0 -5 -4 -10 -9 -10 -6 0 -13 5 -16 10
-3 6 1 10 9 10 9 0 16 -4 16 -10z m354 -46 c3 -9 6 -40 6 -69 0 -53 0 -54 -36
-64 -50 -14 -59 -7 -61 49 -1 43 1 49 20 53 l22 4 -22 8 c-43 14 -24 33 33 34
20 1 34 -5 38 -15z m296 -4 c0 -5 -2 -10 -4 -10 -3 0 -8 5 -11 10 -3 6 -1 10
4 10 6 0 11 -4 11 -10z m-190 -10 c0 -5 -5 -10 -11 -10 -5 0 -7 5 -4 10 3 6 8
10 11 10 2 0 4 -4 4 -10z m235 -10 c3 -5 2 -10 -4 -10 -5 0 -13 5 -16 10 -3 6
-2 10 4 10 5 0 13 -4 16 -10z m189 -35 c50 -46 84 -60 71 -27 -4 9 -10 23 -13
31 -4 10 -1 13 11 8 9 -3 50 -9 92 -13 58 -5 75 -10 75 -22 0 -24 -31 -52 -56
-52 -13 0 -34 -5 -47 -11 -20 -9 -33 -7 -63 7 -53 24 -120 79 -127 104 -8 30
5 25 57 -25z m1230 0 c-4 -8 -8 -15 -10 -15 -2 0 -4 7 -4 15 0 8 4 15 10 15 5
0 7 -7 4 -15z m-2534 -26 c0 -5 -7 -9 -15 -9 -15 0 -20 12 -9 23 8 8 24 -1 24
-14z m2546 -97 c-8 -8 -27 68 -20 80 5 8 11 -3 16 -31 4 -25 6 -46 4 -49z
m-2577 46 c-17 -14 -25 -16 -28 -7 -5 15 28 41 42 32 6 -4 0 -14 -14 -25z
m921 -23 c0 -9 -9 -15 -23 -15 -40 0 -57 -21 -64 -78 -5 -45 -10 -55 -30 -63
-30 -11 -43 -4 -44 24 -1 20 -2 20 -8 -3 -7 -25 -51 -43 -51 -20 0 7 8 9 21 5
20 -7 21 -5 14 16 -4 13 -8 47 -9 74 l-1 50 62 0 c36 0 67 5 74 13 18 17 59
15 59 -3z m-225 -15 c3 -5 1 -10 -4 -10 -6 0 -11 5 -11 10 0 6 2 10 4 10 3 0
8 -4 11 -10z m1925 -24 c0 -3 -4 -8 -10 -11 -5 -3 -10 -1 -10 4 0 6 5 11 10
11 6 0 10 -2 10 -4z m92 -176 c-2 -16 -9 -30 -15 -30 -6 0 -7 3 -4 6 4 4 -5
17 -19 29 -15 13 -22 27 -19 37 6 14 10 14 34 2 23 -11 27 -19 23 -44z m-1987
10 c3 -5 -1 -10 -9 -10 -9 0 -16 5 -16 10 0 6 4 10 9 10 6 0 13 -4 16 -10z
m91 -17 c4 -16 9 -32 12 -38 11 -19 1 -80 -16 -92 -9 -7 -26 -13 -38 -13 -21
0 -22 4 -20 85 l1 85 27 0 c22 0 29 -6 34 -27z m127 -10 c-7 -2 -21 -2 -30 0
-10 3 -4 5 12 5 17 0 24 -2 18 -5z m1657 -12 c0 -18 -31 -41 -53 -40 -16 1
-18 2 -5 6 9 2 20 13 23 24 6 19 35 27 35 10z m-1870 -21 c0 -5 -5 -10 -11
-10 -5 0 -7 5 -4 10 3 6 8 10 11 10 2 0 4 -4 4 -10z m1986 -299 c-48 -151 -80
-292 -120 -536 -54 -323 -60 -382 -61 -632 -1 -164 -4 -246 -12 -254 -7 -7
-29 -9 -60 -4 l-49 6 20 44 c13 28 23 40 28 32 9 -14 9 -15 13 48 4 63 21 196
34 255 5 25 7 113 4 196 -3 104 -2 154 6 158 7 5 11 -3 12 -21 1 -24 2 -22 11
12 5 22 7 59 4 82 -4 31 -2 43 9 47 8 3 15 13 15 21 0 9 -4 13 -10 10 -6 -4
-10 14 -10 46 0 47 2 50 17 38 15 -13 16 -9 9 54 -6 61 -4 74 20 124 19 41 25
67 22 97 -3 22 -3 33 -1 23 3 -9 9 -15 14 -12 13 9 11 53 -3 57 -7 3 -2 12 12
26 19 18 22 27 16 61 -3 23 -2 42 4 46 5 3 10 36 10 73 0 37 5 74 10 82 7 11
9 2 4 -30 -4 -33 -3 -41 5 -30 6 8 11 23 11 32 0 9 5 29 11 45 8 21 12 24 19
13 7 -12 10 -11 17 5 6 15 9 9 11 -25 2 -33 -10 -87 -42 -189z m-1901 147 c0
-9 4 -20 8 -24 4 -4 7 -31 7 -60 0 -45 -3 -52 -22 -58 -41 -10 -48 -7 -48 24
0 17 -7 33 -17 39 -16 9 -16 12 -3 20 12 9 11 13 -8 34 -30 31 -28 35 16 40
56 6 67 3 67 -15z m133 -7 c3 -10 -1 -12 -19 -8 -13 4 -30 7 -36 7 -7 0 -13 4
-13 9 0 15 63 7 68 -8z m-1552 -14 c8 3 14 -1 14 -11 0 -9 -7 -16 -15 -16 -8
0 -15 -9 -15 -19 0 -11 -4 -23 -10 -26 -6 -4 -10 9 -10 33 0 37 11 64 18 43 2
-5 10 -7 18 -4z m134 -57 c0 -24 -26 -46 -33 -28 -3 9 -9 7 -20 -7 -11 -14
-12 -22 -4 -27 6 -4 8 -10 4 -14 -4 -4 -13 -2 -19 4 -9 9 -7 22 9 56 18 36 26
43 42 39 12 -3 21 -13 21 -23z m-96 -85 c33 -26 46 -43 46 -62 0 -29 -13 -27
-66 9 -32 22 -66 72 -56 82 12 12 31 5 76 -29z m1316 19 c0 -2 -7 -4 -15 -4
-8 0 -15 4 -15 10 0 5 7 7 15 4 8 -4 15 -8 15 -10z m-1463 -52 c-12 -2 -16 -9
-12 -19 3 -9 0 -51 -6 -94 -10 -62 -15 -76 -25 -68 -7 6 -16 24 -19 40 -4 17
-13 33 -20 35 -11 4 -11 13 -3 37 13 38 37 69 49 61 5 -3 12 1 15 10 3 9 12
12 22 8 15 -6 15 -7 -1 -10z m1558 -2 c0 -12 -14 -15 -62 -15 -73 0 -89 21
-20 28 65 6 82 3 82 -13z m-1426 -66 c28 -35 26 -50 -7 -83 -21 -21 -33 -51
-50 -122 -12 -52 -22 -110 -22 -130 0 -20 -7 -53 -15 -72 -8 -20 -15 -47 -15
-61 0 -14 -5 -28 -11 -32 -13 -8 -6 46 18 141 8 33 16 80 17 105 1 25 7 55 14
68 8 13 12 47 10 79 -2 46 -6 57 -21 59 -26 4 -29 8 -21 38 4 17 12 25 20 22
7 -3 16 4 19 15 8 23 33 13 64 -27z m1501 34 c0 -7 -4 -19 -9 -26 -6 -10 -10
-7 -13 12 -4 18 -1 26 8 26 8 0 14 -6 14 -12z m-50 -47 c0 -55 -11 -69 -64
-78 -29 -4 -36 -2 -36 10 0 27 42 89 56 83 9 -3 14 2 14 14 0 11 7 20 15 20
11 0 15 -12 15 -49z m270 -11 c7 -16 9 -38 5 -47 -5 -14 -12 -7 -30 32 -12 28
-20 54 -18 58 7 12 29 -10 43 -43z m-645 -4 c11 -8 16 -19 12 -30 -4 -9 2 -32
13 -50 19 -34 19 -34 -3 -49 -19 -12 -20 -17 -8 -31 17 -20 3 -20 -23 -1 -24
18 -50 20 -40 3 4 -6 -3 -4 -17 5 -13 9 -27 17 -32 17 -14 0 4 -21 37 -42 29
-19 25 -20 -18 -2 -13 5 -17 4 -13 -4 4 -6 -1 -12 -10 -14 -13 -2 -8 -9 20
-26 43 -25 47 -26 47 -12 0 6 -6 10 -14 10 -8 0 -17 4 -21 9 -3 6 10 8 32 5
69 -10 70 -12 21 -55 l-47 -39 3 -65 c1 -35 -2 -61 -6 -59 -4 3 -8 18 -8 34 0
31 -20 53 -21 23 0 -16 -1 -16 -8 2 -5 14 -3 24 7 31 14 10 13 13 -6 23 -12 6
-22 19 -22 27 0 12 7 14 33 9 21 -4 27 -3 18 3 -7 5 -11 15 -7 20 4 6 -5 19
-19 28 -17 11 -25 25 -25 46 0 53 15 68 70 68 54 0 61 17 16 38 -27 12 -36 39
-25 70 9 25 36 29 64 8z m-1155 -88 c0 -23 -3 -29 -9 -19 -8 12 -4 51 5 51 2
0 4 -15 4 -32z m1529 -33 c-6 -20 -8 -43 -5 -53 3 -9 1 -24 -4 -32 -7 -11 -10
0 -10 38 0 45 -3 52 -20 52 -14 0 -20 -7 -21 -22 l0 -23 -9 23 c-7 16 -18 22
-42 23 -26 1 -20 4 27 14 96 20 95 21 84 -20z m309 -38 c15 -41 15 -47 2 -47
-5 0 -10 10 -10 22 0 12 -7 30 -17 40 -13 15 -14 18 -2 18 8 0 20 -15 27 -33z
m-258 -4 c0 -22 -2 -25 -10 -13 -13 20 -13 40 0 40 6 0 10 -12 10 -27z m-1663
-67 c-4 -41 -22 -168 -41 -283 -19 -114 -42 -280 -50 -368 -18 -174 -37 -270
-56 -288 -10 -10 -11 -5 -6 23 4 19 11 135 16 257 11 241 30 411 61 543 20 84
61 190 75 190 4 0 4 -33 1 -74z m1238 44 c3 -5 2 -10 -4 -10 -5 0 -13 5 -16
10 -3 6 -2 10 4 10 5 0 13 -4 16 -10z m343 -17 c2 -12 -3 -20 -13 -20 -9 0
-15 9 -15 25 0 29 24 25 28 -5z m902 -13 c20 -38 -28 -58 -66 -28 -18 13 -5
46 20 50 26 5 33 2 46 -22z m-775 9 c10 -15 -1 -22 -24 -14 -12 3 -19 11 -16
16 8 12 32 11 40 -2z m-400 -19 c3 -5 1 -10 -4 -10 -6 0 -11 5 -11 10 0 6 2
10 4 10 3 0 8 -4 11 -10z m635 -70 c0 -36 -24 -67 -71 -90 l-39 -20 0 23 c0
20 4 23 29 19 23 -3 33 2 50 26 13 19 17 33 11 37 -5 3 -10 15 -10 27 0 15 -5
19 -17 14 -15 -5 -14 -3 2 9 18 14 21 14 32 -2 7 -9 13 -28 13 -43z m1455
-108 c-4 -57 -11 -100 -15 -95 -12 11 -16 169 -6 213 22 93 31 37 21 -118z
m-1779 122 c-3 -9 -6 -22 -6 -31 0 -9 -6 -13 -15 -9 -18 6 -19 -7 -4 -36 8
-15 8 -23 0 -31 -15 -15 -37 8 -46 46 -6 21 -4 27 8 27 9 0 19 5 22 11 4 6 1
10 -6 8 -25 -3 -39 1 -39 10 0 5 12 12 28 14 57 9 64 8 58 -9z m-1731 -90 c-4
-31 -13 -74 -21 -96 -8 -22 -13 -54 -13 -72 0 -17 -5 -114 -12 -216 -19 -274
-17 -494 4 -549 19 -48 22 -91 8 -91 -17 0 -100 75 -100 90 -1 8 9 53 20 100
15 61 22 124 24 225 5 244 30 490 52 517 6 7 14 40 18 73 8 61 12 75 22 75 3
0 2 -25 -2 -56z m2110 -47 c20 -16 28 -35 32 -68 5 -43 3 -49 -39 -95 -24 -28
-50 -64 -57 -81 -20 -48 -184 -153 -238 -153 -10 0 -24 4 -32 9 -12 8 -12 12
3 26 16 16 16 19 1 35 -15 16 -14 18 21 24 36 7 36 8 30 47 l-6 39 41 0 41 0
-6 45 c-5 29 -3 45 3 45 6 0 19 17 30 39 21 40 104 109 133 110 9 1 29 -9 43
-22z m239 8 c4 -13 -20 -35 -38 -35 -5 0 -3 28 3 48 3 9 30 -1 35 -13z m-1004
-25 c0 -10 5 -20 12 -22 7 -3 9 -12 5 -22 -5 -13 -11 -15 -27 -6 -20 11 -28
50 -10 50 5 0 6 7 3 17 -4 11 -3 14 5 9 7 -4 12 -16 12 -26z m-45 -54 c28 -13
60 -35 73 -48 19 -21 21 -29 12 -53 -15 -40 -7 -54 39 -61 38 -6 39 -7 34 -44
-5 -35 -4 -37 27 -43 23 -5 31 -11 27 -22 -4 -8 -2 -17 3 -20 17 -10 11 -33
-10 -40 -32 -10 -90 5 -90 24 0 21 -35 53 -113 106 -32 21 -70 54 -84 72 -25
33 -41 107 -30 138 9 22 54 19 112 -9z m-1147 -58 c-1 -29 -4 -57 -7 -63 -3
-5 -6 -35 -7 -66 -1 -31 -6 -64 -12 -75 -10 -18 -11 -18 -18 -1 -11 31 22 257
38 257 4 0 7 -24 6 -52z m3329 -105 c-2 -16 -4 -3 -4 27 0 30 2 43 4 28 2 -16
2 -40 0 -55z m-2451 -99 c51 -34 52 -36 46 -77 -3 -23 -14 -67 -24 -97 -25
-71 -34 -183 -19 -237 12 -44 84 -147 154 -220 68 -72 216 -94 287 -43 33 24
161 198 184 251 9 19 15 27 16 18 0 -25 137 -215 176 -245 43 -33 136 -55 190
-45 79 15 121 51 201 171 16 25 45 67 63 93 31 43 34 53 32 110 -3 89 5 117
31 117 41 0 84 -36 111 -94 30 -63 32 -98 10 -152 -23 -55 -13 -142 31 -288
20 -66 41 -145 46 -175 15 -92 38 -361 54 -621 8 -135 21 -285 28 -335 27
-168 9 -751 -28 -970 -10 -55 -28 -107 -60 -170 -51 -101 -58 -156 -26 -196
26 -34 41 -93 41 -169 0 -36 7 -105 16 -154 25 -135 11 -187 -151 -566 -101
-238 -209 -563 -285 -861 -43 -165 -85 -308 -110 -365 -22 -52 -40 -98 -40
-103 0 -5 -21 -33 -46 -63 -62 -71 -84 -120 -84 -190 0 -45 5 -63 20 -78 11
-11 25 -20 30 -20 6 0 10 -9 10 -20 0 -12 -15 -29 -39 -45 -22 -13 -48 -38
-57 -55 -10 -16 -22 -30 -26 -30 -11 0 -73 117 -107 200 -44 112 -84 396 -101
726 -24 468 -34 584 -67 779 -23 135 -25 167 -19 315 4 103 12 188 22 225 19
69 29 508 13 561 -6 18 -40 60 -82 100 -62 58 -81 85 -125 174 -66 136 -121
282 -166 445 -37 135 -119 567 -136 715 -26 238 -61 769 -65 995 l-2 150 -37
72 c-28 57 -36 84 -36 127 0 57 7 67 54 83 32 10 47 33 22 33 -9 0 -16 5 -16
11 0 7 -12 23 -26 36 -22 20 -24 26 -13 39 11 13 7 21 -27 49 -21 19 -42 34
-46 35 -20 1 -4 32 29 59 50 41 85 40 149 -5z m1114 6 c0 -5 -5 -10 -11 -10
-5 0 -7 5 -4 10 3 6 8 10 11 10 2 0 4 -4 4 -10z m-40 -20 c0 -11 -4 -20 -9
-20 -7 0 -8 17 -2 38 4 10 11 -2 11 -18z m1360 -65 c0 -8 -4 -15 -10 -15 -5 0
-10 7 -10 15 0 8 5 15 10 15 6 0 10 -7 10 -15z m-2755 -32 c-16 -39 -14 -62
15 -143 17 -47 34 -96 38 -110 8 -29 71 -120 84 -120 14 0 9 28 -8 45 -9 9
-29 57 -43 108 -15 51 -33 103 -40 116 -17 31 -17 91 1 102 19 13 81 11 73 -2
-4 -6 0 -9 11 -7 12 2 20 -5 24 -22 3 -14 12 -25 19 -25 22 0 23 -44 2 -74
-31 -44 -22 -102 32 -211 49 -97 60 -159 35 -193 -11 -13 -20 -15 -51 -8 -37
9 -39 8 -32 -12 4 -12 12 -41 17 -64 9 -34 14 -40 25 -32 10 9 13 8 14 -2 4
-49 10 -149 18 -319 22 -462 55 -760 97 -866 25 -63 31 -90 14 -64 -8 12 -10
11 -10 -6 0 -53 66 -343 106 -467 15 -46 23 -88 20 -102 -3 -13 3 -63 14 -111
11 -48 18 -89 16 -91 -7 -8 -23 30 -30 72 -13 79 -18 95 -27 95 -5 0 -9 -8 -9
-17 0 -12 -3 -14 -11 -6 -5 5 -16 50 -24 99 -14 90 -36 166 -56 191 -9 10 -8
13 5 13 20 0 20 10 1 47 -8 15 -17 41 -20 56 -3 15 -10 25 -15 22 -6 -4 -10
20 -10 60 0 37 -4 75 -10 85 -5 10 -14 60 -20 111 -15 145 -20 166 -41 190
-14 17 -17 31 -13 61 5 31 3 42 -12 54 -11 9 -14 13 -7 10 21 -11 24 13 3 34
-13 13 -20 33 -20 58 0 27 3 33 10 22 8 -12 10 -9 10 12 0 38 -10 58 -26 51
-11 -4 -14 6 -14 49 0 30 5 59 12 66 9 9 9 12 -4 12 -23 0 -35 110 -14 126 9
6 13 14 9 18 -4 3 -5 31 -4 61 2 35 -2 55 -9 55 -7 0 -9 18 -6 54 4 40 2 57
-9 66 -17 14 -21 55 -5 45 6 -3 10 1 10 9 0 9 -4 16 -10 16 -5 0 -10 11 -10
24 0 13 -6 29 -14 35 -11 9 -12 19 -4 44 13 41 11 79 -4 88 -6 4 -13 33 -16
66 -3 41 -11 65 -26 83 -32 36 -47 77 -40 107 6 21 4 25 -9 20 -8 -3 -22 2
-30 11 -28 31 -66 132 -65 170 1 20 -2 45 -6 55 -7 14 -4 20 13 24 11 3 21 10
21 15 0 19 36 57 54 58 13 0 16 -4 11 -17z m1420 -33 c-3 -5 -11 -10 -16 -10
-6 0 -7 5 -4 10 3 6 11 10 16 10 6 0 7 -4 4 -10z m30 -10 c-3 -5 -11 -10 -16
-10 -6 0 -7 5 -4 10 3 6 11 10 16 10 6 0 7 -4 4 -10z m-791 -31 c43 -20 61
-80 58 -194 -2 -55 -4 -137 -5 -182 -1 -44 -5 -79 -9 -76 -5 2 -8 19 -8 38 0
49 -9 64 -45 80 -57 23 -69 53 -76 194 -4 77 -2 131 4 139 12 15 48 16 81 1z
m722 -44 c3 -14 3 -37 0 -51 -4 -16 0 -46 10 -73 16 -46 16 -49 -5 -92 -34
-73 -56 -109 -64 -109 -13 0 -81 80 -98 115 -12 26 -13 50 -8 107 4 40 12 85
18 101 10 26 14 27 76 27 61 0 65 -2 71 -25z m494 -35 c6 -11 9 -20 7 -20 -2
0 -12 9 -22 20 -10 11 -13 20 -7 20 6 0 16 -9 22 -20z m-980 -4 c0 -8 -7 -16
-15 -20 -12 -4 -13 -2 -2 14 14 24 17 25 17 6z m1830 -57 c0 -72 -13 -86 -24
-26 -5 29 9 97 20 97 2 0 4 -32 4 -71z m-1911 -39 c5 0 15 17 24 38 l15 37 1
-34 c1 -27 4 -32 13 -23 28 28 38 13 36 -50 l-1 -63 -6 55 c-4 38 -8 49 -13
37 -5 -10 -8 -28 -8 -38 0 -11 -4 -18 -9 -14 -6 3 -12 -12 -14 -32 l-4 -38 -1
42 c-1 23 -7 45 -13 49 -9 5 -10 -4 -5 -31 5 -25 4 -35 -3 -30 -6 3 -12 21
-12 38 -2 30 -2 30 -9 -8 -5 -29 -7 -16 -7 50 0 50 2 73 4 53 2 -21 8 -38 12
-38z m119 -25 l0 -50 -9 40 c-4 22 -8 56 -7 75 0 32 1 33 8 10 4 -14 8 -47 8
-75z m118 -13 c3 -29 10 -50 15 -47 5 4 8 -11 8 -32 -2 -29 -3 -32 -6 -11 -3
18 -9 25 -19 21 -12 -4 -14 11 -13 88 1 52 4 81 6 64 1 -16 6 -54 9 -83z
m-271 20 c-5 -20 -8 -22 -20 -12 -18 15 -19 56 -2 74 10 11 13 9 20 -13 4 -14
5 -37 2 -49z m343 8 c0 -9 -3 -7 -8 5 -5 11 -8 29 -8 40 0 16 2 15 8 -5 4 -14
8 -32 8 -40z m314 18 c-7 -7 -12 -8 -12 -2 0 14 12 26 19 19 2 -3 -1 -11 -7
-17z m-1042 -45 c0 -57 0 -57 -15 -30 -8 15 -12 34 -10 42 3 8 7 22 10 30 9
30 15 14 15 -42z m625 48 c3 -5 1 -12 -5 -16 -5 -3 -10 1 -10 9 0 18 6 21 15
7z m-589 -67 c10 17 12 16 32 -9 13 -16 22 -42 22 -61 0 -24 5 -34 15 -34 20
0 19 -30 -2 -45 -14 -11 -20 -9 -35 10 -10 13 -18 40 -19 62 0 36 -1 37 -11
13 l-11 -25 -7 30 c-4 17 -8 46 -8 65 0 35 0 35 7 5 6 -27 8 -28 17 -11z m741
-1 c-3 -10 -5 -4 -5 12 0 17 2 24 5 18 2 -7 2 -21 0 -30z m-637 6 c0 -5 -4 -9
-10 -9 -5 0 -10 7 -10 16 0 8 5 12 10 9 6 -3 10 -10 10 -16z m901 -94 c-8 -38
-9 -36 -10 31 -1 39 2 74 7 78 11 12 14 -64 3 -109z m106 68 c-3 -10 -5 -2 -5
17 0 19 2 27 5 18 2 -10 2 -26 0 -35z m-56 23 c12 7 11 -67 -1 -86 -7 -11 -8
-5 -3 19 4 25 3 32 -5 27 -7 -4 -12 -19 -13 -34 0 -15 -5 -36 -10 -47 -6 -14
-7 -4 -3 30 8 73 16 112 21 97 3 -6 9 -10 14 -6z m-467 -11 c3 -8 1 -15 -4
-15 -6 0 -10 7 -10 15 0 8 2 15 4 15 2 0 6 -7 10 -15z m-257 -95 c4 -10 8 -6
13 15 6 25 8 21 9 -24 1 -44 -1 -51 -12 -42 -8 6 -17 8 -20 4 -4 -3 -6 27 -5
68 1 41 3 56 5 34 2 -22 6 -47 10 -55z m1982 41 c13 -39 8 -49 -14 -31 -8 7
-15 28 -15 48 0 41 12 34 29 -17z m-2204 -47 c4 -36 4 -68 1 -71 -3 -4 -6 5
-6 19 0 14 -7 45 -15 68 -18 52 -18 50 -1 50 9 0 16 -20 21 -66z m26 -19 c-8
-25 -9 -21 -9 30 0 50 1 55 9 30 5 -17 5 -42 0 -60z m588 3 c-1 -47 -3 -57 -9
-38 -12 36 -12 100 0 100 6 0 10 -27 9 -62z m247 -8 c-8 -32 -14 -45 -15 -30
-1 29 20 110 25 95 2 -5 -3 -35 -10 -65z m-679 -7 c-3 -10 -5 -2 -5 17 0 19 2
27 5 18 2 -10 2 -26 0 -35z m644 -34 l-9 -34 -1 46 c-1 25 2 49 7 53 12 12 14
-29 3 -65z m1320 26 c14 -10 11 -52 -6 -58 -27 -11 -94 38 -95 69 0 11 79 2
101 -11z m-2062 -48 c-1 -45 -2 -48 -9 -22 -11 45 -11 87 0 80 6 -3 9 -30 9
-58z m55 -2 c4 -38 3 -56 -3 -50 -8 8 -15 76 -12 109 2 22 9 -3 15 -59z m623
8 c-3 -10 -5 -2 -5 17 0 19 2 27 5 18 2 -10 2 -26 0 -35z m30 -20 c-3 -10 -5
-2 -5 17 0 19 2 27 5 18 2 -10 2 -26 0 -35z m1408 6 c4 -17 4 -51 0 -76 l-7
-46 -25 25 -25 25 18 56 c19 60 29 64 39 16z m-191 -21 c12 -33 1 -75 -24 -88
-17 -9 -25 -5 -50 22 -38 42 -41 77 -5 70 14 -2 25 -8 25 -13 0 -5 5 -9 10 -9
6 0 10 12 10 26 0 32 21 27 34 -8z m-3369 -8 c3 -5 1 -19 -5 -30 -8 -15 -15
-18 -28 -11 -9 5 -26 12 -36 16 -22 6 -12 20 19 28 34 8 44 7 50 -3z m90 -20
c22 -8 26 -15 23 -42 -2 -27 -8 -34 -29 -36 -14 -2 -36 5 -50 16 -22 18 -22
22 -10 46 16 28 26 31 66 16z m3201 -85 c-5 -13 -13 -15 -34 -10 -39 9 -44 18
-37 57 l7 35 35 -32 c25 -23 34 -38 29 -50z m317 64 c8 -30 -4 -90 -17 -86
-21 7 -19 107 3 107 5 0 11 -9 14 -21z m-180 -53 c5 -21 16 -40 23 -43 26 -10
14 -23 -21 -23 -28 0 -35 4 -35 20 0 11 -4 20 -10 20 -14 0 -12 44 2 58 19 19
32 9 41 -32z m-3475 -19 l3 -47 -51 20 c-28 11 -54 20 -57 20 -12 0 12 20 48
40 19 10 39 18 44 16 6 -1 11 -24 13 -49z m3572 20 c22 -17 29 -31 29 -59 1
-40 -7 -45 -40 -28 -13 7 -19 21 -19 44 0 19 -7 39 -15 46 -8 7 -15 17 -15 22
0 13 26 3 60 -25z m-3270 -26 c23 -44 8 -78 -30 -66 -15 5 -20 15 -20 40 0 30
9 42 32 44 4 1 12 -8 18 -18z m-187 -17 l45 -6 -20 -59 c-21 -63 -38 -69 -38
-13 0 29 -5 37 -35 51 -61 29 -44 39 48 27z m3147 -13 c0 -11 -11 -33 -25 -49
-13 -16 -29 -41 -35 -56 -12 -33 -30 -30 -43 8 -8 25 -5 32 34 71 48 47 69 55
69 26z m110 -48 c5 -188 2 -216 -26 -278 -20 -46 -27 -77 -28 -135 -1 -63 -7
-88 -37 -155 -20 -44 -42 -95 -49 -113 -14 -36 -134 -175 -156 -180 -10 -3
-14 6 -14 30 0 18 -5 122 -10 231 -11 219 -8 237 50 303 18 21 30 46 30 63 0
16 7 34 16 42 8 7 22 26 31 43 9 17 22 35 29 39 8 4 14 16 14 26 0 28 57 110
92 131 52 31 57 27 58 -47z m-3430 32 c17 -9 30 -20 30 -25 0 -15 -23 -60 -30
-60 -12 0 -49 45 -59 73 -9 24 -8 27 10 27 11 0 33 -7 49 -15z m323 -49 c36
-22 35 -61 -3 -61 -18 0 -30 10 -47 40 -12 22 -23 51 -23 65 l0 25 23 -26 c12
-14 35 -34 50 -43z m3377 44 c12 -22 3 -73 -11 -64 -9 5 -13 84 -4 84 2 0 9
-9 15 -20z m-3584 -15 c4 -8 1 -22 -6 -30 -6 -8 -9 -19 -5 -25 3 -5 2 -10 -3
-10 -16 0 -31 45 -20 63 11 21 27 22 34 2z m3446 -25 c4 -23 -1 -33 -18 -45
-31 -20 -30 -20 -48 17 -25 49 -21 58 23 58 35 0 39 -3 43 -30z m68 -35 c0
-12 -7 -40 -16 -61 -13 -30 -53 -237 -54 -276 0 -13 -27 -9 -38 5 -8 9 -8 29
-1 68 5 30 12 77 16 104 4 31 13 55 23 62 10 7 20 27 23 45 16 92 19 99 33 87
8 -6 14 -22 14 -34z m-3679 -6 c21 -21 21 -21 1 -41 -21 -22 -50 -19 -78 9
-14 14 -13 17 13 34 35 24 38 24 64 -2z m3727 -37 c2 -11 -8 -57 -22 -100 -14
-44 -28 -114 -32 -156 -4 -42 -10 -79 -14 -81 -37 -23 -26 149 17 283 26 79
44 99 51 54z m-3557 -2 c17 0 9 -47 -11 -65 -18 -17 -21 -17 -45 -1 -14 9 -25
23 -25 31 0 8 0 18 -1 23 0 9 42 21 59 16 8 -2 18 -4 23 -4z m3090 0 c21 -12
27 -52 6 -44 -14 5 -57 -74 -57 -106 0 -24 -25 -27 -34 -4 -7 18 -4 25 40 79
24 29 30 45 24 55 -19 30 -11 37 21 20z m287 -6 c20 12 22 -50 4 -137 -17 -79
-41 -127 -64 -127 -14 0 -9 67 7 80 11 9 15 33 15 84 0 80 9 124 20 106 4 -7
12 -10 18 -6z m-3486 -6 c9 -24 -4 -38 -35 -38 l-30 0 23 25 c26 28 36 31 42
13z m216 -10 c17 -17 15 -67 -3 -74 -24 -9 -65 23 -65 50 0 34 43 49 68 24z
m-377 -74 c-15 -34 -20 -28 -14 14 4 23 9 30 16 23 7 -7 7 -18 -2 -37z m29
-41 c0 -20 -3 -24 -11 -16 -7 7 -9 19 -6 27 10 24 17 19 17 -11z m202 15 c21
-18 11 -122 -11 -109 -16 10 -29 121 -14 121 5 0 16 -6 25 -12z m223 -59 c8
-46 1 -59 -31 -59 -21 0 -24 4 -24 39 0 22 5 52 11 68 10 26 11 27 24 10 7
-11 16 -36 20 -58z m-285 -6 c0 -36 0 -36 -24 -27 -17 6 -21 48 -9 80 6 16 7
16 20 -2 7 -10 13 -33 13 -51z m139 -26 c1 -24 -3 -28 -21 -25 -19 2 -24 10
-26 40 -2 20 2 47 9 60 12 23 12 22 25 -12 7 -19 13 -48 13 -63z m-203 51 c-7
-37 -11 -42 -25 -33 -15 8 -14 38 1 53 21 21 31 13 24 -20z m281 -19 c3 -53
-11 -83 -27 -59 -11 17 -13 70 -4 95 12 29 29 9 31 -36z m-425 4 c6 -46 5 -47
-20 -34 -29 15 -35 41 -15 57 27 20 30 17 35 -23z m3308 -19 c0 -14 -3 -14
-15 -4 -8 7 -15 14 -15 16 0 2 7 4 15 4 8 0 15 -7 15 -16z m-3350 -44 c0 -10
-9 -24 -19 -30 -28 -14 -33 -13 -22 8 7 13 6 23 -1 30 -9 9 -5 12 15 12 20 0
27 -5 27 -20z m172 -61 c2 -45 0 -83 -5 -86 -4 -2 -16 -1 -27 2 -27 9 -25 61
5 153 12 34 24 3 27 -69z m3148 47 c0 -22 -11 -46 -21 -46 -10 0 -12 43 -2 53
11 12 23 8 23 -7z m-2695 -29 c22 -41 17 -71 -12 -75 -17 -3 -24 3 -28 25 -4
15 -8 34 -11 41 -5 18 6 42 20 42 7 0 21 -15 31 -33z m3085 -28 c0 -6 -16 -44
-36 -86 -20 -41 -38 -92 -41 -114 -6 -44 -13 -52 -37 -43 -23 9 -20 20 15 69
22 31 29 49 24 65 -4 14 -1 28 10 40 12 14 16 29 12 50 -6 28 -5 30 23 30 17
0 30 -5 30 -11z m58 -36 c2 -15 -4 -22 -22 -27 -24 -6 -26 -11 -26 -56 0 -39
-4 -52 -22 -64 -33 -24 -42 -5 -26 52 16 52 66 124 83 119 6 -2 11 -13 13 -24z
m-3858 -8 c0 -8 -4 -15 -10 -15 -5 0 -7 7 -4 15 4 8 8 15 10 15 2 0 4 -7 4
-15z m3908 -22 c2 -11 -8 -37 -21 -57 -14 -20 -30 -59 -37 -88 -13 -58 -34
-98 -52 -98 -18 0 -2 65 41 159 23 48 41 93 41 100 0 21 25 6 28 -16z m26 -60
c-9 -21 -28 -66 -41 -100 -14 -35 -29 -63 -33 -63 -12 0 23 109 51 158 30 52
45 55 23 5z m-3533 -9 c12 -33 7 -39 -20 -25 -18 10 -19 14 -8 31 15 25 16 25
28 -6z m2894 -56 c6 -61 -8 -31 -18 42 -5 33 -4 41 3 28 6 -10 13 -42 15 -70z
m-3389 36 c-4 -9 -9 -15 -11 -12 -3 3 -3 13 1 22 4 9 9 15 11 12 3 -3 3 -13
-1 -22z m663 -96 c16 -68 15 -90 -6 -86 -14 2 -19 17 -23 66 -8 98 7 109 29
20z m3190 -30 c1 -19 -24 -25 -34 -9 -3 5 0 22 7 36 11 24 13 25 19 8 4 -10 8
-26 8 -35z m-98 -31 c-8 -8 -11 -7 -11 4 0 20 13 34 18 19 3 -7 -1 -17 -7 -23z
m122 -21 c5 -12 -41 -84 -93 -146 l-21 -25 5 35 c4 19 17 46 30 60 13 14 31
40 40 58 18 34 31 40 39 18z m-63 -7 c0 -16 -20 -49 -29 -49 -5 0 -4 14 2 30
11 29 27 41 27 19z m-3155 -40 c-8 -12 -35 -12 -35 0 0 11 22 20 33 14 4 -2 5
-9 2 -14z m2744 -16 c-1 -34 -2 -35 -9 -13 -11 36 -11 50 0 50 6 0 10 -17 9
-37z m-3071 -4 c-2 -6 -8 -10 -13 -10 -5 0 -11 4 -13 10 -2 6 4 11 13 11 9 0
15 -5 13 -11z m3352 -4 c0 -8 -9 -15 -20 -15 -22 0 -27 15 -7 23 21 9 27 7 27
-8z m-3180 -15 c0 -5 -4 -10 -9 -10 -6 0 -13 5 -16 10 -3 6 1 10 9 10 9 0 16
-4 16 -10z m1137 -47 c-3 -10 -5 -2 -5 17 0 19 2 27 5 18 2 -10 2 -26 0 -35z
m2003 27 c0 -5 -4 -10 -10 -10 -5 0 -10 5 -10 10 0 6 5 10 10 10 6 0 10 -4 10
-10z m103 -20 c-5 -20 -21 -36 -28 -28 -5 4 23 48 30 48 2 0 1 -9 -2 -20z
m-3415 -83 c2 -29 5 -77 8 -107 3 -41 2 -51 -6 -38 -14 23 -34 172 -26 194 10
27 20 8 24 -49z m3260 41 c-17 -25 -38 -35 -38 -17 0 12 29 38 44 39 5 0 2
-10 -6 -22z m-3085 -15 c2 -5 7 -25 11 -45 5 -29 4 -38 -7 -38 -13 0 -27 40
-27 76 0 15 16 19 23 7z m2897 -14 c0 -11 -4 -17 -10 -14 -5 3 -10 13 -10 21
0 8 5 14 10 14 6 0 10 -9 10 -21z m294 5 c4 -10 -3 -23 -16 -34 -29 -23 -34
-18 -18 20 14 33 25 38 34 14z m-2137 -76 c-3 -7 -5 -2 -5 12 0 14 2 19 5 13
2 -7 2 -19 0 -25z m-895 -25 c-10 -28 -10 -28 -11 12 -1 28 2 36 10 28 8 -8 8
-19 1 -40z m2972 22 c-4 -8 -11 -15 -16 -15 -6 0 -5 6 2 15 7 8 14 15 16 15 2
0 1 -7 -2 -15z m-3120 -89 c1 -25 1 -46 0 -46 -12 0 -24 47 -19 71 9 40 16 31
19 -25z m2903 -403 c-2 -16 -4 -5 -4 22 0 28 2 40 4 28 2 -13 2 -35 0 -50z
m33 -83 c0 -5 -7 -10 -16 -10 -8 0 -12 5 -9 10 3 6 10 10 16 10 5 0 9 -4 9
-10z m-1608 -247 c-5 -38 -14 -31 -26 19 -5 22 -3 25 12 21 14 -3 17 -12 14
-40z m-115 -5 c-3 -8 -6 -5 -6 6 -1 11 2 17 5 13 3 -3 4 -12 1 -19z m126 -68
c-3 -11 -7 -20 -9 -20 -2 0 -4 9 -4 20 0 11 4 20 9 20 5 0 7 -9 4 -20z m80
-226 c12 -12 8 25 -9 83 -25 85 -10 73 21 -17 27 -77 37 -91 50 -70 10 17 37
-2 31 -22 -5 -23 2 -48 15 -48 4 0 6 7 3 15 -4 8 -2 15 4 15 11 0 22 -23 22
-46 0 -9 -4 -12 -10 -9 -6 4 -7 -2 -1 -17 5 -13 12 -54 16 -91 6 -55 10 -65
21 -56 22 18 36 1 19 -24 -19 -29 -32 -113 -17 -103 7 4 12 3 12 -2 0 -5 -9
-12 -21 -15 -19 -5 -21 -2 -17 29 2 19 1 34 -3 34 -9 0 -19 -27 -19 -51 0 -10
-4 -19 -9 -19 -18 0 -23 42 -16 128 6 81 5 90 -17 122 -17 26 -38 40 -81 55
-56 19 -57 19 -71 0 -20 -28 -27 -16 -31 52 -1 32 -1 45 2 28 5 -31 23 -60 23
-36 0 11 3 11 15 1 9 -8 15 -8 15 -2 0 13 -18 155 -26 201 -5 32 -4 34 11 21
15 -13 16 -10 11 26 -3 21 7 -9 22 -68 15 -59 31 -110 35 -114z m-96 134 c-3
-8 -6 -5 -6 6 -1 11 2 17 5 13 3 -3 4 -12 1 -19z m16 -126 c3 -24 1 -40 -4
-36 -5 3 -9 24 -9 46 0 51 5 47 13 -10z m1811 -35 c16 -11 17 -22 11 -65 -4
-29 -11 -52 -16 -52 -5 0 -9 6 -9 13 0 8 -4 7 -10 -3 -7 -11 -10 -11 -10 -2 0
30 -18 -1 -26 -45 l-8 -48 -6 35 -6 35 -8 -34 c-6 -23 -4 -36 4 -41 9 -6 9
-13 2 -26 -10 -18 -11 -18 -19 1 -12 29 -8 134 6 177 12 36 43 68 66 68 6 0
19 -6 29 -13z m-154 -37 c0 -20 -5 -30 -15 -30 -18 0 -18 2 -3 35 15 32 18 32
18 -5z m21 -3 c-10 -9 -11 -8 -5 6 3 10 9 15 12 12 3 -3 0 -11 -7 -18z m-1565
-122 c21 -16 34 -35 34 -48 0 -16 -3 -18 -9 -9 -11 17 -21 -7 -21 -48 0 -38
-35 -60 -57 -37 -14 13 -13 16 6 26 12 7 26 9 31 6 6 -4 10 7 10 24 0 20 -6
32 -19 36 -10 3 -26 14 -36 25 -12 13 -31 20 -57 20 -42 0 -44 14 -4 31 32 14
84 3 122 -26z m1632 -115 l52 0 0 -33 c0 -25 -12 -49 -50 -96 -27 -34 -50 -66
-50 -71 0 -5 -13 -24 -29 -42 -15 -18 -35 -46 -44 -63 -16 -29 -17 -29 -23 -7
-3 12 -10 22 -14 22 -4 0 -24 16 -44 36 -27 26 -34 40 -27 47 6 6 11 24 11 39
0 15 5 28 10 28 6 0 10 -5 10 -11 0 -5 4 -8 9 -5 4 3 14 40 20 82 12 72 14 75
36 70 13 -3 27 -1 31 5 3 6 16 8 28 5 11 -3 45 -6 74 -6z m-1549 -136 c74 -15
-4 -39 -89 -28 -41 5 -48 9 -39 20 12 15 75 18 128 8z m91 -66 c0 -28 -1 -30
-13 -14 -12 16 -14 16 -26 -7 -8 -14 -19 -23 -26 -21 -7 3 -16 -5 -20 -18 -8
-23 -8 -22 -12 5 -7 45 -24 31 -17 -15 10 -77 15 -93 23 -79 6 10 10 9 14 -3
8 -20 34 -21 39 -1 2 10 7 12 18 5 12 -7 12 -12 -4 -29 -11 -12 -25 -21 -33
-21 -8 0 -13 -11 -13 -27 0 -21 -3 -24 -10 -13 -17 27 -21 3 -11 -56 6 -31 9
-59 6 -62 -2 -2 -7 9 -10 24 -3 16 -11 43 -17 59 -6 17 -12 76 -12 133 -1 90
-4 105 -20 118 -17 12 -21 11 -32 -4 -13 -16 -13 -16 -14 1 0 9 -4 17 -10 17
-5 0 -8 -6 -6 -12 11 -36 16 -99 7 -93 -6 3 -13 28 -17 55 -6 47 -18 64 -26
39 -2 -6 -9 1 -16 16 l-13 28 98 -6 c78 -5 140 -1 171 12 1 1 2 -13 2 -31z
m-283 -20 c-3 -8 -6 -5 -6 6 -1 11 2 17 5 13 3 -3 4 -12 1 -19z m1419 -530
c-19 -46 -43 -116 -55 -155 -12 -39 -40 -110 -62 -159 -59 -127 -148 -403
-216 -669 l-58 -230 1 -149 c0 -106 4 -151 12 -154 16 -5 15 -23 -4 -61 -12
-24 -21 -31 -36 -28 -13 4 -22 -1 -29 -16 -7 -17 -8 -15 -3 12 4 23 3 31 -5
27 -6 -4 -11 -13 -11 -21 0 -8 -5 -17 -11 -21 -8 -4 -9 3 -4 25 4 19 3 31 -4
31 -18 0 -23 83 -8 128 8 24 13 52 10 62 -3 11 2 38 11 60 9 22 15 44 14 48
-1 4 5 21 13 37 25 47 41 125 30 139 -12 14 -3 86 10 86 5 0 6 -8 2 -17 -4
-14 -3 -15 6 -7 16 15 28 90 13 80 -20 -12 -13 13 10 36 15 15 23 38 26 75 3
36 9 53 18 53 8 0 14 11 14 26 0 14 11 59 25 100 28 84 29 88 15 79 -13 -8
-13 -5 4 42 8 22 13 48 13 58 -1 10 4 20 11 22 14 6 16 -16 2 -51 -5 -14 -6
-26 -1 -26 14 0 51 124 39 131 -20 13 45 189 69 189 10 0 12 -6 8 -21 -5 -15
-4 -19 4 -14 7 4 11 14 9 23 -1 10 5 28 14 41 21 30 17 37 -11 21 -26 -13 -26
-9 -2 19 10 12 25 19 32 16 10 -3 23 16 42 60 15 35 27 72 27 81 0 18 40 88
46 81 2 -2 -11 -42 -30 -89z m36 -165 c-44 -131 -85 -251 -92 -268 l-12 -30
-23 29 c-18 22 -21 35 -15 61 11 50 53 134 67 135 7 0 15 12 19 28 16 72 36
125 80 212 26 52 49 89 52 82 2 -6 -32 -119 -76 -249z m-1409 125 c15 -62 34
-171 42 -243 25 -216 47 -477 41 -483 -3 -3 -6 -1 -6 4 0 5 -14 86 -30 179
-22 125 -90 616 -90 651 0 2 4 4 8 4 5 0 20 -51 35 -112z m-63 88 c0 -3 -4 -8
-10 -11 -5 -3 -10 -1 -10 4 0 6 5 11 10 11 6 0 10 -2 10 -4z m227 -83 c-3 -10
-5 -2 -5 17 0 19 2 27 5 18 2 -10 2 -26 0 -35z m30 -30 c-3 -10 -5 -4 -5 12 0
17 2 24 5 18 2 -7 2 -21 0 -30z m1119 -7 c-8 -20 -18 -36 -21 -36 -3 0 2 16
10 36 8 20 15 39 15 42 0 3 3 3 6 0 3 -3 -2 -22 -10 -42z m-1102 -95 c3 -14
10 -61 16 -105 5 -43 17 -108 26 -145 8 -36 19 -124 24 -196 6 -71 17 -204 26
-295 10 -102 13 -195 9 -243 -6 -69 -4 -80 12 -93 12 -9 14 -13 4 -14 -11 0
-12 -15 -7 -72 7 -83 -5 -122 -24 -73 -6 16 -8 47 -5 70 4 27 3 35 -3 26 -7
-10 -12 5 -16 50 -3 35 -10 105 -14 154 -5 50 -6 99 -2 109 4 11 0 32 -8 48
-11 24 -12 35 -2 59 10 23 10 32 -1 46 -11 13 -11 17 -1 20 6 3 12 9 12 14 0
4 -6 6 -14 3 -18 -7 -29 72 -31 226 -1 63 -9 176 -18 250 -21 169 -21 187 -2
187 8 0 16 -12 19 -26z m1073 -338 c-9 -9 -19 -14 -23 -11 -10 10 6 28 24 28
15 0 15 -1 -1 -17z m-57 -97 c0 -11 -19 -15 -25 -6 -3 5 1 10 9 10 9 0 16 -2
16 -4z m-874 -923 c8 -17 14 -40 14 -51 0 -41 41 -150 85 -224 45 -77 62 -145
30 -118 -13 11 -15 7 -15 -27 0 -42 -17 -103 -28 -103 -4 1 -18 7 -31 14 -22
12 -25 20 -23 67 1 39 -1 49 -8 34 -5 -11 -9 -32 -9 -47 -1 -26 -4 -28 -41
-28 -23 0 -40 5 -40 11 0 6 9 9 20 6 18 -5 20 0 20 43 0 26 3 69 6 96 5 46 4
48 -10 30 -12 -15 -16 -16 -17 -5 -1 8 -4 1 -8 -15 -3 -16 -12 -31 -19 -34 -9
-3 -10 3 -2 23 5 14 10 40 10 58 0 18 2 50 5 72 2 22 8 83 13 135 5 52 13 104
18 115 l8 20 4 -20 c2 -11 10 -34 18 -52z m605 -182 c16 -16 29 -34 29 -39 0
-12 -48 -22 -102 -22 -34 0 -39 2 -29 14 9 11 10 20 1 36 -15 28 -5 40 36 40
26 0 44 -8 65 -29z m-121 -2 c0 -6 -4 -7 -10 -4 -5 3 -10 11 -10 16 0 6 5 7
10 4 6 -3 10 -11 10 -16z m184 -85 c25 -10 19 -18 -31 -39 -26 -11 -51 -21
-55 -23 -4 -2 -8 6 -8 17 0 14 -6 21 -19 21 -22 0 -36 26 -18 34 14 6 107 -1
131 -10z m53 -45 c29 -11 83 -57 83 -71 0 -4 -19 -17 -41 -29 -46 -23 -63 -14
-53 27 7 27 -3 34 -55 36 -34 1 -39 4 -29 16 11 13 43 30 60 31 4 1 19 -4 35
-10z m-766 -132 c-13 -13 -15 14 -3 64 l7 34 3 -44 c2 -24 -2 -49 -7 -54z
m671 46 c35 -33 35 -43 2 -74 -25 -24 -26 -24 -40 -5 -9 13 -11 23 -5 29 6 6
4 19 -6 34 -14 21 -14 26 -2 34 20 12 20 12 51 -18z m320 -41 c18 -21 56 -58
85 -82 51 -43 54 -59 11 -60 -25 0 -183 162 -170 175 15 14 44 1 74 -33z m-52
-44 c58 -72 108 -112 168 -134 26 -9 54 -24 62 -32 13 -13 13 -14 -5 -7 -11 5
-41 10 -67 13 -38 3 -47 8 -52 26 -3 12 -23 32 -44 44 -21 11 -46 30 -56 41
-29 32 -96 63 -122 57 -31 -8 -40 11 -18 35 13 14 28 19 53 17 29 -2 43 -13
81 -60z m-150 -18 c33 -42 96 -83 143 -94 31 -7 35 -31 12 -62 -13 -17 -14
-17 -15 -1 0 12 -8 17 -28 17 -16 0 -37 9 -47 20 -10 11 -26 20 -37 20 -10 0
-18 4 -18 10 0 18 -45 34 -94 35 -27 0 -51 5 -53 11 -6 18 62 84 85 84 12 0
34 -17 52 -40z m352 -8 c40 -21 96 -48 123 -59 41 -17 45 -22 24 -22 -32 -1
-131 32 -173 58 -27 17 -64 61 -52 61 3 0 38 -17 78 -38z m-1142 -7 c-7 -9
-15 -13 -18 -10 -3 2 1 11 8 20 7 9 15 13 18 10 3 -2 -1 -11 -8 -20z m105 -17
c72 -36 78 -50 48 -113 -19 -39 -39 -44 -74 -17 -13 11 -45 31 -71 46 -45 26
-46 28 -30 46 9 10 25 30 35 44 10 14 20 26 22 26 3 0 34 -14 70 -32z m144 -9
c6 -18 11 -34 11 -35 0 -2 -13 -4 -30 -4 -33 0 -39 16 -18 50 17 27 24 25 37
-11z m1106 -21 c25 -12 45 -26 45 -30 0 -16 -36 -7 -73 17 -60 41 -45 48 28
13z m-115 -47 c0 -15 -29 -33 -45 -27 -28 10 -17 36 15 36 17 0 30 -4 30 -9z
m-993 -13 c-2 -7 -13 -12 -25 -11 -17 2 -23 -8 -38 -70 -16 -67 -18 -70 -27
-44 -17 53 25 137 69 137 16 0 24 -5 21 -12z m77 -9 c18 -14 26 -30 26 -50 0
-19 -4 -28 -11 -23 -6 3 -9 14 -6 24 4 15 -3 20 -34 25 -29 5 -39 11 -39 26 0
25 30 25 64 -2z m996 -10 c6 -10 10 -20 10 -23 0 -12 -26 -5 -50 14 -20 16
-22 22 -11 29 18 12 39 4 51 -20z m95 -15 l40 -35 -30 7 c-37 8 -79 36 -83 57
-5 24 27 11 73 -29z m65 5 c0 -5 -14 -2 -30 6 -17 9 -28 20 -25 25 7 11 55
-17 55 -31z m-448 15 c41 -51 58 -63 100 -69 62 -9 73 -17 59 -44 -7 -13 -21
-21 -37 -21 -22 0 -25 3 -20 24 7 30 -1 37 -29 24 -19 -9 -31 -7 -59 10 -19
12 -44 18 -55 15 -17 -4 -21 -1 -21 16 0 52 36 78 62 45z m-969 -35 c32 -22
57 -42 57 -44 0 -16 -64 -105 -75 -105 -8 0 -35 18 -61 41 -26 23 -58 46 -71
52 -28 13 -29 21 -3 47 20 20 46 28 36 11 -6 -10 30 -22 38 -13 13 12 5 41
-11 45 -12 3 -9 5 8 6 16 1 48 -15 82 -40z m1233 -39 c24 -22 49 -40 56 -40 7
0 31 -12 53 -25 l40 -25 -38 0 c-33 0 -47 8 -95 54 -31 29 -66 58 -77 64 -19
11 -19 11 -1 12 10 0 38 -18 62 -40z m232 10 c30 -19 43 -40 23 -40 -18 0 -71
35 -71 48 0 17 10 15 48 -8z m-128 -20 c0 -5 -7 -10 -15 -10 -8 0 -15 5 -15
10 0 6 7 10 15 10 8 0 15 -4 15 -10z m60 -16 c0 -8 -4 -12 -10 -9 -5 3 -10 10
-10 16 0 5 5 9 10 9 6 0 10 -7 10 -16z m-1556 -17 c17 -13 15 -16 -28 -41 -28
-17 -54 -25 -64 -21 -14 5 -11 12 20 41 42 38 47 39 72 21z m1347 -35 c-7 -17
-22 -32 -33 -35 -18 -5 -20 -2 -14 26 7 36 35 62 49 48 6 -6 5 -21 -2 -39z
m272 33 c25 -10 35 -20 31 -30 -4 -8 -10 -15 -15 -15 -18 0 -59 32 -59 46 0
17 0 17 43 -1z m120 -7 c18 -13 34 -24 36 -25 2 -2 2 -5 -1 -8 -9 -9 -88 28
-88 42 0 19 16 16 53 -9z m-148 -76 c-11 -11 -27 17 -20 35 6 16 8 16 16 -6 5
-13 7 -26 4 -29z m170 -2 c11 -18 -43 -10 -66 10 -20 16 -22 21 -10 29 14 9
61 -15 76 -39z m-1641 3 l49 -36 -24 -18 c-41 -33 -66 -34 -100 -5 -18 15 -45
30 -61 33 -32 6 -44 18 -27 29 10 6 92 31 109 33 3 0 27 -16 54 -36z m1356 -2
c65 -35 52 -47 -21 -20 -62 24 -81 37 -73 51 7 11 30 4 94 -31z m180 -4 c0 -7
-9 -18 -20 -25 -20 -12 -25 -6 -14 22 7 19 34 21 34 3z m-1872 -22 c-12 -27
-28 -34 -28 -12 0 14 20 37 32 37 4 0 2 -11 -4 -25z m86 -42 c-32 -71 -38 -79
-81 -100 -19 -9 -39 -26 -45 -38 -9 -19 -103 -109 -133 -127 -6 -4 -17 -3 -25
2 -11 7 -11 11 -1 24 8 9 21 16 31 16 17 0 75 59 113 114 10 15 22 24 28 21 5
-4 22 2 39 12 23 13 30 24 30 50 0 52 16 83 44 83 l25 0 -25 -57z m1836 32
c14 -16 10 -18 -14 -9 -9 3 -16 10 -16 15 0 14 16 11 30 -6z m-1676 -39 c39
-36 44 -57 21 -76 -20 -16 -75 8 -75 33 0 10 -6 20 -14 23 -15 6 -28 39 -18
48 15 15 54 3 86 -28z m-274 -9 c0 -2 -10 -12 -21 -23 -22 -19 -22 -19 -10 4
10 18 31 31 31 19z m-55 -67 c-3 -5 -11 -10 -16 -10 -6 0 -7 5 -4 10 3 6 11
10 16 10 6 0 7 -4 4 -10z m235 -24 c0 -19 -53 -61 -58 -46 -4 12 36 60 50 60
4 0 8 -6 8 -14z m-290 -16 c0 -5 -9 -14 -20 -20 -22 -12 -27 -1 -8 18 14 14
28 16 28 2z m218 -71 c34 1 24 -58 -13 -73 -13 -4 -15 -1 -10 14 5 16 2 20
-14 20 -11 0 -25 9 -31 19 -15 30 -13 34 18 27 15 -4 37 -7 50 -7z m-373 -49
c3 -5 1 -10 -4 -10 -6 0 -11 5 -11 10 0 6 2 10 4 10 3 0 8 -4 11 -10z m275
-19 c12 -24 13 -61 1 -61 -5 0 -14 7 -21 15 -21 25 -42 13 -54 -29 -15 -54
-39 -67 -68 -38 l-23 23 33 28 c17 15 32 33 32 39 0 7 14 12 30 12 18 0 33 6
36 15 8 21 21 19 34 -4z m-220 -25 c0 -23 -39 -61 -119 -116 -77 -52 -101 -60
-101 -35 0 8 16 19 39 25 25 6 48 22 65 45 18 23 35 35 52 35 16 0 24 6 24 18
0 19 18 42 32 42 4 0 8 -6 8 -14z m-130 -31 c0 -2 -10 -9 -22 -15 -22 -11 -22
-10 -4 4 21 17 26 19 26 11z m158 -77 c21 -21 14 -48 -12 -48 -30 0 -37 9 -29
38 6 24 23 28 41 10z m-94 -54 c8 -22 10 -20 -28 -43 -35 -22 -86 -28 -86 -11
0 6 6 10 13 10 6 0 28 14 47 30 41 34 46 36 54 14z m-164 -24 c0 -5 -5 -10
-11 -10 -5 0 -7 5 -4 10 3 6 8 10 11 10 2 0 4 -4 4 -10z"/>
<path d="M3563 12545 c-8 -22 6 -33 17 -15 13 20 12 30 0 30 -6 0 -13 -7 -17
-15z"/>
<path d="M3590 12497 c0 -8 7 -23 16 -32 16 -16 15 -74 -2 -118 -3 -10 -1 -17
5 -17 16 0 31 44 31 94 0 32 -6 48 -25 66 -20 19 -25 20 -25 7z"/>
<path d="M3174 12423 c-10 -16 -18 -35 -19 -43 0 -8 -6 -14 -13 -12 -7 1 -22
-2 -32 -8 -16 -9 -20 -22 -21 -73 -1 -43 -3 -54 -8 -37 -7 23 -8 22 -15 -15
-9 -52 -9 -65 -1 -97 6 -22 4 -27 -16 -30 -21 -3 -23 -7 -21 -48 4 -61 11 -80
28 -80 17 0 17 8 0 39 -7 12 -11 34 -8 47 5 27 22 22 22 -7 0 -10 5 -19 11
-19 7 0 9 10 7 25 -3 14 -1 25 3 25 5 0 9 -9 9 -19 0 -11 9 -41 20 -67 11 -26
18 -49 15 -52 -3 -3 1 -12 8 -20 9 -12 9 -16 0 -19 -10 -4 -9 -11 2 -34 19
-35 31 -37 39 -6 11 41 6 66 -18 90 -17 17 -23 32 -19 46 5 20 8 19 42 -17 77
-79 219 -83 279 -7 16 20 22 42 22 77 0 100 -53 141 -182 142 -49 0 -78 4 -78
10 0 21 18 39 33 33 8 -3 18 -3 21 0 11 12 61 9 86 -4 31 -16 49 -1 26 22 -9
9 -16 21 -16 26 0 6 -15 16 -32 24 -18 8 -27 14 -20 15 20 0 14 20 -7 20 -11
0 -21 8 -24 18 -3 14 -6 13 -15 -8 -11 -22 -12 -19 -9 28 1 28 -1 52 -5 52 -5
0 -9 -10 -9 -22 -1 -19 -3 -17 -9 7 -8 29 -8 29 -15 7 -6 -18 -10 -20 -16 -10
-7 10 -9 11 -9 0 0 -7 -4 -11 -10 -7 -5 3 -7 12 -3 20 9 24 -3 17 -23 -12z
m55 -70 l-1 -48 -8 40 c-7 37 -5 55 6 55 2 0 3 -21 3 -47z m-5 -329 c10 -25 7
-34 -9 -28 -8 4 -15 15 -15 25 0 23 16 25 24 3z"/>
<path d="M3695 12277 c-39 -30 -72 -62 -74 -73 -2 -13 10 -6 40 24 57 57 108
84 133 70 12 -7 21 -7 28 0 6 6 -2 13 -23 21 -17 6 -32 11 -33 11 -1 0 -33
-24 -71 -53z"/>
<path d="M3630 12090 c0 -5 5 -10 11 -10 5 0 7 5 4 10 -3 6 -8 10 -11 10 -2 0
-4 -4 -4 -10z"/>
<path d="M3511 11656 c-6 -16 -10 -31 -7 -33 7 -8 28 37 23 50 -3 7 -10 -1
-16 -17z"/>
<path d="M3388 10483 c7 -3 16 -2 19 1 4 3 -2 6 -13 5 -11 0 -14 -3 -6 -6z"/>
<path d="M3406 10455 c4 -8 10 -12 15 -9 14 8 10 24 -6 24 -9 0 -12 -6 -9 -15z"/>
<path d="M4350 6972 c-25 -20 -20 -42 9 -42 24 0 30 -9 74 -112 36 -85 47
-151 27 -163 -6 -4 -10 5 -10 19 0 14 -4 26 -10 26 -5 0 -10 -9 -10 -19 0 -11
-5 -23 -10 -26 -7 -4 -9 2 -5 17 4 21 -29 78 -39 67 -3 -2 -8 -73 -12 -158 -5
-115 -4 -152 5 -147 6 4 11 33 11 70 0 36 6 70 13 81 12 15 15 4 22 -91 4 -60
7 -156 5 -214 -1 -63 7 -169 19 -260 11 -85 22 -168 24 -185 10 -80 5 114 -9
367 -8 156 -12 298 -9 317 13 67 25 13 35 -159 12 -194 26 -300 41 -315 7 -7
9 1 5 25 -16 98 -26 216 -26 317 0 90 5 127 24 190 33 106 39 140 27 147 -13
9 -31 -26 -31 -60 0 -71 -39 64 -45 157 -4 63 -65 169 -96 169 -4 0 -17 -8
-29 -18z"/>
<path d="M4367 6883 c-12 -11 -8 -68 6 -88 13 -17 14 -16 20 14 11 52 -5 95
-26 74z"/>
<path d="M4330 6846 c0 -8 4 -17 9 -20 5 -4 7 3 4 14 -6 23 -13 26 -13 6z"/>
<path d="M4410 6740 c0 -5 4 -10 9 -10 6 0 13 5 16 10 3 6 -1 10 -9 10 -9 0
-16 -4 -16 -10z"/>
<path d="M2880 10011 c0 -12 5 -21 10 -21 6 0 10 6 10 14 0 8 -4 18 -10 21 -5
3 -10 -3 -10 -14z"/>
<path d="M2840 9960 c-12 -8 -9 -10 13 -10 15 0 27 5 27 10 0 13 -20 13 -40 0z"/>
<path d="M2530 9730 c0 -5 5 -10 11 -10 5 0 7 5 4 10 -3 6 -8 10 -11 10 -2 0
-4 -4 -4 -10z"/>
<path d="M2491 9704 c0 -11 3 -14 6 -6 3 7 2 16 -1 19 -3 4 -6 -2 -5 -13z"/>
<path d="M2997 9676 c-47 -29 -54 -36 -36 -36 8 0 30 14 49 30 42 35 38 37
-13 6z"/>
<path d="M2860 9620 c0 -5 4 -10 9 -10 6 0 13 5 16 10 3 6 -1 10 -9 10 -9 0
-16 -4 -16 -10z"/>
<path d="M5130 8651 c0 -11 5 -23 10 -26 6 -4 10 5 10 19 0 14 -4 26 -10 26
-5 0 -10 -9 -10 -19z"/>
<path d="M2706 9010 c-22 -11 -47 -27 -56 -35 -9 -8 -26 -15 -38 -15 -11 0
-24 -4 -27 -10 -4 -6 10 -10 35 -10 34 0 42 4 52 25 6 14 22 28 34 31 13 3 28
12 35 20 15 18 12 17 -35 -6z"/>
<path d="M3248 9114 c-5 -4 -8 -16 -8 -28 0 -14 3 -17 11 -9 6 6 9 19 7 28 -1
9 -6 13 -10 9z"/>
<path d="M3035 9000 c-3 -5 -2 -10 4 -10 5 0 13 5 16 10 3 6 2 10 -4 10 -5 0
-13 -4 -16 -10z"/>
<path d="M2806 8781 c-11 -12 -16 -24 -12 -28 9 -9 39 22 34 37 -2 7 -10 4
-22 -9z"/>
<path d="M3280 8578 c0 -19 2 -20 10 -8 13 19 13 30 0 30 -5 0 -10 -10 -10
-22z"/>
<path d="M4037 8583 c-4 -3 -20 -6 -37 -5 -16 0 -30 -4 -30 -9 0 -14 54 -11
76 6 10 8 14 15 8 15 -6 0 -14 -3 -17 -7z"/>
<path d="M3312 7980 c0 -14 2 -19 5 -12 2 6 2 18 0 25 -3 6 -5 1 -5 -13z"/>
<path d="M2975 7540 c3 -5 8 -10 11 -10 2 0 4 5 4 10 0 6 -5 10 -11 10 -5 0
-7 -4 -4 -10z"/>
<path d="M2626 6905 c-3 -9 0 -15 9 -15 8 0 15 7 15 15 0 8 -4 15 -9 15 -5 0
-11 -7 -15 -15z"/>
<path d="M2579 6518 c4 -12 13 -24 19 -26 18 -6 14 35 -4 42 -23 9 -24 8 -15
-16z"/>
<path d="M2513 6474 c7 -73 21 -87 37 -39 10 31 10 39 -4 54 -9 10 -16 23 -16
29 0 7 -5 12 -11 12 -8 0 -10 -17 -6 -56z"/>
<path d="M2944 4123 c3 -29 12 -65 20 -80 16 -28 16 -28 9 17 -3 25 -12 61
-20 80 l-13 35 4 -52z"/>
<path d="M3292 1424 c-1 -34 -5 -77 -8 -95 -5 -26 -4 -31 5 -23 8 7 11 39 8
95 -2 70 -3 74 -5 23z"/>
<path d="M3272 1260 c0 -14 2 -19 5 -12 2 6 2 18 0 25 -3 6 -5 1 -5 -13z"/>
<path d="M3317 1133 c-4 -3 -6 -31 -6 -62 l2 -56 7 60 c8 62 8 70 -3 58z"/>
<path d="M3405 1070 c-3 -5 -1 -10 4 -10 6 0 11 5 11 10 0 6 -2 10 -4 10 -3 0
-8 -4 -11 -10z"/>
<path d="M3368 1050 c-7 -24 -3 -38 8 -28 3 4 4 17 2 30 l-3 23 -7 -25z"/>
<path d="M3390 1010 c0 -5 5 -10 10 -10 6 0 10 5 10 10 0 6 -4 10 -10 10 -5 0
-10 -4 -10 -10z"/>
<path d="M4030 950 c0 -5 5 -10 10 -10 6 0 10 5 10 10 0 6 -4 10 -10 10 -5 0
-10 -4 -10 -10z"/>
<path d="M1984 9035 c-3 -25 -3 -53 1 -62 9 -22 12 -12 18 55 5 64 -9 69 -19
7z"/>
<path d="M2492 8473 c-7 -12 -12 -30 -12 -40 0 -15 2 -14 16 5 8 12 14 30 12
40 -3 15 -5 14 -16 -5z"/>
<path d="M2456 8374 c-9 -24 -7 -94 3 -94 4 0 9 25 9 55 0 58 -2 65 -12 39z"/>
<path d="M2448 7834 c-5 -4 -8 -16 -8 -28 0 -14 3 -17 11 -9 6 6 9 19 7 28 -1
9 -6 13 -10 9z"/>
<path d="M3895 7820 c-3 -5 -1 -10 4 -10 6 0 11 5 11 10 0 6 -2 10 -4 10 -3 0
-8 -4 -11 -10z"/>
<path d="M3888 7778 c-16 -13 -31 -58 -20 -58 6 1 43 70 38 70 -1 0 -9 -6 -18
-12z"/>
<path d="M2760 7770 c0 -5 5 -10 11 -10 5 0 7 5 4 10 -3 6 -8 10 -11 10 -2 0
-4 -4 -4 -10z"/>
<path d="M3776 7765 c-3 -8 -1 -15 4 -15 6 0 10 7 10 15 0 8 -2 15 -4 15 -2 0
-6 -7 -10 -15z"/>
<path d="M3867 7693 c-12 -12 -7 -22 8 -17 8 4 15 10 15 15 0 11 -14 12 -23 2z"/>
<path d="M3871 7656 c-8 -9 -11 -19 -7 -23 9 -9 29 13 24 27 -2 8 -8 7 -17 -4z"/>
<path d="M2775 7630 c3 -5 8 -10 11 -10 2 0 4 5 4 10 0 6 -5 10 -11 10 -5 0
-7 -4 -4 -10z"/>
<path d="M2760 7611 c0 -5 5 -13 10 -16 6 -3 10 -2 10 4 0 5 -4 13 -10 16 -5
3 -10 2 -10 -4z"/>
<path d="M3975 7560 c-3 -5 -1 -10 4 -10 6 0 11 5 11 10 0 6 -2 10 -4 10 -3 0
-8 -4 -11 -10z"/>
<path d="M3794 7519 c-10 -16 18 -30 34 -17 11 9 11 13 0 19 -18 12 -26 11
-34 -2z"/>
<path d="M3846 7495 c-3 -8 -1 -15 4 -15 6 0 10 7 10 15 0 8 -2 15 -4 15 -2 0
-6 -7 -10 -15z"/>
<path d="M3863 7058 c-27 -31 -36 -48 -25 -48 5 0 22 16 36 35 30 39 21 48
-11 13z"/>
<path d="M1886 5655 c-11 -29 -6 -82 8 -94 13 -11 14 -4 9 46 -7 66 -8 70 -17
48z"/>
<path d="M4850 816 c0 -9 7 -19 15 -23 25 -9 27 2 5 22 -18 17 -20 17 -20 1z"/>
</g>
</svg>
