<?xml version='1.0' encoding='iso-8859-1'?>
<!DOCTYPE svg PUBLIC '-//W3C//DTD SVG 1.1//EN' 'http://www.w3.org/Graphics/SVG/1.1/DTD/svg11.dtd'>
<svg version="1.1" xmlns="http://www.w3.org/2000/svg" viewBox="0 0 297 297" xmlns:xlink="http://www.w3.org/1999/xlink" enable-background="new 0 0 297 297">
  <g>
    <path d="m201.303,118.891h-23.206v-23.231c0-5.409-4.386-9.795-9.796-9.795h-39.6c-5.409,0-9.795,4.386-9.795,9.795v23.23h-23.207c-5.409,0-9.795,4.386-9.795,9.795v39.631c0,5.409 4.386,9.795 9.795,9.795h23.207v23.229c0,5.409 4.386,9.795 9.795,9.795h39.6c5.41,0 9.796-4.386 9.796-9.795v-23.229h23.206c5.409,0 9.795-4.386 9.795-9.795v-39.631c5.68434e-14-5.409-4.386-9.794-9.795-9.794zm-9.795,39.63h-23.207c-5.409,0-9.795,4.386-9.795,9.795v23.229h-20.01v-23.229c0-5.409-4.386-9.795-9.795-9.795h-23.207v-20.041h23.207c5.409,0 9.795-4.386 9.795-9.795v-23.23h20.01v23.23c0,5.409 4.386,9.795 9.795,9.795h23.207v20.041z"/>
    <path d="m148.501,46.235c-56.353,0-102.198,45.876-102.198,102.265s45.846,102.265 102.198,102.265c56.352,0 102.198-45.876 102.198-102.265s-45.845-102.265-102.198-102.265zm0,184.939c-45.55-2.84217e-14-82.607-37.087-82.607-82.674s37.058-82.674 82.607-82.674 82.607,37.087 82.607,82.674-37.057,82.674-82.607,82.674z"/>
    <path d="m148.501,35.001c5.409,0 9.795-4.386 9.795-9.795v-15.411c0-5.409-4.386-9.795-9.795-9.795-5.409,0-9.795,4.386-9.795,9.795v15.411c-2.84217e-14,5.409 4.386,9.795 9.795,9.795z"/>
    <path d="m148.501,261.999c-5.409,0-9.795,4.386-9.795,9.795v15.41c0,5.409 4.386,9.796 9.795,9.796 5.409,0 9.795-4.387 9.795-9.796v-15.41c0-5.409-4.386-9.795-9.795-9.795z"/>
    <path d="m287.103,138.705h-15.397c-5.409,0-9.795,4.386-9.795,9.795s4.386,9.795 9.795,9.795h15.397c5.41,0 9.796-4.386 9.796-9.795s-4.386-9.795-9.796-9.795z"/>
    <path d="m25.297,138.705h-15.399c-5.409,0-9.796,4.386-9.796,9.795s4.387,9.795 9.796,9.795h15.399c5.409,0 9.795-4.386 9.795-9.795s-4.386-9.795-9.795-9.795z"/>
    <path d="m239.58,43.495l-10.892,10.899c-3.825,3.826-3.823,10.029 0.005,13.853 1.912,1.911 4.417,2.866 6.923,2.866 2.509,0 5.017-0.957 6.929-2.871l10.892-10.899c3.824-3.826 3.822-10.028-0.005-13.852-3.826-3.825-10.029-3.823-13.852,0.004z"/>
    <path d="m54.453,228.755l-10.89,10.898c-3.823,3.827-3.82,10.028 0.006,13.853 1.912,1.911 4.418,2.866 6.924,2.866 2.508,0 5.017-0.957 6.929-2.871l10.89-10.899c3.824-3.827 3.821-10.028-0.005-13.854-3.828-3.822-10.031-3.819-13.854,0.007z"/>
    <path d="m54.456,68.241c1.912,1.914 4.42,2.871 6.929,2.871 2.505,0 5.011-0.955 6.924-2.866 3.827-3.823 3.828-10.026 0.004-13.853l-10.891-10.898c-3.823-3.827-10.026-3.831-13.853-0.005-3.827,3.823-3.829,10.025-0.005,13.852l10.892,10.899z"/>
    <path d="m242.546,228.755c-3.825-3.826-10.027-3.829-13.852-0.006-3.826,3.825-3.83,10.026-0.006,13.854l10.89,10.899c1.913,1.914 4.421,2.871 6.929,2.871 2.506,0 5.012-0.955 6.924-2.866 3.826-3.824 3.829-10.025 0.006-13.853l-10.891-10.899z"/>
  </g>
</svg>
